<svg width="16" height="16" viewBox="0 0 16 16" fill="none" xmlns="http://www.w3.org/2000/svg">
<path d="M8 7.33301C8.20045 7.33301 8.35189 7.39723 8.47754 7.52246C8.6027 7.64733 8.66721 7.79847 8.66699 7.99902V8C8.66699 8.19699 8.60313 8.34814 8.47656 8.47559C8.35064 8.60237 8.19961 8.66699 8 8.66699C7.8041 8.66699 7.65302 8.60341 7.52539 8.47559L7.52441 8.47461C7.39659 8.34698 7.33301 8.1959 7.33301 8C7.33301 7.80039 7.39763 7.64936 7.52441 7.52344C7.65186 7.39687 7.80301 7.33301 8 7.33301Z" fill="#101010" stroke="#101010" stroke-width="0.666667"/>
<path d="M11.8471 6.82597C11.4508 5.54126 10.4248 4.5328 9.12951 4.16113M6.91875 4.16113C5.62345 4.5328 4.59741 5.54126 4.20117 6.82597M4.20117 9.18691C4.59741 10.4716 5.62345 11.4801 6.91875 11.8517M9.12951 11.8517C10.4248 11.4801 11.4508 10.4716 11.8471 9.18691" stroke="#101010" stroke-linecap="round" stroke-linejoin="round"/>
<path d="M2.5 4.94444V3.72222C2.5 3.39807 2.62877 3.08719 2.85798 2.85798C3.08719 2.62877 3.39807 2.5 3.72222 2.5H4.94444M11.0556 2.5H12.2778C12.6019 2.5 12.9128 2.62877 13.142 2.85798C13.3712 3.08719 13.5 3.39807 13.5 3.72222V4.94444M13.5 11.0556V12.2778C13.5 12.6019 13.3712 12.9128 13.142 13.142C12.9128 13.3712 12.6019 13.5 12.2778 13.5H11.0556M4.94444 13.5H3.72222C3.39807 13.5 3.08719 13.3712 2.85798 13.142C2.62877 12.9128 2.5 12.6019 2.5 12.2778V11.0556" stroke="#101010" stroke-linecap="round" stroke-linejoin="round"/>
</svg>
