<svg width="16" height="16" viewBox="0 0 16 16" fill="none" xmlns="http://www.w3.org/2000/svg">
<mask id="mask0_2522_655" style="mask-type:alpha" maskUnits="userSpaceOnUse" x="-1" y="-6" width="18" height="19">
<rect x="-0.888672" y="-5.33325" width="17.7778" height="17.7778" fill="#D9D9D9"/>
</mask>
<g mask="url(#mask0_2522_655)">
<path d="M5.59691 5.14822C5.50765 5.14822 5.43574 5.1181 5.38117 5.05785C5.3266 4.99773 5.29932 4.92754 5.29932 4.84729C5.29932 4.83705 5.33321 4.76643 5.40098 4.63544L7.68172 2.35266C7.72296 2.31131 7.77222 2.27828 7.8295 2.25359C7.88679 2.2289 7.94364 2.21655 8.00006 2.21655C8.05648 2.21655 8.11333 2.2289 8.17061 2.25359C8.2279 2.27828 8.27716 2.31131 8.31839 2.35266L10.5993 4.63489C10.6307 4.66637 10.6554 4.70155 10.6736 4.74044C10.6917 4.77921 10.7008 4.81822 10.7008 4.85748C10.7008 4.93587 10.6735 5.00396 10.6189 5.06174C10.5644 5.11939 10.4925 5.14822 10.4032 5.14822H5.59691Z" fill="#101010"/>
</g>
<mask id="mask1_2522_655" style="mask-type:alpha" maskUnits="userSpaceOnUse" x="-1" y="3" width="18" height="19">
<rect x="-0.888672" y="3.55566" width="17.7778" height="17.7778" fill="#D9D9D9"/>
</mask>
<g mask="url(#mask1_2522_655)">
<path d="M7.68172 13.6474L5.4008 11.3651C5.36944 11.3337 5.34469 11.2985 5.32654 11.2596C5.30839 11.2208 5.29932 11.1818 5.29932 11.1425C5.29932 11.0642 5.3266 10.9961 5.38117 10.9383C5.43574 10.8806 5.50765 10.8518 5.59691 10.8518H10.4032C10.4925 10.8518 10.5644 10.8819 10.6189 10.9422C10.6735 11.0023 10.7008 11.0725 10.7008 11.1527C10.7008 11.163 10.6669 11.2336 10.5991 11.3646L8.31839 13.6474C8.27716 13.6887 8.2279 13.7217 8.17061 13.7464C8.11333 13.7711 8.05648 13.7835 8.00006 13.7835C7.94364 13.7835 7.88679 13.7711 7.8295 13.7464C7.77222 13.7217 7.72296 13.6887 7.68172 13.6474Z" fill="#101010"/>
</g>
</svg>
