<svg width="16" height="16" viewBox="0 0 16 16" fill="none" xmlns="http://www.w3.org/2000/svg">
<path d="M10.8072 11.5302V12.3569C10.8072 12.4519 10.843 12.535 10.9145 12.6063C10.986 12.6777 11.0694 12.7133 11.1648 12.7133C11.2601 12.7133 11.3435 12.6777 11.415 12.6063C11.4865 12.535 11.5223 12.4519 11.5223 12.3569V11.5302H12.3516C12.447 11.5302 12.5304 11.4946 12.6018 11.4233C12.6733 11.352 12.7091 11.2688 12.7091 11.1739C12.7091 11.0788 12.6733 10.9956 12.6018 10.9243C12.5304 10.8531 12.447 10.8175 12.3516 10.8175H11.5223V9.99079C11.5223 9.89571 11.4865 9.81251 11.415 9.7412C11.3435 9.67 11.2601 9.6344 11.1648 9.6344C11.0694 9.6344 10.986 9.67 10.9145 9.7412C10.843 9.81251 10.8072 9.89571 10.8072 9.99079V10.8175H9.97794C9.88256 10.8175 9.79915 10.8531 9.72772 10.9243C9.65618 10.9956 9.62041 11.0788 9.62041 11.1739C9.62041 11.2688 9.65618 11.352 9.72772 11.4233C9.79915 11.4946 9.88256 11.5302 9.97794 11.5302H10.8072ZM11.161 14.0001C10.3732 14.0001 9.70431 13.7247 9.15442 13.174C8.60453 12.6235 8.32959 11.9555 8.32959 11.1701C8.32959 10.3848 8.6058 9.71803 9.15822 9.16988C9.71052 8.62173 10.3806 8.34766 11.1685 8.34766C11.9563 8.34766 12.6252 8.62294 13.1751 9.1735C13.725 9.72417 13.9999 10.3922 13.9999 11.1775C13.9999 11.9629 13.7237 12.6297 13.1713 13.1778C12.619 13.726 11.9489 14.0001 11.161 14.0001Z" fill="#101010"/>
<path d="M7.41974 12.0186H3.50537C2.95309 12.0186 2.50537 11.5708 2.50537 11.0186V4.98242C2.50537 4.43014 2.95309 3.98242 3.50537 3.98242H12.4946C13.0469 3.98242 13.4946 4.43014 13.4946 4.98242V8.00049" stroke="#101010" stroke-linecap="round"/>
<path d="M4.90747 6.8291H10.0227" stroke="#101010" stroke-linecap="round"/>
<path d="M4.90747 9.21191H7.35376" stroke="#101010" stroke-linecap="round"/>
</svg>
