<svg width="16" height="16" viewBox="0 0 16 16" fill="none" xmlns="http://www.w3.org/2000/svg">
<path d="M8.56029 12.0186H3.50537C2.95309 12.0186 2.50537 11.5708 2.50537 11.0186V4.98242C2.50537 4.43014 2.95309 3.98242 3.50537 3.98242H12.4946C13.0469 3.98242 13.4946 4.43014 13.4946 4.98242V7.22011" stroke="#101010" stroke-linecap="round"/>
<path d="M4.90747 6.8291H10.0227" stroke="#101010" stroke-linecap="round"/>
<path d="M4.90747 9.21191H7.35376" stroke="#101010" stroke-linecap="round"/>
<path d="M14.6985 8.76118C14.7403 8.80367 14.7612 8.85045 14.7612 8.9015C14.7612 8.95245 14.7371 9.002 14.6889 9.05017L14.2459 9.50871L13.5687 8.83157L14.012 8.37318C14.0579 8.32492 14.1083 8.30078 14.1634 8.30078C14.2184 8.30078 14.2685 8.32461 14.3138 8.37225L14.6985 8.76118ZM13.9329 9.83359L10.5091 13.2574C10.4732 13.293 10.4315 13.3224 10.384 13.3454C10.3364 13.3684 10.2843 13.3799 10.2276 13.3799H9.90904C9.85056 13.3799 9.80271 13.3612 9.76548 13.3239C9.72814 13.2866 9.70947 13.2388 9.70947 13.1805V12.8618C9.70947 12.8052 9.72102 12.7531 9.74413 12.7055C9.76713 12.658 9.79647 12.6162 9.83215 12.5802L13.2558 9.15645L13.9329 9.83359Z" fill="#101010"/>
</svg>
