<svg width="16" height="16" viewBox="0 0 16 16" fill="none" xmlns="http://www.w3.org/2000/svg">
<path d="M13.0417 4.79102H2.95833C2.7052 4.79102 2.5 4.99622 2.5 5.24935V12.5827C2.5 12.8358 2.7052 13.041 2.95833 13.041H13.0417C13.2948 13.041 13.5 12.8358 13.5 12.5827V5.24935C13.5 4.99622 13.2948 4.79102 13.0417 4.79102Z" stroke="#101010" stroke-linecap="round" stroke-linejoin="round"/>
<path d="M8.76005 8.51367H7.24093C7.20279 8.51367 7.17188 8.55431 7.17188 8.60444V10.0567C7.17188 10.1068 7.20279 10.1475 7.24093 10.1475H8.76005C8.79819 10.1475 8.8291 10.1068 8.8291 10.0567V8.60444C8.8291 8.55431 8.79819 8.51367 8.76005 8.51367Z" stroke="#101010" stroke-linecap="round" stroke-linejoin="round"/>
<path d="M10.2916 4.79134V3.87467C10.2916 3.63156 10.195 3.3984 10.0231 3.22649C9.85119 3.05458 9.61803 2.95801 9.37492 2.95801H6.62492C6.3818 2.95801 6.14865 3.05458 5.97674 3.22649C5.80483 3.3984 5.70825 3.63156 5.70825 3.87467V4.79134" stroke="#101010" stroke-linecap="round" stroke-linejoin="round"/>
<path d="M2.5 9.49512H6.94141" stroke="#101010" stroke-linecap="round" stroke-linejoin="round"/>
<path d="M8.8291 9.49609H13.2705" stroke="#101010" stroke-linecap="round" stroke-linejoin="round"/>
</svg>
