<svg width="16" height="16" viewBox="0 0 16 16" fill="none" xmlns="http://www.w3.org/2000/svg">
<rect width="16" height="16" fill="white" fill-opacity="0.01"/>
<path fill-rule="evenodd" clip-rule="evenodd" d="M2.49951 3.24436C2.49951 2.83326 2.83277 2.5 3.24387 2.5H4.48447C4.89557 2.5 5.22883 2.83326 5.22883 3.24436V3.49248H10.7702V3.24436C10.7702 2.83326 11.1034 2.5 11.5146 2.5H12.7552C13.1662 2.5 13.4995 2.83326 13.4995 3.24436V4.48496C13.4995 4.89606 13.1662 5.22932 12.7552 5.22932H12.507V10.7707H12.7552C13.1662 10.7707 13.4995 11.1039 13.4995 11.515V12.7556C13.4995 13.1667 13.1662 13.5 12.7552 13.5H11.5146C11.1034 13.5 10.7702 13.1667 10.7702 12.7556V12.5075H5.22883V12.7556C5.22883 13.1667 4.89557 13.5 4.48447 13.5H3.24387C2.83277 13.5 2.49951 13.1667 2.49951 12.7556V11.515C2.49951 11.1039 2.83277 10.7707 3.24387 10.7707H3.49199V5.22932H3.24387C2.83277 5.22932 2.49951 4.89606 2.49951 4.48496V3.24436ZM4.23635 5.22932V10.7707H4.48447C4.89557 10.7707 5.22883 11.1039 5.22883 11.515V11.7632H10.7702V11.515C10.7702 11.1039 11.1034 10.7707 11.5146 10.7707H11.7627V5.22932H11.5146C11.1034 5.22932 10.7702 4.89606 10.7702 4.48496V4.23684H5.22883V4.48496C5.22883 4.89606 4.89557 5.22932 4.48447 5.22932H4.23635ZM3.74011 3.24436H3.24387V3.7406V3.98872V4.48496H3.74011H3.98823H4.48447V3.98872V3.7406V3.24436H3.98823H3.74011ZM6.01455 6.75939C6.01455 6.34829 6.3478 6.01503 6.75891 6.01503H7.58597C7.99707 6.01503 8.33033 6.34829 8.33033 6.75939V7.58646C8.33033 7.61618 8.32859 7.64548 8.3252 7.67429C8.35401 7.6709 8.38332 7.66917 8.41304 7.66917H9.2401C9.6512 7.66917 9.98446 8.00242 9.98446 8.41353V9.24059C9.98446 9.65169 9.6512 9.98495 9.2401 9.98495H8.41304C8.00194 9.98495 7.66868 9.65169 7.66868 9.24059V8.41353C7.66868 8.38381 7.67042 8.3545 7.67381 8.32569C7.64499 8.32907 7.61569 8.33082 7.58597 8.33082H6.75891C6.3478 8.33082 6.01455 7.99755 6.01455 7.58646V6.75939ZM6.84161 6.75939H6.75891V6.8421V7.50375V7.58646H6.84161H7.50327H7.58597V7.50375V6.8421V6.75939H7.50327H6.84161ZM8.41304 8.41353H8.49575H9.1574H9.2401V8.49623V9.15789V9.24059H9.1574H8.49575H8.41304V9.15789V8.49623V8.41353ZM3.98823 11.515H3.74011H3.24387V12.0113V12.2594V12.7556H3.74011H3.98823H4.48447V12.2594V12.0113V11.515H3.98823ZM11.5146 3.24436H12.0108H12.2589H12.7552V3.7406V3.98872V4.48496H12.2589H12.0108H11.5146V3.98872V3.7406V3.24436ZM12.2589 11.515H12.0108H11.5146V12.0113V12.2594V12.7556H12.0108H12.2589H12.7552V12.2594V12.0113V11.515H12.2589Z" fill="#101010"/>
</svg>
