<svg width="16" height="16" viewBox="0 0 16 16" fill="none" xmlns="http://www.w3.org/2000/svg">
<path d="M12.1364 5.19821C12.6713 6.00673 12.9575 6.95433 12.9595 7.92378C12.9615 8.89324 12.6792 9.84201 12.1477 10.6527C11.6161 11.4635 10.8585 12.1006 9.96865 12.4853C9.07878 12.8699 8.09567 12.9853 7.14091 12.8171M3.86497 10.6682C3.33006 9.85946 3.04402 8.91163 3.04224 7.942C3.04047 6.97238 3.32302 6.02351 3.85496 5.21281C4.38689 4.40212 5.14485 3.76518 6.03504 3.38081C6.92524 2.99645 7.90859 2.88153 8.86342 3.05027M12.4631 4.4624C12.4631 5.01007 12.0192 5.45405 11.4715 5.45405C10.9238 5.45405 10.4798 5.01007 10.4798 4.4624C10.4798 3.91472 10.9238 3.47074 11.4715 3.47074C12.0192 3.47074 12.4631 3.91472 12.4631 4.4624ZM5.52153 11.404C5.52153 11.9517 5.07755 12.3957 4.52988 12.3957C3.9822 12.3957 3.53822 11.9517 3.53822 11.404C3.53822 10.8563 3.9822 10.4123 4.52988 10.4123C5.07755 10.4123 5.52153 10.8563 5.52153 11.404Z" stroke="black" stroke-linecap="round" stroke-linejoin="round"/>
<path d="M9.7218 10.0517C9.99794 10.0517 10.2274 9.82508 10.1657 9.55591C10.1381 9.43524 10.1004 9.3168 10.0528 9.20189C9.94116 8.93247 9.77759 8.68767 9.57139 8.48147C9.36518 8.27526 9.12038 8.11169 8.85096 8.00009C8.58154 7.88849 8.29278 7.83105 8.00116 7.83105C7.70954 7.83105 7.42078 7.88849 7.15136 8.00009C6.88193 8.11169 6.63713 8.27526 6.43093 8.48147C6.22472 8.68767 6.06115 8.93247 5.94955 9.20189C5.90196 9.3168 5.86421 9.43524 5.83657 9.55591C5.77492 9.82508 6.00438 10.0517 6.28052 10.0517L8.00116 10.0517H9.7218Z" fill="black"/>
<path d="M8.00067 7.4569C8.51786 7.4569 8.93712 7.03763 8.93712 6.52044C8.93712 6.00325 8.51786 5.58398 8.00067 5.58398C7.48347 5.58398 7.06421 6.00325 7.06421 6.52044C7.06421 7.03763 7.48347 7.4569 8.00067 7.4569Z" fill="black"/>
<circle cx="9.10939" cy="3.15895" r="0.658947" fill="black"/>
<circle cx="6.82643" cy="12.8406" r="0.658947" fill="black"/>
</svg>
