<svg width="16" height="16" viewBox="0 0 16 16" fill="none" xmlns="http://www.w3.org/2000/svg">
<path d="M12.1354 5.37391C12.6703 6.18241 12.9564 7.12998 12.9584 8.0994C12.9604 9.06882 12.6782 10.0176 12.1466 10.8283C11.6151 11.639 10.8575 12.2761 9.96769 12.6607C9.07785 13.0454 8.09477 13.1608 7.14005 12.9926M3.86421 10.8437C3.32932 10.035 3.04329 9.08722 3.04151 8.11762C3.03973 7.14803 3.32228 6.19919 3.8542 5.38852C4.38611 4.57785 5.14405 3.94093 6.03421 3.55658C6.92438 3.17223 7.9077 3.05731 8.8625 3.22605M12.4621 4.63813C12.4621 5.18579 12.0181 5.62975 11.4705 5.62975C10.9228 5.62975 10.4789 5.18579 10.4789 4.63813C10.4789 4.09047 10.9228 3.6465 11.4705 3.6465C12.0181 3.6465 12.4621 4.09047 12.4621 4.63813ZM5.52072 11.5795C5.52072 12.1272 5.07675 12.5711 4.5291 12.5711C3.98144 12.5711 3.53747 12.1272 3.53747 11.5795C3.53747 11.0318 3.98144 10.5879 4.5291 10.5879C5.07675 10.5879 5.52072 11.0318 5.52072 11.5795Z" stroke="black" stroke-linecap="round" stroke-linejoin="round"/>
<path d="M6.32954 8.76555C6.22532 8.87001 6.16677 9.01154 6.16675 9.1591V9.94203H6.95457C7.10221 9.94203 7.24374 9.88336 7.34811 9.77875L9.67026 7.45537C9.77445 7.3509 9.83296 7.20937 9.83296 7.06183C9.83296 6.91428 9.77445 6.77276 9.67026 6.66828L9.44098 6.43851C9.38928 6.38678 9.32788 6.34574 9.2603 6.31775C9.19272 6.28976 9.12029 6.27537 9.04714 6.27539C8.974 6.27541 8.90158 6.28985 8.83402 6.31788C8.76645 6.34592 8.70508 6.38699 8.65341 6.43876L6.32954 8.76555Z" stroke="black" stroke-linecap="round" stroke-linejoin="round"/>
<circle cx="9.10839" cy="3.15893" r="0.658925" fill="black"/>
<circle cx="6.82567" cy="12.8415" r="0.658925" fill="black"/>
</svg>
