<svg width="16" height="16" viewBox="0 0 16 16" fill="none" xmlns="http://www.w3.org/2000/svg">
<circle cx="7.60647" cy="8.00027" r="4.66043" fill="#F0F0FF"/>
<path d="M3.28547 8.00021C3.28547 5.61355 5.22024 3.67878 7.6069 3.67878C8.39467 3.67878 9.1321 3.88921 9.76733 4.25667C9.95514 4.36531 10.1955 4.30113 10.3041 4.11332C10.4127 3.92552 10.3486 3.68519 10.1608 3.57655C9.40916 3.14178 8.53648 2.89307 7.6069 2.89307C4.7863 2.89307 2.49976 5.17961 2.49976 8.00021C2.49976 10.8208 4.7863 13.1074 7.6069 13.1074C10.4275 13.1074 12.714 10.8208 12.714 8.00021C12.714 7.78324 12.5382 7.60735 12.3212 7.60735C12.1042 7.60735 11.9283 7.78324 11.9283 8.00021C11.9283 10.3869 9.99356 12.3216 7.6069 12.3216C5.22024 12.3216 3.28547 10.3869 3.28547 8.00021Z" fill="#101010"/>
<path d="M13.3847 4.34943C13.5381 4.19601 13.5381 3.94727 13.3847 3.79385C13.2313 3.64043 12.9825 3.64043 12.8291 3.79385L7.6069 9.01605L5.52755 6.9367C5.37413 6.78328 5.12538 6.78328 4.97196 6.9367C4.81854 7.09012 4.81854 7.33887 4.97196 7.49229L7.32911 9.84943C7.48253 10.0029 7.73127 10.0029 7.88469 9.84943L13.3847 4.34943Z" fill="#101010"/>
</svg>
