<svg width="16" height="16" viewBox="0 0 16 16" fill="none" xmlns="http://www.w3.org/2000/svg">
<path d="M8.82524 5.25C8.97712 5.25 9.10024 5.12688 9.10024 4.975C9.10024 4.82312 8.97712 4.7 8.82524 4.7C8.67337 4.7 8.55024 4.82312 8.55024 4.975C8.55024 5.12688 8.67337 5.25 8.82524 5.25Z" fill="#101010"/>
<path d="M11.0252 7.45C11.1771 7.45 11.3002 7.32688 11.3002 7.175C11.3002 7.02312 11.1771 6.9 11.0252 6.9C10.8734 6.9 10.7502 7.02312 10.7502 7.175C10.7502 7.32688 10.8734 7.45 11.0252 7.45Z" fill="#101010"/>
<path d="M4.97524 8.55C5.12712 8.55 5.25024 8.42688 5.25024 8.275C5.25024 8.12312 5.12712 8 4.97524 8C4.82337 8 4.70024 8.12312 4.70024 8.275C4.70024 8.42688 4.82337 8.55 4.97524 8.55Z" fill="#101010"/>
<path d="M6.07524 5.8C6.22712 5.8 6.35024 5.67688 6.35024 5.525C6.35024 5.37312 6.22712 5.25 6.07524 5.25C5.92337 5.25 5.80024 5.37312 5.80024 5.525C5.80024 5.67688 5.92337 5.8 6.07524 5.8Z" fill="#101010"/>
<path d="M8.00024 13.5C6.54155 13.5 5.14261 12.9205 4.11116 11.8891C3.07971 10.8576 2.50024 9.45869 2.50024 8C2.50024 6.54131 3.07971 5.14236 4.11116 4.11091C5.14261 3.07946 6.54155 2.5 8.00024 2.5C9.45893 2.5 10.8579 3.02152 11.8893 3.94982C12.9208 4.87813 13.5002 6.13718 13.5002 7.45C13.5002 8.17935 13.2105 8.87882 12.6948 9.39454C12.1791 9.91027 11.4796 10.2 10.7502 10.2H9.51274C9.334 10.2 9.15878 10.2498 9.00673 10.3437C8.85468 10.4377 8.7318 10.5722 8.65186 10.7321C8.57192 10.8919 8.53808 11.0709 8.55413 11.2489C8.57019 11.427 8.6355 11.597 8.74274 11.74L8.90774 11.96C9.01499 12.103 9.0803 12.273 9.09635 12.4511C9.11241 12.6291 9.07857 12.8081 8.99863 12.9679C8.91869 13.1278 8.79581 13.2623 8.64376 13.3563C8.49171 13.4502 8.31649 13.5 8.13774 13.5H8.00024Z" stroke="#101010" stroke-linecap="round" stroke-linejoin="round"/>
<path d="M8.82524 5.25C8.97712 5.25 9.10024 5.12688 9.10024 4.975C9.10024 4.82312 8.97712 4.7 8.82524 4.7C8.67337 4.7 8.55024 4.82312 8.55024 4.975C8.55024 5.12688 8.67337 5.25 8.82524 5.25Z" stroke="#101010" stroke-linecap="round" stroke-linejoin="round"/>
<path d="M11.0252 7.45C11.1771 7.45 11.3002 7.32688 11.3002 7.175C11.3002 7.02312 11.1771 6.9 11.0252 6.9C10.8734 6.9 10.7502 7.02312 10.7502 7.175C10.7502 7.32688 10.8734 7.45 11.0252 7.45Z" stroke="#101010" stroke-linecap="round" stroke-linejoin="round"/>
<path d="M4.97524 8.55C5.12712 8.55 5.25024 8.42688 5.25024 8.275C5.25024 8.12312 5.12712 8 4.97524 8C4.82337 8 4.70024 8.12312 4.70024 8.275C4.70024 8.42688 4.82337 8.55 4.97524 8.55Z" stroke="#101010" stroke-linecap="round" stroke-linejoin="round"/>
<path d="M6.07524 5.8C6.22712 5.8 6.35024 5.67688 6.35024 5.525C6.35024 5.37312 6.22712 5.25 6.07524 5.25C5.92337 5.25 5.80024 5.37312 5.80024 5.525C5.80024 5.67688 5.92337 5.8 6.07524 5.8Z" stroke="#101010" stroke-linecap="round" stroke-linejoin="round"/>
</svg>
