<svg width="16" height="16" viewBox="0 0 16 16" fill="none" xmlns="http://www.w3.org/2000/svg">
<path d="M8 9.87741C8.40175 9.35835 8.64084 8.70703 8.64084 7.99986C8.64084 7.2927 8.40175 6.64137 8 6.12231C7.59825 6.64137 7.35916 7.2927 7.35916 7.99986C7.35916 8.70703 7.59825 9.35835 8 9.87741Z" fill="#101010"/>
<path d="M8 9.87741C8.40175 9.35835 8.64084 8.70703 8.64084 7.99986C8.64084 7.2927 8.40175 6.64137 8 6.12231M8 9.87741C7.59825 9.35835 7.35916 8.70703 7.35916 7.99986C7.35916 7.2927 7.59825 6.64137 8 6.12231M8 9.87741C8.56155 10.6029 9.44089 11.07 10.4293 11.07C12.1249 11.07 13.4995 9.69547 13.4995 7.99986C13.4995 6.30425 12.1249 4.92969 10.4293 4.92969C9.44089 4.92969 8.56155 5.3968 8 6.12231M8 9.87741C7.43845 10.6029 6.55911 11.07 5.57066 11.07C3.87505 11.07 2.50049 9.69547 2.50049 7.99986C2.50049 6.30425 3.87505 4.92969 5.57066 4.92969C6.55911 4.92969 7.43845 5.3968 8 6.12231" stroke="#101010"/>
</svg>
