<svg width="16" height="16" viewBox="0 0 16 16" fill="none" xmlns="http://www.w3.org/2000/svg">
<path d="M5.09171 8.48752L7.08514 6.49409C7.18049 6.39874 7.33428 6.39619 7.43274 6.48834L8.4431 7.43393C8.54074 7.52532 8.69301 7.52367 8.78866 7.4302L10.9218 5.34558M2.68288 13.4971L5.30117 10.8265M2.68288 13.4971H5.00443M2.68288 13.4971C2.60561 13.4971 2.54297 13.4344 2.54297 13.3572V3.05273C2.54297 2.77659 2.76683 2.55273 3.04297 2.55273H13.0226C13.2987 2.55273 13.5226 2.77659 13.5226 3.05273V12.9971C13.5226 13.2732 13.2987 13.4971 13.0226 13.4971H10.049M5.00443 13.4971L7.65763 10.8265M5.00443 13.4971H7.3958M7.3958 13.4971L10.049 10.8265M7.3958 13.4971H10.049M10.049 13.4971L12.6847 10.8265" stroke="#101010" stroke-linecap="round" stroke-linejoin="round"/>
</svg>
