<svg width="16" height="16" viewBox="0 0 16 16" fill="none" xmlns="http://www.w3.org/2000/svg">
<path d="M5.24673 9.33337C5.24673 8.57303 4.63038 7.95665 3.87007 7.95665C3.10976 7.95665 2.49341 8.57303 2.49341 9.33337C2.49341 10.0937 3.10976 10.7101 3.87007 10.7101C4.63038 10.7101 5.24673 10.0937 5.24673 9.33337Z" stroke="#101010" stroke-linecap="round" stroke-linejoin="round"/>
<path d="M13.5065 10.0625C13.5065 9.30215 12.8901 8.68577 12.1298 8.68577C11.3695 8.68577 10.7532 9.30215 10.7532 10.0625C10.7532 10.8228 11.3695 11.4392 12.1298 11.4392C12.8901 11.4392 13.5065 10.8228 13.5065 10.0625Z" stroke="#101010" stroke-linecap="round" stroke-linejoin="round"/>
<path d="M9.37662 5.95653C9.37662 5.19619 8.76026 4.57982 7.99995 4.57982C7.23964 4.57982 6.62329 5.19619 6.62329 5.95653C6.62329 6.71687 7.23964 7.33325 7.99995 7.33325C8.76026 7.33325 9.37662 6.71687 9.37662 5.95653Z" stroke="#101010" stroke-linecap="round" stroke-linejoin="round"/>
<path d="M3.87036 7.95667L3.87036 2.51794" stroke="#101010" stroke-linecap="round" stroke-linejoin="round"/>
<path d="M12.1296 8.66663L12.1296 2.51819" stroke="#101010" stroke-linecap="round" stroke-linejoin="round"/>
<path d="M3.87036 13.4819L3.87036 10.7101" stroke="#101010" stroke-linecap="round" stroke-linejoin="round"/>
<path d="M12.1296 13.4819L12.1296 11.4392" stroke="#101010" stroke-linecap="round" stroke-linejoin="round"/>
<path d="M8.00024 4.57983L8.00024 2.51807" stroke="#101010" stroke-linecap="round" stroke-linejoin="round"/>
<path d="M8.00024 13.4819L8.00024 7.33325" stroke="#101010" stroke-linecap="round" stroke-linejoin="round"/>
</svg>
