<svg width="16" height="16" viewBox="0 0 16 16" fill="none" xmlns="http://www.w3.org/2000/svg">
<path d="M9.61178 4.00045L8.17638 2.56541C8.07875 2.46779 7.92047 2.4678 7.82285 2.56543L6.38783 4.00045" stroke="#101010" stroke-linecap="round"/>
<path d="M6.38773 12.023L7.82313 13.458C7.92076 13.5556 8.07904 13.5556 8.17666 13.458L9.61168 12.023" stroke="#101010" stroke-linecap="round"/>
<path d="M11.9829 9.62301L13.418 8.18761C13.5156 8.08998 13.5156 7.9317 13.418 7.83408L11.9829 6.39906" stroke="#101010" stroke-linecap="round"/>
<path d="M3.99996 6.39945L2.56492 7.83485C2.46731 7.93248 2.46732 8.09076 2.56494 8.18838L3.99996 9.6234" stroke="#101010" stroke-linecap="round"/>
<path d="M7.9931 9.49597C7.57719 9.49597 7.22594 9.35244 6.93937 9.06539C6.65232 8.77882 6.50879 8.42757 6.50879 8.01166C6.50879 7.59574 6.65232 7.24426 6.93937 6.9572C7.22642 6.67015 7.57767 6.52686 7.9931 6.52734C8.40854 6.52783 8.76002 6.67111 9.04755 6.9572C9.33509 7.2433 9.47838 7.59478 9.47741 8.01166C9.47645 8.42853 9.33317 8.77978 9.04755 9.06539C8.76194 9.351 8.41046 9.49453 7.9931 9.49597Z" fill="#101010"/>
</svg>
