<svg width="16" height="16" viewBox="0 0 16 16" fill="none" xmlns="http://www.w3.org/2000/svg">
<path d="M4.32169 7.3188C5.92655 4.47262 6.72898 3.0498 8 3.0498C9.27102 3.0498 10.0734 4.47262 11.6783 7.3188L11.8785 7.67299C13.2122 10.0379 13.8794 11.2204 13.2766 12.085C12.6738 12.9496 11.1822 12.9496 8.2002 12.9496H7.7998C4.81778 12.9496 3.32621 12.9496 2.72343 12.085C2.12064 11.2204 2.78778 10.0379 4.12149 7.67299L4.32169 7.3188Z" stroke="#101010"/>
<path d="M8 5.7998V8.54974" stroke="#101010" stroke-linecap="round"/>
<path d="M7.99976 9.98242C8.11935 9.98242 8.21645 10.0796 8.21655 10.1992C8.21655 10.3189 8.11941 10.416 7.99976 10.416C7.88019 10.4159 7.78296 10.3188 7.78296 10.1992C7.78306 10.0797 7.88025 9.98252 7.99976 9.98242Z" fill="#101010" stroke="#101010" stroke-width="0.666667"/>
</svg>
