<svg width="16" height="16" viewBox="0 0 16 16" fill="none" xmlns="http://www.w3.org/2000/svg">
<path d="M11.896 6.53937C12.8078 7.45117 13.3659 8.65051 13.4822 9.92427C13.5072 10.1993 13.281 10.4236 13.0049 10.4236H10.9501C10.6739 10.4236 10.4552 10.1975 10.399 9.9271C10.303 9.46552 10.0743 9.03786 9.7359 8.69945C9.27862 8.24216 8.65841 7.98527 8.01172 7.98527C7.36503 7.98527 6.74482 8.24216 6.28754 8.69945C5.94912 9.03786 5.72045 9.46552 5.62444 9.9271C5.56821 10.1975 5.34951 10.4236 5.07336 10.4236H3.01855C2.74241 10.4236 2.51619 10.1993 2.54128 9.92427C2.65751 8.65052 3.21566 7.45117 4.12747 6.53937M11.896 6.53937L9.84277 8.59257M11.896 6.53937C11.2399 5.8833 10.435 5.41032 9.56055 5.15332M4.12747 6.53937L6.18066 8.59257M4.12747 6.53937C4.73954 5.92729 5.48119 5.47457 6.28794 5.20792M8.01172 7.98222V6.57256" stroke="#101010" stroke-linecap="round" stroke-linejoin="round"/>
</svg>
