<svg width="16" height="16" viewBox="0 0 16 16" fill="none" xmlns="http://www.w3.org/2000/svg">
<path d="M12.2148 9.4517V12.0916C12.2146 12.4651 12.0662 12.8233 11.8021 13.0874C11.5379 13.3516 11.1798 13.5 10.8062 13.5002H3.90857C3.72292 13.5001 3.53911 13.4633 3.36771 13.392C3.19631 13.3207 3.04069 13.2162 2.9098 13.0845C2.77891 12.9528 2.67533 12.7966 2.60501 12.6248C2.53468 12.453 2.49901 12.2689 2.50002 12.0833V5.19335C2.49892 5.00799 2.53461 4.82425 2.60504 4.65279C2.67546 4.48132 2.77922 4.32554 2.91029 4.19447C3.04136 4.0634 3.19714 3.95964 3.36861 3.88922C3.54007 3.81879 3.72381 3.7831 3.90917 3.7842H6.54849" stroke="#101010" stroke-linecap="round" stroke-linejoin="round"/>
<path d="M12.2147 6.21354L9.78591 3.7841M4.92822 10.2614V8.97416C4.92941 8.76189 5.01384 8.55795 5.16308 8.40753L10.8306 2.74003C10.9058 2.66399 10.9953 2.60362 11.094 2.56242C11.1927 2.52121 11.2986 2.5 11.4055 2.5C11.5125 2.5 11.6184 2.52121 11.7171 2.56242C11.8157 2.60362 11.9053 2.66399 11.9805 2.74003L13.2594 4.01896C13.3355 4.09416 13.3958 4.1837 13.437 4.28239C13.4782 4.38109 13.4994 4.48697 13.4994 4.59392C13.4994 4.70086 13.4782 4.80675 13.437 4.90544C13.3958 5.00413 13.3355 5.09367 13.2594 5.16887L7.59192 10.8364C7.44122 10.986 7.23768 11.0704 7.02529 11.0712H5.73804C5.63165 11.0714 5.52627 11.0505 5.42795 11.0099C5.32963 10.9693 5.24029 10.9096 5.16506 10.8344C5.08983 10.7592 5.03019 10.6698 4.98955 10.5715C4.94891 10.4732 4.92807 10.3678 4.92822 10.2614Z" stroke="#101010" stroke-linecap="round" stroke-linejoin="round"/>
</svg>
