<svg width="16" height="16" viewBox="0 0 16 16" fill="none" xmlns="http://www.w3.org/2000/svg">
<path d="M5.12993 8C4.99094 8 4.87322 8.04728 4.77676 8.14184C4.68043 8.23627 4.63227 8.35354 4.63227 8.49367V10.962C4.63227 11.1022 4.6791 11.2194 4.77278 11.3139C4.86657 11.4084 4.98297 11.4557 5.12195 11.4557C5.26081 11.4557 5.37847 11.4084 5.47493 11.3139C5.57126 11.2194 5.61942 11.1022 5.61942 10.962V8.49367C5.61942 8.35354 5.57259 8.23627 5.47891 8.14184C5.38524 8.04728 5.26891 8 5.12993 8ZM10.8785 4.35443C10.7397 4.35443 10.622 4.40171 10.5256 4.49627C10.4292 4.5907 10.3811 4.70797 10.3811 4.8481V10.962C10.3811 11.1022 10.4279 11.2194 10.5216 11.3139C10.6152 11.4084 10.7316 11.4557 10.8706 11.4557C11.0095 11.4557 11.1273 11.4084 11.2237 11.3139C11.3201 11.2194 11.3682 11.1022 11.3682 10.962V4.8481C11.3682 4.70797 11.3214 4.5907 11.2277 4.49627C11.1339 4.40171 11.0175 4.35443 10.8785 4.35443ZM8.00423 8.91139C7.86524 8.91139 7.74759 8.95867 7.65126 9.05323C7.5548 9.14766 7.50657 9.26494 7.50657 9.40506V10.962C7.50657 11.1022 7.55347 11.2194 7.64727 11.3139C7.74094 11.4084 7.85727 11.4557 7.99626 11.4557C8.13524 11.4557 8.2529 11.4084 8.34923 11.3139C8.44569 11.2194 8.49392 11.1022 8.49392 10.962V9.40506C8.49392 9.26494 8.44702 9.14766 8.35322 9.05323C8.25955 8.95867 8.14322 8.91139 8.00423 8.91139ZM3.22132 14C2.87942 14 2.59043 13.882 2.35436 13.6459C2.11828 13.4098 2.00024 13.1208 2.00024 12.7789V3.22108C2.00024 2.87918 2.11828 2.59019 2.35436 2.35411C2.59043 2.11804 2.87942 2 3.22132 2H12.7792C13.1211 2 13.4101 2.11804 13.6461 2.35411C13.8822 2.59019 14.0002 2.87918 14.0002 3.22108V12.7789C14.0002 13.1208 13.8822 13.4098 13.6461 13.6459C13.4101 13.882 13.1211 14 12.7792 14H3.22132ZM3.22132 13.0127H12.7792C12.8376 13.0127 12.8912 12.9883 12.9398 12.9396C12.9885 12.891 13.0129 12.8374 13.0129 12.7789V3.22108C13.0129 3.16259 12.9885 3.10905 12.9398 3.06044C12.8912 3.01171 12.8376 2.98734 12.7792 2.98734H3.22132C3.16284 2.98734 3.10929 3.01171 3.06069 3.06044C3.01195 3.10905 2.98759 3.16259 2.98759 3.22108V12.7789C2.98759 12.8374 3.01195 12.891 3.06069 12.9396C3.10929 12.9883 3.16284 13.0127 3.22132 13.0127ZM7.99626 7.81013C8.13524 7.81013 8.2529 7.76323 8.34923 7.66943C8.44569 7.57576 8.49392 7.45943 8.49392 7.32044C8.49392 7.18146 8.44702 7.0638 8.35322 6.96747C8.25955 6.87101 8.14322 6.82278 8.00423 6.82278C7.86524 6.82278 7.74759 6.86968 7.65126 6.96348C7.5548 7.05715 7.50657 7.17348 7.50657 7.31247C7.50657 7.45146 7.55347 7.56911 7.64727 7.66544C7.74094 7.7619 7.85727 7.81013 7.99626 7.81013Z" fill="#101010"/>
</svg>
