<svg width="16" height="16" viewBox="0 0 16 16" fill="none" xmlns="http://www.w3.org/2000/svg">
<path d="M6.90005 7.45V10.75M9.10005 7.45V10.75M11.85 4.7V12.4C11.85 12.6917 11.7342 12.9715 11.5279 13.1778C11.3216 13.3841 11.0418 13.5 10.75 13.5H5.25005C4.95831 13.5 4.67852 13.3841 4.47223 13.1778C4.26594 12.9715 4.15005 12.6917 4.15005 12.4V4.7M3.05005 4.7H12.95M5.80005 4.7V3.6C5.80005 3.30826 5.91594 3.02847 6.12223 2.82218C6.32852 2.61589 6.60831 2.5 6.90005 2.5H9.10005C9.39179 2.5 9.67158 2.61589 9.87787 2.82218C10.0842 3.02847 10.2 3.30826 10.2 3.6V4.7" stroke="#101010" stroke-linecap="round" stroke-linejoin="round"/>
</svg>
