<svg width="16" height="16" viewBox="0 0 16 16" fill="none" xmlns="http://www.w3.org/2000/svg">
<path d="M8.32323 2.82238C8.11694 2.61602 7.83712 2.50006 7.54534 2.5H3.59978C3.30797 2.5 3.02811 2.61592 2.82177 2.82226C2.61543 3.0286 2.49951 3.30846 2.49951 3.60027V7.54583C2.49957 7.83761 2.61554 8.11742 2.82189 8.32372L7.61025 13.1121C7.8603 13.3605 8.19848 13.5 8.55098 13.5C8.90348 13.5 9.24167 13.3605 9.49171 13.1121L13.1116 9.4922C13.3601 9.24216 13.4995 8.90397 13.4995 8.55147C13.4995 8.19897 13.3601 7.86079 13.1116 7.61074L8.32323 2.82238Z" stroke="#101010" stroke-linecap="round" stroke-linejoin="round"/>
<path d="M5.52525 5.8008C5.67716 5.8008 5.80031 5.67765 5.80031 5.52574C5.80031 5.37382 5.67716 5.25067 5.52525 5.25067C5.37333 5.25067 5.25018 5.37382 5.25018 5.52574C5.25018 5.67765 5.37333 5.8008 5.52525 5.8008Z" stroke="#101010" stroke-linecap="round" stroke-linejoin="round"/>
</svg>
