<svg width="16" height="16" viewBox="0 0 16 16" fill="none" xmlns="http://www.w3.org/2000/svg">
<path d="M10.7384 6.40405C11.93 6.41063 12.5755 6.46377 12.9962 6.88455C13.4778 7.36615 13.4778 8.14087 13.4778 9.6903V10.2382C13.4778 11.7882 13.4778 12.5629 12.9962 13.0445C12.5152 13.5255 11.7399 13.5255 10.1905 13.5255H5.80736C4.25793 13.5255 3.48266 13.5255 3.00162 13.0445C2.52002 12.5623 2.52002 11.7882 2.52002 10.2382V9.6903C2.52002 8.14087 2.52002 7.36615 3.00162 6.88455C3.4224 6.46377 4.06781 6.41063 5.25947 6.40405" stroke="#101010" stroke-linecap="round"/>
<path d="M7.99987 2.56763V9.6902M7.99987 9.6902L6.3562 7.77259M7.99987 9.6902L9.64354 7.77259" stroke="#101010" stroke-linecap="round" stroke-linejoin="round"/>
</svg>
