<svg width="16" height="16" viewBox="0 0 16 16" fill="none" xmlns="http://www.w3.org/2000/svg">
<path d="M2.47192 4.86961V12.4693C2.47192 13.0318 2.92791 13.4878 3.49039 13.4878H11.2654M12.5077 11.3232H5.59298C5.0305 11.3232 4.57451 10.8672 4.57451 10.3048V3.53019C4.57451 2.9677 5.0305 2.51172 5.59298 2.51172H12.5077C13.0702 2.51172 13.5262 2.9677 13.5262 3.53019V10.3048C13.5262 10.8672 13.0702 11.3232 12.5077 11.3232Z" stroke="#101010" stroke-width="1.01847" stroke-linecap="round"/>
<path d="M7.73755 4.73828H9.96011C10.2414 4.73828 10.4693 4.96627 10.4693 5.24752V6.45665C10.4693 6.59727 10.3554 6.71126 10.2147 6.71126H8.24678C7.96554 6.71126 7.73755 6.93925 7.73755 7.2205V8.79947C7.73755 8.94009 7.85154 9.05409 7.99217 9.05409H10.8236" stroke="#101010" stroke-width="1.01847" stroke-linecap="round"/>
</svg>
