<svg width="16" height="16" viewBox="0 0 16 16" fill="none" xmlns="http://www.w3.org/2000/svg">
<path d="M12.1251 13.5H3.87508C3.75352 13.5 3.63695 13.4517 3.55099 13.3658C3.46504 13.2798 3.41675 13.1632 3.41675 13.0417V2.95833C3.41675 2.83678 3.46504 2.7202 3.55099 2.63424C3.63695 2.54829 3.75352 2.5 3.87508 2.5H9.37508L12.5834 5.70833V13.0417C12.5834 13.1632 12.5351 13.2798 12.4492 13.3658C12.3632 13.4517 12.2466 13.5 12.1251 13.5Z" stroke="#101010" stroke-linecap="round" stroke-linejoin="round"/>
<path d="M9.375 2.5V5.70833H12.5833" stroke="#101010" stroke-linecap="round" stroke-linejoin="round"/>
<path d="M9.83767 10.0016C9.83767 9.91872 9.90483 9.85156 9.98767 9.85156H10.9126C10.9954 9.85156 11.0626 9.91872 11.0626 10.0016V10.9265C11.0626 11.0093 10.9954 11.0765 10.9126 11.0765H9.98767C9.90483 11.0765 9.83767 11.0093 9.83767 10.9265V10.0016Z" fill="#101010"/>
<path d="M7.37654 10.0016C7.37654 9.91872 7.44369 9.85156 7.52654 9.85156H8.45145C8.53429 9.85156 8.60145 9.91872 8.60145 10.0016V10.9265C8.60145 11.0093 8.53429 11.0765 8.45145 11.0765H7.52654C7.44369 11.0765 7.37654 11.0093 7.37654 10.9265V10.0016Z" fill="#101010"/>
<path d="M4.93726 10.0016C4.93726 9.91872 5.00441 9.85156 5.08726 9.85156H6.01217C6.09501 9.85156 6.16217 9.91872 6.16217 10.0016V10.9265C6.16217 11.0093 6.09501 11.0765 6.01217 11.0765H5.08726C5.00441 11.0765 4.93726 11.0093 4.93726 10.9265V10.0016Z" fill="#101010"/>
</svg>
