<svg width="16" height="16" viewBox="0 0 16 16" fill="none" xmlns="http://www.w3.org/2000/svg">
<path d="M4.15 2.5V5.8M2.5 4.15H5.8M8 4.15H9.65M8 13.5H9.65M11.3 4.15H11.575C12.0855 4.15 12.5752 4.35281 12.9362 4.71382C13.2972 5.07483 13.5 5.56446 13.5 6.075V6.35M13.5 11.3V11.575C13.5 12.0855 13.2972 12.5752 12.9362 12.9362C12.5752 13.2972 12.0855 13.5 11.575 13.5H11.3M6.35 13.5H6.075C5.56446 13.5 5.07483 13.2972 4.71382 12.9362C4.35281 12.5752 4.15 12.0855 4.15 11.575V11.3M13.5 8V9.65M4.15 8V9.65" stroke="#101010" stroke-linecap="round" stroke-linejoin="round"/>
</svg>
