<svg width="16" height="16" viewBox="0 0 16 16" fill="none" xmlns="http://www.w3.org/2000/svg">
<path d="M3.94019 4.59381C3.94019 4.4314 4.0047 4.27564 4.11954 4.1608C4.23438 4.04596 4.39014 3.98145 4.55255 3.98145H5.77727C5.93968 3.98145 6.09543 4.04596 6.21027 4.1608C6.32511 4.27564 6.38963 4.4314 6.38963 4.59381V5.81853C6.38963 5.98094 6.32511 6.13669 6.21027 6.25153C6.09543 6.36637 5.93968 6.43089 5.77727 6.43089H4.55255C4.39014 6.43089 4.23438 6.36637 4.11954 6.25153C4.0047 6.13669 3.94019 5.98094 3.94019 5.81853V4.59381ZM7.30817 4.59381C7.30817 4.4314 7.37269 4.27564 7.48753 4.1608C7.60237 4.04596 7.75812 3.98145 7.92053 3.98145H10.37C10.5324 3.98145 10.6881 4.04596 10.803 4.1608C10.9178 4.27564 10.9823 4.4314 10.9823 4.59381V5.81853C10.9823 5.98094 10.9178 6.13669 10.803 6.25153C10.6881 6.36637 10.5324 6.43089 10.37 6.43089H7.92053C7.75812 6.43089 7.60237 6.36637 7.48753 6.25153C7.37269 6.13669 7.30817 5.98094 7.30817 5.81853V4.59381ZM3.94019 7.96179C3.94019 7.79938 4.0047 7.64363 4.11954 7.52879C4.23438 7.41395 4.39014 7.34943 4.55255 7.34943H5.77727C5.93968 7.34943 6.09543 7.41395 6.21027 7.52879C6.32511 7.64363 6.38963 7.79938 6.38963 7.96179V10.4112C6.38963 10.5736 6.32511 10.7294 6.21027 10.8442C6.09543 10.9591 5.93968 11.0236 5.77727 11.0236H4.55255C4.39014 11.0236 4.23438 10.9591 4.11954 10.8442C4.0047 10.7294 3.94019 10.5736 3.94019 10.4112V7.96179Z" fill="#101010"/>
<path d="M12.3806 6.74182V3.78153C12.3806 3.15035 11.8689 2.63867 11.2377 2.63867H3.7139C3.08272 2.63867 2.57104 3.15035 2.57104 3.78153V11.2342C2.57104 11.8654 3.08272 12.3771 3.7139 12.3771H6.66691M12.3806 8.30169V11.2342C12.3806 11.8654 11.8689 12.3771 11.2377 12.3771H8.23186M12.3806 8.30169L11.3402 9.29635M12.3806 8.30169L13.429 9.29635M8.23186 12.3771L9.20165 11.41M8.23186 12.3771L9.20165 13.362" stroke="#101010" stroke-width="1.14286" stroke-linecap="round" stroke-linejoin="round"/>
</svg>
