<svg width="16" height="16" viewBox="0 0 16 16" fill="none" xmlns="http://www.w3.org/2000/svg">
<path d="M9.1 5.8H12.4C12.6917 5.8 12.9715 5.91589 13.1778 6.12218C13.3841 6.32847 13.5 6.60826 13.5 6.9V9.1V10.2V12.4C13.5 12.6917 13.3841 12.9715 13.1778 13.1778C12.9715 13.3841 12.6917 13.5 12.4 13.5H10.2H9.1H6.9C6.60826 13.5 6.32847 13.3841 6.12218 13.1778C5.91589 12.9715 5.8 12.6917 5.8 12.4V9.1M10.2 6.9V3.6C10.2 3.30826 10.0841 3.02847 9.87782 2.82218C9.67153 2.61589 9.39174 2.5 9.1 2.5H6.9H5.8H3.6C3.30826 2.5 3.02847 2.61589 2.82218 2.82218C2.61589 3.02847 2.5 3.30826 2.5 3.6V5.8V6.9V9.1C2.5 9.39174 2.61589 9.67153 2.82218 9.87782C3.02847 10.0841 3.30826 10.2 3.6 10.2H6.9" stroke="#101010" stroke-linecap="round" stroke-linejoin="round"/>
<path d="M5.7998 6.90005C5.7998 6.60831 5.9157 6.32852 6.12199 6.12223C6.32828 5.91594 6.60807 5.80005 6.8998 5.80005" stroke="#101010" stroke-linecap="round" stroke-linejoin="round"/>
<path d="M10.1997 9.1002C10.1997 9.39193 10.0838 9.67172 9.87752 9.87801C9.67123 10.0843 9.39145 10.2002 9.09971 10.2002" stroke="#101010" stroke-linecap="round" stroke-linejoin="round"/>
</svg>
