<svg width="16" height="16" viewBox="0 0 16 16" fill="none" xmlns="http://www.w3.org/2000/svg">
<path d="M13.3809 3.33632C13.4405 3.26471 13.4798 3.17577 13.4941 3.08027C13.5083 2.98477 13.4968 2.88682 13.461 2.79829C13.4252 2.70976 13.3667 2.63446 13.2925 2.58151C13.2182 2.52857 13.1315 2.50025 13.0428 2.5H2.95834C2.86955 2.50001 2.78267 2.52815 2.70827 2.581C2.63386 2.63385 2.57513 2.70914 2.5392 2.79772C2.50327 2.88629 2.4917 2.98435 2.50589 3.07996C2.52008 3.17557 2.55943 3.26464 2.61914 3.33632L6.62542 8.00046V11.6664C6.62537 11.7487 6.64396 11.8298 6.67955 11.9024C6.71513 11.9751 6.76661 12.037 6.8294 12.0827L8.66294 13.4159C8.73191 13.4661 8.81206 13.495 8.89487 13.4994C8.97768 13.5038 9.06005 13.4837 9.13319 13.4411C9.20633 13.3985 9.26751 13.3351 9.31023 13.2576C9.35294 13.18 9.37557 13.0913 9.37573 13.0009V8.00046L13.3809 3.33632Z" stroke="#101010" stroke-linecap="round" stroke-linejoin="round"/>
</svg>
