<svg width="16" height="16" viewBox="0 0 16 16" fill="none" xmlns="http://www.w3.org/2000/svg">
<path d="M6.82724 9.50132V10.8771C6.82724 10.9434 6.8009 11.007 6.75401 11.0539L4.36992 13.438C4.27229 13.5356 4.11399 13.5356 4.01636 13.438L2.9717 12.3932C2.87532 12.2968 2.87392 12.141 2.96855 12.0429L5.34636 9.57776C5.39348 9.52891 5.45843 9.50132 5.5263 9.50132H6.82724ZM6.82724 9.50132L8.03397 8.29035M10.2311 6.08546L8.03397 8.29035M8.03397 8.29035L5.27576 5.62842M8.97208 10.3816L10.0551 9.33471C10.1529 9.24016 10.3084 9.24117 10.4049 9.33699L13.1305 12.0413C13.2294 12.1394 13.229 12.2994 13.1297 12.397L12.0663 13.4423C11.969 13.538 11.8129 13.538 11.7157 13.4422L8.97045 10.7395C8.87033 10.641 8.87107 10.4793 8.97208 10.3816Z" stroke="#101010" stroke-linecap="round" stroke-linejoin="round"/>
<path d="M9.34717 4.65604L9.09717 4.90604C9.00017 5.00305 8.99946 5.16011 9.09558 5.25799L9.78596 5.96096L10.3693 6.54053L10.8244 6.99575C10.9213 7.09265 11.0781 7.09351 11.176 6.99768L11.5462 6.63547C11.6441 6.53965 11.8009 6.54051 11.8978 6.63739L13.0382 7.77782C13.1407 7.8803 13.3103 7.87506 13.3875 7.75237C13.4471 7.65772 13.4976 7.557 13.5392 7.45022C13.614 7.25822 13.6514 7.06139 13.6514 6.85973C13.6514 6.63019 13.607 6.4048 13.5181 6.18358C13.4293 5.96236 13.3025 5.77136 13.1378 5.61057L10.8991 3.38333C10.8218 3.30636 10.6967 3.30652 10.6195 3.38369C10.4948 3.50839 10.2816 3.42007 10.2816 3.24372V2.43311C10.2816 2.3668 10.2553 2.30321 10.2084 2.25633L10.0551 2.10305C9.95747 2.00542 9.79917 2.00542 9.70154 2.10306L8.15682 3.64791C8.05869 3.74605 8.05927 3.90533 8.15812 4.00274L8.31497 4.15733C8.36175 4.20343 8.42478 4.22927 8.49046 4.22927H9.1704C9.39312 4.22927 9.50466 4.49855 9.34717 4.65604Z" fill="#101010"/>
<path d="M4.3544 6.04131H5.03716C5.10345 6.04131 5.16703 6.01498 5.21392 5.96811L5.64718 5.53497C5.69407 5.48808 5.72042 5.42448 5.72042 5.35817V4.67605C5.72042 4.60974 5.69408 4.54615 5.6472 4.49927L3.99482 2.84689C3.89683 2.7489 3.73783 2.74932 3.64035 2.84782L2.5238 3.97611C2.42676 4.07417 2.42749 4.23231 2.52545 4.32946L4.17835 5.96882C4.22517 6.01525 4.28845 6.04131 4.3544 6.04131Z" fill="#101010"/>
</svg>
