<svg width="16" height="16" viewBox="0 0 16 16" fill="none" xmlns="http://www.w3.org/2000/svg">
<path d="M5.13896 13.2803C5.02225 13.2803 4.91032 13.2339 4.82779 13.1514C4.74527 13.0688 4.69891 12.9569 4.69891 12.8402V10.492C4.46415 10.603 4.20513 10.6529 3.94591 10.637C3.68669 10.6211 3.43571 10.54 3.21629 10.401C2.99686 10.2621 2.81613 10.07 2.6909 9.84244C2.56567 9.61492 2.5 9.35944 2.5 9.09973C2.5 8.84003 2.56567 8.58454 2.6909 8.35703C2.81613 8.12952 2.99686 7.93736 3.21629 7.79844C3.43571 7.65951 3.68669 7.57833 3.94591 7.56243C4.20513 7.54653 4.46415 7.59644 4.69891 7.70751V5.35927C4.69891 5.24256 4.74527 5.13063 4.82779 5.0481C4.91032 4.96558 5.02225 4.91921 5.13896 4.91921H7.70723C7.59604 4.68446 7.54603 4.42539 7.56185 4.16612C7.57767 3.90684 7.6588 3.65578 7.79771 3.43628C7.93662 3.21679 8.12879 3.03599 8.35633 2.91071C8.58388 2.78542 8.83942 2.71973 9.09918 2.71973C9.35894 2.71973 9.61447 2.78542 9.84202 2.91071C10.0696 3.03599 10.2617 3.21679 10.4006 3.43628C10.5396 3.65578 10.6207 3.90684 10.6365 4.16612C10.6523 4.42539 10.6023 4.68446 10.4911 4.91921H13.0599C13.1767 4.91921 13.2886 4.96558 13.3711 5.0481C13.4536 5.13063 13.5 5.24256 13.5 5.35927V7.70751C13.2652 7.59644 13.0062 7.54653 12.747 7.56243C12.4878 7.57833 12.2368 7.65951 12.0174 7.79844C11.798 7.93736 11.6172 8.12952 11.492 8.35703C11.3668 8.58454 11.3011 8.84003 11.3011 9.09973C11.3011 9.35944 11.3668 9.61492 11.492 9.84244C11.6172 10.07 11.798 10.2621 12.0174 10.401C12.2368 10.54 12.4878 10.6211 12.747 10.637C13.0062 10.6529 13.2652 10.603 13.5 10.492V12.8402C13.5 12.9569 13.4536 13.0688 13.3711 13.1514C13.2886 13.2339 13.1767 13.2803 13.0599 13.2803H5.13896Z" stroke="#101010" stroke-linecap="round" stroke-linejoin="round"/>
</svg>
