<svg width="16" height="16" viewBox="0 0 16 16" fill="none" xmlns="http://www.w3.org/2000/svg">
<path d="M9.42536 7.83188C9.42536 7.4959 9.42536 7.1431 9.42536 6.88928H12.3429V8.84192C12.3429 8.84192 10.3979 8.84192 9.42536 8.84192C9.42536 8.84192 9.42536 8.35747 9.42536 7.83188ZM9.42536 7.83188L6.5748 7.8656M6.5748 7.8656V8.84192C6.5748 8.84192 5.88164 8.84192 5.11601 8.84192M6.5748 7.8656V6.88928H5.11601M5.11601 6.88928H3.65723C3.65723 7.54018 3.65723 8.84192 3.65723 8.84192C4.04918 8.84192 4.59911 8.84192 5.11601 8.84192M5.11601 6.88928V4.44287M5.11601 4.44287C4.59911 4.44287 4.04918 4.44287 3.65723 4.44287C3.65723 4.44287 3.65723 3.14113 3.65723 2.49023H6.5748V4.44287C6.5748 4.44287 5.88164 4.44287 5.11601 4.44287ZM5.11601 11.5577H6.5748V13.5103C6.5748 13.5103 4.62975 13.5103 3.65723 13.5103C3.65723 13.5103 3.65723 12.2086 3.65723 11.5577H5.11601ZM5.11601 11.5577V8.84192" stroke="#101010" stroke-linejoin="round"/>
</svg>
