<svg width="16" height="16" viewBox="0 0 16 16" fill="none" xmlns="http://www.w3.org/2000/svg">
<path d="M6.91176 13.0882H3.67647C3.36445 13.0882 3.06521 12.9643 2.84458 12.7437C2.62395 12.523 2.5 12.2238 2.5 11.9118V3.67647C2.5 3.36445 2.62395 3.06521 2.84458 2.84458C3.06521 2.62395 3.36445 2.5 3.67647 2.5H11.9118C12.2238 2.5 12.523 2.62395 12.7437 2.84458C12.9643 3.06521 13.0882 3.36445 13.0882 3.67647V6.91176M9.14706 12.2647L9.73529 12.0294M9.55882 2.5V6.91176M9.67647 10.6765L9.14706 10.5M10.5 13.5L10.6765 12.9706M10.6176 9.73529L10.3824 9.14706M11.9706 9.67647L12.1471 9.14706M12.2647 13.5L12.0294 12.9118M12.9118 10.6176L13.5 10.3824M13.5 12.1471L12.9706 11.9706M6.02941 2.5V13.0882M13.0882 11.3235C13.0882 12.2981 12.2981 13.0882 11.3235 13.0882C10.3489 13.0882 9.55882 12.2981 9.55882 11.3235C9.55882 10.3489 10.3489 9.55882 11.3235 9.55882C12.2981 9.55882 13.0882 10.3489 13.0882 11.3235Z" stroke="#101010" stroke-linecap="round" stroke-linejoin="round"/>
</svg>
