<svg width="16" height="16" viewBox="0 0 16 16" fill="none" xmlns="http://www.w3.org/2000/svg">
<path d="M7.30318 4.1918C8.58434 4.03912 9.88027 4.30995 10.9931 4.96293C12.1059 5.6159 12.9744 6.61514 13.4659 7.80805C13.5118 7.93153 13.5118 8.06737 13.4659 8.19085C13.2638 8.6809 12.9967 9.14153 12.6717 9.56035M9.14623 9.1869C8.83504 9.48746 8.41825 9.65377 7.98562 9.65001C7.553 9.64625 7.13916 9.47272 6.83323 9.1668C6.52731 8.86088 6.35378 8.44704 6.35002 8.01441C6.34626 7.58179 6.51257 7.16499 6.81313 6.8538M11.0135 11.0245C10.2839 11.4566 9.46989 11.7268 8.62668 11.8167C7.78348 11.9065 6.93081 11.814 6.12653 11.5452C5.32225 11.2765 4.58519 10.8379 3.96535 10.2593C3.34551 9.68058 2.8574 8.97535 2.53413 8.1914C2.4883 8.06792 2.4883 7.93208 2.53413 7.8086C3.02178 6.62602 3.8798 5.63349 4.97943 4.97995M2.50003 2.5L13.5 13.5" stroke="#101010" stroke-linecap="round" stroke-linejoin="round"/>
</svg>
