<svg width="16" height="16" viewBox="0 0 16 16" fill="none" xmlns="http://www.w3.org/2000/svg">
<path d="M12.0214 13.4701L13.2628 12.2287L12.0214 10.9873M10.1593 10.9873L8.91797 12.2287L10.1593 13.4701" stroke="#101010" stroke-linecap="round" stroke-linejoin="round"/>
<path d="M7.05068 13.233H2.73535C2.73535 12.0518 3.19 10.919 3.99928 10.0838C4.80856 9.24853 5.90618 8.7793 7.05068 8.7793C7.73095 8.7793 8.39466 8.94507 8.9911 9.25495" stroke="#101010" stroke-linecap="round" stroke-linejoin="round"/>
<path d="M7.05154 6.98345C8.28018 6.98345 9.27618 5.98745 9.27618 4.75882C9.27618 3.53018 8.28018 2.53418 7.05154 2.53418C5.82291 2.53418 4.8269 3.53018 4.8269 4.75882C4.8269 5.98745 5.82291 6.98345 7.05154 6.98345Z" stroke="#101010" stroke-linecap="round" stroke-linejoin="round"/>
</svg>
