<svg width="16" height="16" viewBox="0 0 16 16" fill="none" xmlns="http://www.w3.org/2000/svg">
<path d="M11.2044 11.2092C11.1052 11.3176 11.0447 11.462 11.0447 11.6206V12.8403C11.0447 13.1772 11.3177 13.4502 11.6545 13.4502H12.8743C13.2111 13.4502 13.4841 13.1772 13.4841 12.8403V11.6206C13.4841 11.2838 13.2111 11.0107 12.8743 11.0107H11.6545C11.4763 11.0107 11.3159 11.0872 11.2044 11.2092ZM11.2044 11.2092L4.79025 4.74592M4.79025 4.74592C4.88944 4.63746 4.94995 4.49303 4.94995 4.33447V3.11475C4.94995 2.77793 4.67691 2.50488 4.34009 2.50488H3.12036C2.78354 2.50488 2.5105 2.77793 2.5105 3.11475V4.33447C2.5105 4.67129 2.78354 4.94434 3.12036 4.94434H4.34009C4.51834 4.94434 4.67874 4.86786 4.79025 4.74592Z" stroke="#101010" stroke-linecap="round" stroke-linejoin="round"/>
<path d="M4.88477 12.2631C4.88477 12.9188 4.35327 13.4503 3.69763 13.4503C3.042 13.4503 2.5105 12.9188 2.5105 12.2631C2.5105 11.6075 3.042 11.076 3.69763 11.076M4.88477 12.2631C4.88477 11.6075 4.35327 11.076 3.69763 11.076M4.88477 12.2631H9.2223M3.69763 11.076V6.7666" stroke="#101010" stroke-linecap="round" stroke-linejoin="round"/>
<path d="M11.1099 3.69196C11.1099 3.03632 11.6414 2.50482 12.297 2.50482C12.9526 2.50482 13.4841 3.03632 13.4841 3.69196C13.4841 4.34759 12.9526 4.87909 12.297 4.87909M11.1099 3.69196C11.1099 4.34759 11.6414 4.87909 12.297 4.87909M11.1099 3.69196H6.77233M12.297 4.87909V9.18848" stroke="#101010" stroke-linecap="round" stroke-linejoin="round"/>
</svg>
