<svg width="16" height="16" viewBox="0 0 16 16" fill="none" xmlns="http://www.w3.org/2000/svg">
<path d="M6.9 13.5C6.60826 13.5 6.32847 13.3841 6.12218 13.1778C5.91589 12.9715 5.8 12.6917 5.8 12.4M9.1 2.5C9.39174 2.5 9.67153 2.61589 9.87782 2.82218C10.0841 3.02847 10.2 3.30826 10.2 3.6M10.2 13.5H9.1M2.5 6.9V5.8M2.5 3.6C2.5 3.30826 2.61589 3.02847 2.82218 2.82218C3.02847 2.61589 3.30826 2.5 3.6 2.5M12.4 5.8C12.6917 5.8 12.9715 5.91589 13.1778 6.12218C13.3841 6.32847 13.5 6.60826 13.5 6.9M13.5 9.1V10.2M13.5 12.4C13.5 12.6917 13.3841 12.9715 13.1778 13.1778C12.9715 13.3841 12.6917 13.5 12.4 13.5M3.6 10.2C3.30826 10.2 3.02847 10.0841 2.82218 9.87782C2.61589 9.67153 2.5 9.39174 2.5 9.1M5.8 2.5H6.9" stroke="#101010" stroke-linecap="round" stroke-linejoin="round"/>
<path d="M5.7998 6.90005C5.7998 6.60831 5.9157 6.32852 6.12199 6.12223C6.32828 5.91594 6.60807 5.80005 6.8998 5.80005H9.6498C9.79567 5.80005 9.93557 5.858 10.0387 5.96114C10.1419 6.06429 10.1998 6.20418 10.1998 6.35005V9.10005C10.1998 9.39179 10.0839 9.67158 9.87762 9.87787C9.67133 10.0842 9.39154 10.2 9.0998 10.2H6.3498C6.20394 10.2 6.06404 10.1421 5.9609 10.039C5.85775 9.93581 5.7998 9.79592 5.7998 9.65005V6.90005Z" fill="#101010" stroke="#101010" stroke-linecap="round" stroke-linejoin="round"/>
</svg>
