<svg width="16" height="16" viewBox="0 0 16 16" fill="none" xmlns="http://www.w3.org/2000/svg">
<path d="M8.00521 6.00329V7.99962M8.00521 7.99962H6.50796C5.56669 7.99962 5.09655 7.99962 4.80409 8.29208C4.51163 8.58454 4.51163 9.05468 4.51163 9.99595M8.00521 7.99962H9.50246C10.4437 7.99962 10.9139 7.99962 11.2063 8.29208C11.4988 8.58454 11.4988 9.05468 11.4988 9.99595M7.14978 3.00879H8.86064C9.89673 3.00879 10.0015 3.56277 10.0015 4.50604C10.0015 5.4493 9.89623 6.00329 8.86064 6.00329H7.14978C6.11369 6.00329 6.00888 5.4493 6.00888 4.50604C6.00888 3.56277 6.11418 3.00879 7.14978 3.00879ZM11.4988 12.9904H12.3542C13.3898 12.9904 13.4951 12.4365 13.4951 11.4932C13.4951 10.5499 13.3903 9.99595 12.3542 9.99595H10.6434C9.60776 9.99595 9.50246 10.5499 9.50246 11.4932C9.50246 12.4365 9.60726 12.9904 10.6434 12.9904H11.4988ZM4.50121 12.9904H5.35664C6.39224 12.9904 6.49754 12.4365 6.49754 11.4932C6.49754 10.5499 6.39274 9.99595 5.35664 9.99595H3.64579C2.61019 9.99595 2.50488 10.5499 2.50488 11.4932C2.50488 12.4365 2.60969 12.9904 3.64579 12.9904H4.50121Z" stroke="#101010" stroke-linecap="round" stroke-linejoin="round"/>
</svg>
