<svg width="16" height="16" viewBox="0 0 16 16" fill="none" xmlns="http://www.w3.org/2000/svg">
<path d="M8.00024 5.75025V8.00025M8.00024 10.2503H8.00587M12.5002 8.56275C12.5002 11.3753 10.5315 12.7815 8.19149 13.5971C8.06896 13.6387 7.93586 13.6367 7.81462 13.5915C5.46899 12.7815 3.50024 11.3753 3.50024 8.56275V4.62525C3.50024 4.47607 3.55951 4.33299 3.665 4.22751C3.77049 4.12202 3.91356 4.06275 4.06274 4.06275C5.18774 4.06275 6.59399 3.38775 7.57274 2.53275C7.69191 2.43094 7.84351 2.375 8.00024 2.375C8.15698 2.375 8.30858 2.43094 8.42774 2.53275C9.41212 3.39338 10.8127 4.06275 11.9377 4.06275C12.0869 4.06275 12.23 4.12202 12.3355 4.22751C12.441 4.33299 12.5002 4.47607 12.5002 4.62525V8.56275Z" stroke="#101010" stroke-linecap="round" stroke-linejoin="round"/>
</svg>
