<svg width="16" height="16" viewBox="0 0 16 16" fill="none" xmlns="http://www.w3.org/2000/svg">
<path d="M12.2148 9.45198V12.092C12.2146 12.4656 12.0662 12.8238 11.802 13.0879C11.5379 13.352 11.1797 13.5005 10.8062 13.5006H3.90816C3.72249 13.5006 3.53867 13.4638 3.36726 13.3925C3.19585 13.3211 3.04023 13.2166 2.90933 13.085C2.77844 12.9533 2.67485 12.797 2.60452 12.6252C2.5342 12.4534 2.49852 12.2694 2.49954 12.0837V5.19342C2.49843 5.00805 2.53413 4.8243 2.60456 4.65283C2.67498 4.48136 2.77874 4.32557 2.90982 4.19449C3.0409 4.06341 3.19669 3.95965 3.36816 3.88922C3.53964 3.8188 3.72338 3.7831 3.90875 3.7842H6.5482" stroke="#101010" stroke-linecap="round" stroke-linejoin="round"/>
<path d="M12.2149 6.21323L9.7859 3.78368M4.92798 10.2613V8.97398C4.92917 8.76171 5.0136 8.55776 5.16285 8.40733L10.8306 2.73955C10.9058 2.66351 10.9954 2.60313 11.0941 2.56193C11.1928 2.52073 11.2987 2.49951 11.4056 2.49951C11.5126 2.49951 11.6184 2.52073 11.7171 2.56193C11.8158 2.60313 11.9054 2.66351 11.9806 2.73955L13.2596 4.01855C13.3356 4.09375 13.396 4.1833 13.4372 4.28199C13.4784 4.38069 13.4996 4.48658 13.4996 4.59353C13.4996 4.70048 13.4784 4.80637 13.4372 4.90507C13.396 5.00377 13.3356 5.09331 13.2596 5.16851L7.59181 10.8363C7.4411 10.986 7.23755 11.0703 7.02515 11.0712H5.73783C5.63144 11.0713 5.52606 11.0505 5.42773 11.0098C5.3294 10.9692 5.24006 10.9095 5.16483 10.8343C5.0896 10.7591 5.02995 10.6697 4.98931 10.5714C4.94866 10.4731 4.92782 10.3677 4.92798 10.2613Z" stroke="#101010" stroke-linecap="round" stroke-linejoin="round"/>
</svg>
