<svg width="16" height="16" viewBox="0 0 16 16" fill="none" xmlns="http://www.w3.org/2000/svg">
<path d="M4.10478 10.2771C1.96507 8.13736 1.96507 4.62604 4.10478 2.48633M5.69585 4.02253C5.17535 4.56183 4.84958 5.25932 4.77008 6.0046C4.69058 6.74989 4.86191 7.5004 5.25693 8.13736M8.00015 7.47899C8.60617 7.47899 9.09744 6.98771 9.09744 6.3817C9.09744 5.77568 8.60617 5.28441 8.00015 5.28441C7.39414 5.28441 6.90287 5.77568 6.90287 6.3817C6.90287 6.98771 7.39414 7.47899 8.00015 7.47899ZM8.00015 7.47899V13.5111M10.3045 4.0774C11.4017 5.17468 11.5444 6.88097 10.7434 8.17576M11.8955 2.48633C12.4041 2.9939 12.8077 3.5968 13.083 4.26051C13.3583 4.92422 13.5 5.63572 13.5 6.35427C13.5 7.07282 13.3583 7.78431 13.083 8.44802C12.8077 9.11174 12.4041 9.71464 11.8955 10.2222" stroke="#101010" stroke-linecap="round" stroke-linejoin="round"/>
</svg>
