<svg width="16" height="16" viewBox="0 0 16 16" fill="none" xmlns="http://www.w3.org/2000/svg">
<path d="M10.472 5.802C10.6236 5.802 10.7465 5.67912 10.7465 5.52753C10.7465 5.37594 10.6236 5.25305 10.472 5.25305C10.3204 5.25305 10.1975 5.37594 10.1975 5.52753C10.1975 5.67912 10.3204 5.802 10.472 5.802Z" fill="black"/>
<path d="M2.83389 10.9698C2.62798 11.1757 2.51227 11.4549 2.51221 11.746V12.9384C2.51221 13.0839 2.57004 13.2236 2.67299 13.3265C2.77594 13.4295 2.91557 13.4873 3.06116 13.4873H4.70801C4.8536 13.4873 4.99323 13.4295 5.09617 13.3265C5.19912 13.2236 5.25696 13.0839 5.25696 12.9384V12.3894C5.25696 12.2438 5.31479 12.1042 5.41774 12.0012C5.52069 11.8983 5.66032 11.8405 5.80591 11.8405H6.35486C6.50045 11.8405 6.64008 11.7826 6.74303 11.6797C6.84597 11.5767 6.90381 11.4371 6.90381 11.2915V10.7426C6.90381 10.597 6.96164 10.4573 7.06459 10.3544C7.16754 10.2514 7.30717 10.1936 7.45276 10.1936H7.54718C7.83834 10.1935 8.11755 10.0778 8.32339 9.87192L8.77024 9.42507C9.53319 9.69084 10.3638 9.68983 11.126 9.42219C11.8883 9.15456 12.5373 8.63614 12.9666 7.95176C13.396 7.26738 13.5804 6.45754 13.4896 5.65474C13.3989 4.85193 13.0384 4.10369 12.4671 3.53241C11.8958 2.96112 11.1476 2.60062 10.3448 2.50989C9.54197 2.41915 8.73213 2.60354 8.04775 3.0329C7.36337 3.46226 6.84496 4.11116 6.57732 4.87346C6.30968 5.63576 6.30867 6.46632 6.57444 7.22927L2.83389 10.9698Z" stroke="black" stroke-linecap="round" stroke-linejoin="round"/>
<path d="M10.472 5.802C10.6236 5.802 10.7465 5.67912 10.7465 5.52753C10.7465 5.37594 10.6236 5.25305 10.472 5.25305C10.3204 5.25305 10.1975 5.37594 10.1975 5.52753C10.1975 5.67912 10.3204 5.802 10.472 5.802Z" stroke="black" stroke-linecap="round" stroke-linejoin="round"/>
</svg>
