<svg width="16" height="16" viewBox="0 0 16 16" fill="none" xmlns="http://www.w3.org/2000/svg">
<path d="M2.49512 8.00062C2.49486 8.10583 2.52477 8.2089 2.58132 8.29762C2.63787 8.38634 2.71867 8.45698 2.81414 8.50116L7.54451 10.6518C7.68708 10.7164 7.84179 10.7498 7.9983 10.7498C8.15481 10.7498 8.30951 10.7164 8.45208 10.6518L13.1715 8.50666C13.2688 8.4629 13.3513 8.39176 13.409 8.3019C13.4666 8.21205 13.4968 8.10737 13.496 8.00062M2.49512 10.7508C2.49486 10.856 2.52477 10.9591 2.58132 11.0478C2.63787 11.1366 2.71867 11.2072 2.81414 11.2514L7.54451 13.402C7.68708 13.4666 7.84179 13.5 7.9983 13.5C8.15481 13.5 8.30951 13.4666 8.45208 13.402L13.1715 11.2569C13.2688 11.2131 13.3513 11.142 13.409 11.0521C13.4666 10.9623 13.4968 10.8576 13.496 10.7508M8.45208 2.5992C8.30876 2.53383 8.15307 2.5 7.99555 2.5C7.83802 2.5 7.68233 2.53383 7.53901 2.5992L2.82514 4.74437C2.72754 4.78741 2.64455 4.8579 2.5863 4.94726C2.52804 5.03662 2.49702 5.14099 2.49702 5.24766C2.49702 5.35433 2.52804 5.4587 2.5863 5.54806C2.64455 5.63742 2.72754 5.70791 2.82514 5.75095L7.54451 7.90162C7.68783 7.96699 7.84352 8.00082 8.00105 8.00082C8.15857 8.00082 8.31426 7.96699 8.45758 7.90162L13.177 5.75645C13.2746 5.71341 13.3575 5.64292 13.4158 5.55356C13.4741 5.4642 13.5051 5.35983 13.5051 5.25316C13.5051 5.14649 13.4741 5.04212 13.4158 4.95276C13.3575 4.8634 13.2746 4.79291 13.177 4.74987L8.45208 2.5992Z" stroke="#101010" stroke-linecap="round" stroke-linejoin="round"/>
</svg>
