<svg width="16" height="16" viewBox="0 0 16 16" fill="none" xmlns="http://www.w3.org/2000/svg">
<path d="M8.7086 4.65115L9.29033 4.06942C9.51928 3.8404 9.7911 3.65873 10.0903 3.53479C10.3895 3.41084 10.7101 3.34705 11.0339 3.34705C11.3578 3.34705 11.6784 3.41084 11.9776 3.53479C12.2768 3.65873 12.5486 3.8404 12.7776 4.06942C13.0066 4.29837 13.1882 4.57019 13.3122 4.86937C13.4361 5.16854 13.4999 5.4892 13.4999 5.81303C13.4999 6.13686 13.4361 6.45752 13.3122 6.7567C13.1882 7.05587 13.0066 7.32769 12.7776 7.55664L11.4882 8.84598L10.9414 9.3928C10.7122 9.62206 10.44 9.80387 10.1404 9.92783C9.84089 10.0518 9.51984 10.1155 9.19565 10.1152C8.87146 10.115 8.5505 10.0508 8.25113 9.9264C7.95176 9.80198 7.67987 9.61976 7.451 9.39016C7.21409 9.15335 7.02809 8.87062 6.90441 8.55932C6.78073 8.24803 6.72198 7.91474 6.73176 7.57991" stroke="#101010" stroke-linecap="round" stroke-linejoin="round"/>
<path d="M7.29138 11.3487L6.70965 11.9304C6.48043 12.1597 6.20825 12.3415 5.9087 12.4654C5.60915 12.5894 5.28809 12.6531 4.9639 12.6528C4.63971 12.6526 4.31875 12.5884 4.01938 12.464C3.72002 12.3396 3.44812 12.1574 3.21925 11.9278C2.75809 11.465 2.49941 10.8381 2.5 10.1848C2.5006 9.53149 2.76042 8.90511 3.22242 8.44318L5.05858 6.60702C5.28753 6.378 5.55936 6.19633 5.85853 6.07238C6.1577 5.94844 6.47836 5.88464 6.80219 5.88464C7.12603 5.88464 7.44669 5.94844 7.74586 6.07238C8.04503 6.19633 8.31686 6.378 8.54581 6.60702C8.78368 6.84381 8.97051 7.12684 9.09476 7.43865C9.21901 7.75045 9.27804 8.08441 9.26821 8.41991" stroke="#101010" stroke-linecap="round" stroke-linejoin="round"/>
</svg>
