<svg width="16" height="16" viewBox="0 0 16 16" fill="none" xmlns="http://www.w3.org/2000/svg">
<path d="M5.25005 7.45V5.25C5.25005 4.52065 5.53978 3.82118 6.0555 3.30546C6.57123 2.78973 7.2707 2.5 8.00005 2.5C8.72939 2.5 9.42887 2.78973 9.94459 3.30546C10.4603 3.82118 10.75 4.52065 10.75 5.25V7.45M4.15005 7.45H11.85C12.4576 7.45 12.95 7.94249 12.95 8.55V12.4C12.95 13.0075 12.4576 13.5 11.85 13.5H4.15005C3.54254 13.5 3.05005 13.0075 3.05005 12.4V8.55C3.05005 7.94249 3.54254 7.45 4.15005 7.45Z" stroke="#101010" stroke-linecap="round" stroke-linejoin="round"/>
<circle cx="8" cy="10.4458" r="0.833984" fill="#101010"/>
</svg>
