<svg width="16" height="16" viewBox="0 0 16 16" fill="none" xmlns="http://www.w3.org/2000/svg">
<path d="M6.27179 6.06621L9.43546 10.1094M11.1485 12.3269L13.3219 8.56243C13.417 8.3973 13.467 8.21005 13.4669 8.01949C13.4668 7.82892 13.4166 7.64173 13.3213 7.47669L11.1141 3.69274C11.0188 3.52754 10.8816 3.39035 10.7164 3.29498C10.5512 3.1996 10.3638 3.14939 10.173 3.14939L5.79244 3.12988C5.60188 3.12988 5.41465 3.17999 5.24957 3.27519C5.08449 3.37039 4.94734 3.50733 4.85188 3.67227L2.67848 7.43672C2.58337 7.60185 2.53335 7.78909 2.53345 7.97966C2.53354 8.17022 2.58376 8.35742 2.67904 8.52245L4.88623 12.3064C4.9816 12.4716 5.11879 12.6088 5.28399 12.7042C5.44918 12.7995 5.63658 12.8498 5.82734 12.8498L10.2079 12.8693C10.3985 12.8693 10.5857 12.8191 10.7508 12.7239C10.9159 12.6287 11.053 12.4918 11.1485 12.3269Z" stroke="#101010" stroke-width="1.125" stroke-linecap="round" stroke-linejoin="round"/>
</svg>
