<svg width="16" height="16" viewBox="0 0 16 16" fill="none" xmlns="http://www.w3.org/2000/svg">
<path d="M6.00041 8.66675C6.3686 8.66675 6.66707 8.36827 6.66707 8.00008C6.66707 7.63189 6.3686 7.33341 6.00041 7.33341C5.63222 7.33341 5.33374 7.63189 5.33374 8.00008C5.33374 8.36827 5.63222 8.66675 6.00041 8.66675Z" stroke="#101010" stroke-width="1.33" stroke-linecap="round" stroke-linejoin="round"/>
<path d="M6.00041 4.00008C6.3686 4.00008 6.66707 3.7016 6.66707 3.33341C6.66707 2.96522 6.3686 2.66675 6.00041 2.66675C5.63222 2.66675 5.33374 2.96522 5.33374 3.33341C5.33374 3.7016 5.63222 4.00008 6.00041 4.00008Z" stroke="#101010" stroke-width="1.33" stroke-linecap="round" stroke-linejoin="round"/>
<path d="M6.00041 13.3334C6.3686 13.3334 6.66707 13.0349 6.66707 12.6667C6.66707 12.2986 6.3686 12.0001 6.00041 12.0001C5.63222 12.0001 5.33374 12.2986 5.33374 12.6667C5.33374 13.0349 5.63222 13.3334 6.00041 13.3334Z" stroke="#101010" stroke-width="1.33" stroke-linecap="round" stroke-linejoin="round"/>
<path d="M10.0004 8.66675C10.3686 8.66675 10.6671 8.36827 10.6671 8.00008C10.6671 7.63189 10.3686 7.33341 10.0004 7.33341C9.63222 7.33341 9.33374 7.63189 9.33374 8.00008C9.33374 8.36827 9.63222 8.66675 10.0004 8.66675Z" stroke="#101010" stroke-width="1.33" stroke-linecap="round" stroke-linejoin="round"/>
<path d="M10.0004 4.00008C10.3686 4.00008 10.6671 3.7016 10.6671 3.33341C10.6671 2.96522 10.3686 2.66675 10.0004 2.66675C9.63222 2.66675 9.33374 2.96522 9.33374 3.33341C9.33374 3.7016 9.63222 4.00008 10.0004 4.00008Z" stroke="#101010" stroke-width="1.33" stroke-linecap="round" stroke-linejoin="round"/>
<path d="M10.0004 13.3334C10.3686 13.3334 10.6671 13.0349 10.6671 12.6667C10.6671 12.2986 10.3686 12.0001 10.0004 12.0001C9.63222 12.0001 9.33374 12.2986 9.33374 12.6667C9.33374 13.0349 9.63222 13.3334 10.0004 13.3334Z" stroke="#101010" stroke-width="1.33" stroke-linecap="round" stroke-linejoin="round"/>
</svg>
