<svg width="16" height="16" viewBox="0 0 16 16" fill="none" xmlns="http://www.w3.org/2000/svg">
<path d="M6.15534 5.46449C6.91922 5.46449 7.53847 4.84525 7.53847 4.08137C7.53847 3.31749 6.91922 2.69824 6.15534 2.69824C5.39146 2.69824 4.77222 3.31749 4.77222 4.08137C4.77222 4.84525 5.39146 5.46449 6.15534 5.46449Z" stroke="#101010" stroke-linecap="round" stroke-linejoin="round"/>
<path d="M12.1488 8.2311C12.9126 8.2311 13.5319 7.61185 13.5319 6.84797C13.5319 6.08409 12.9126 5.46484 12.1488 5.46484C11.3849 5.46484 10.7656 6.08409 10.7656 6.84797C10.7656 7.61185 11.3849 8.2311 12.1488 8.2311Z" stroke="#101010" stroke-linecap="round" stroke-linejoin="round"/>
<path d="M12.1488 12.8414C12.9126 12.8414 13.5319 12.2222 13.5319 11.4583C13.5319 10.6944 12.9126 10.0752 12.1488 10.0752C11.3849 10.0752 10.7656 10.6944 10.7656 11.4583C10.7656 12.2222 11.3849 12.8414 12.1488 12.8414Z" stroke="#101010" stroke-linecap="round" stroke-linejoin="round"/>
<path d="M3.85017 13.3024C4.61405 13.3024 5.23329 12.6831 5.23329 11.9193C5.23329 11.1554 4.61405 10.5361 3.85017 10.5361C3.08629 10.5361 2.46704 11.1554 2.46704 11.9193C2.46704 12.6831 3.08629 13.3024 3.85017 13.3024Z" stroke="#101010" stroke-linecap="round" stroke-linejoin="round"/>
<path d="M7.33316 6.78858L6.7168 5.34473" stroke="#101010" stroke-linecap="round" stroke-linejoin="round"/>
<path d="M10.8373 7.28516L9.65503 7.71606" stroke="#101010" stroke-linecap="round" stroke-linejoin="round"/>
<path d="M11.0571 10.609L9.30908 9.26367" stroke="#101010" stroke-linecap="round" stroke-linejoin="round"/>
<path d="M6.72236 9.34473L4.88403 10.9996" stroke="#101010" stroke-linecap="round" stroke-linejoin="round"/>
<path d="M7.99927 9.73047C8.82769 9.73047 9.49927 9.0589 9.49927 8.23047C9.49927 7.40204 8.82769 6.73047 7.99927 6.73047C7.17084 6.73047 6.49927 7.40204 6.49927 8.23047C6.49927 9.0589 7.17084 9.73047 7.99927 9.73047Z" stroke="#101010" stroke-linecap="round" stroke-linejoin="round"/>
</svg>
