<svg width="16" height="16" viewBox="0 0 16 16" fill="none" xmlns="http://www.w3.org/2000/svg">
<path d="M2.51172 4.3493C2.51172 5.14709 4.61366 5.79382 7.20654 5.79382C9.79942 5.79382 11.9014 5.14709 11.9014 4.3493C11.9014 3.55152 9.79942 2.90479 7.20654 2.90479C4.61366 2.90479 2.51172 3.55152 2.51172 4.3493ZM2.51172 4.3493V11.0904C2.51172 11.4735 3.00635 11.8409 3.8868 12.1118C4.76725 12.3827 5.9614 12.5349 7.20654 12.5349M2.51172 7.71985C2.51172 8.10296 3.00635 8.47038 3.8868 8.74128C4.76725 9.01218 7.20654 9.4018 8.52104 9.02623" stroke="#101010" stroke-linecap="round" stroke-linejoin="round"/>
<circle cx="12.4841" cy="7.35852" r="1.04565" stroke="#101010"/>
<circle cx="10.1182" cy="12.5349" r="1.04565" stroke="#101010"/>
<path d="M10.1182 11.2274V10.889C10.1182 10.3367 10.5659 9.889 11.1182 9.889H11.4839C12.0362 9.889 12.4839 9.44129 12.4839 8.889V8.73926" stroke="#101010" stroke-linecap="round"/>
</svg>
