<svg width="16" height="16" viewBox="0 0 16 16" fill="none" xmlns="http://www.w3.org/2000/svg">
<path d="M7.99146 8.00383L13.5013 2.49402" stroke="#101010" stroke-linecap="round" stroke-linejoin="round"/>
<path d="M11.8866 4.10779C10.9106 3.13418 9.60484 2.56231 8.22749 2.50532C6.85014 2.44833 5.50156 2.91038 4.44855 3.80005C3.39554 4.68972 2.7148 5.94221 2.541 7.30974C2.3672 8.67728 2.713 10.0602 3.50999 11.185C4.30698 12.3098 5.49711 13.0945 6.84493 13.3839C8.19275 13.6732 9.60009 13.4462 10.7885 12.7476C11.977 12.0491 12.8599 10.9299 13.2627 9.61154C13.6656 8.29318 13.5589 6.87164 12.9638 5.62816" stroke="#101010" stroke-linecap="round" stroke-linejoin="round"/>
<path d="M9.94026 6.05693C9.48453 5.60176 8.88373 5.32066 8.24226 5.26249C7.6008 5.20431 6.95922 5.37273 6.42905 5.73849C5.89887 6.10424 5.51361 6.6442 5.34022 7.26452C5.16683 7.88485 5.21628 8.54631 5.47997 9.13396C5.74366 9.72161 6.20492 10.1983 6.78358 10.4812C7.36225 10.764 8.02173 10.8352 8.64742 10.6823C9.2731 10.5294 9.82544 10.1621 10.2084 9.64421C10.5914 9.12634 10.7808 8.49065 10.7438 7.84762" stroke="#101010" stroke-linecap="round" stroke-linejoin="round"/>
</svg>
