<svg width="16" height="16" viewBox="0 0 16 16" fill="none" xmlns="http://www.w3.org/2000/svg">
<path fill-rule="evenodd" clip-rule="evenodd" d="M8.00379 13.1641C7.86358 13.164 7.72515 13.1269 7.60437 13.0557C7.48535 12.9854 7.38727 12.8844 7.31946 12.7641C7.31931 12.7638 7.31903 12.7637 7.31872 12.7637C7.31842 12.7637 7.31815 12.7635 7.318 12.7633L2.59949 4.51367L2.59851 4.51172L2.54773 4.40234C2.50575 4.2908 2.48944 4.17047 2.50086 4.05078C2.51617 3.891 2.58061 3.73957 2.68445 3.61719C2.7884 3.49484 2.92768 3.40722 3.08289 3.36621C3.23494 3.32613 3.39519 3.33352 3.5434 3.38559C3.5436 3.38567 3.54383 3.38551 3.54383 3.38529C3.54383 3.38505 3.54408 3.38489 3.54429 3.385L3.54773 3.38672C3.54919 3.38724 3.55144 3.38722 3.55311 3.38758C3.5534 3.38764 3.55359 3.3879 3.55359 3.3882C3.55359 3.38848 3.55377 3.38873 3.55404 3.38882L7.59676 4.75386C7.85762 4.84194 8.14019 4.84196 8.40106 4.75389L12.4475 3.38792C12.4478 3.38782 12.4479 3.38743 12.4476 3.3872C12.4474 3.38698 12.4475 3.3866 12.4478 3.38649C12.5981 3.33302 12.7618 3.32673 12.9159 3.36817C13.0701 3.40973 13.2082 3.49723 13.3114 3.61914C13.4146 3.74126 13.4787 3.89259 13.494 4.05176C13.5092 4.21066 13.4752 4.37041 13.3973 4.50977L13.3954 4.5127L8.68836 12.7637C8.62048 12.8843 8.52151 12.9853 8.40222 13.0557C8.28156 13.1266 8.14378 13.164 8.00379 13.1641Z" fill="#101010"/>
</svg>
