<svg width="16" height="16" viewBox="0 0 16 16" fill="none" xmlns="http://www.w3.org/2000/svg">
<path d="M7.04742 12.95C7.14397 13.1173 7.28283 13.2561 7.45005 13.3526C7.61726 13.4492 7.80694 13.5 8.00002 13.5C8.19311 13.5 8.38279 13.4492 8.55 13.3526C8.71722 13.2561 8.85608 13.1173 8.95263 12.95M13.5 5.80001C13.5 4.53501 13.06 3.435 12.4 2.5M3.6 2.5C2.94 3.435 2.5 4.53501 2.5 5.80001M3.1941 9.82933C3.12225 9.90808 3.07484 10.006 3.05762 10.1112C3.04041 10.2164 3.05414 10.3244 3.09714 10.4219C3.14014 10.5194 3.21057 10.6024 3.29984 10.6606C3.38912 10.7189 3.4934 10.75 3.6 10.75H12.4C12.5066 10.7501 12.6109 10.7191 12.7003 10.661C12.7896 10.6028 12.8601 10.52 12.9032 10.4225C12.9464 10.325 12.9602 10.2171 12.9431 10.1119C12.9261 10.0067 12.8788 9.90872 12.807 9.82988C12.0755 9.07583 11.3 8.27448 11.3 5.80001C11.3 4.9248 10.9524 4.08542 10.3335 3.46655C9.71461 2.84768 8.87524 2.5 8.00002 2.5C7.12481 2.5 6.28543 2.84768 5.66656 3.46655C5.04769 4.08542 4.70001 4.9248 4.70001 5.80001C4.70001 8.27448 3.92396 9.07583 3.1941 9.82933Z" stroke="#101010" stroke-linecap="round" stroke-linejoin="round"/>
</svg>
