<svg width="16" height="16" viewBox="0 0 16 16" fill="none" xmlns="http://www.w3.org/2000/svg">
<path d="M7.04739 12.95C7.14394 13.1173 7.2828 13.2561 7.45001 13.3526C7.61723 13.4492 7.80691 13.5 7.99999 13.5C8.19307 13.5 8.38275 13.4492 8.54996 13.3526C8.71718 13.2561 8.85604 13.1173 8.95258 12.95M9.05378 2.67278C8.5574 2.50551 8.02833 2.45881 7.51032 2.53653C6.99231 2.61426 6.50024 2.81418 6.0748 3.11977C5.64937 3.42535 5.30279 3.82782 5.06373 4.2939C4.82466 4.75997 4.69998 5.27626 4.7 5.80007C4.7 8.27451 3.92395 9.07586 3.193 9.82991C3.12127 9.90875 3.07399 10.0067 3.05691 10.1119C3.03983 10.2172 3.0537 10.3251 3.09681 10.4225C3.13993 10.52 3.21044 10.6029 3.29977 10.661C3.38911 10.7192 3.49341 10.7501 3.6 10.7501H12.4C12.5066 10.7501 12.6109 10.7192 12.7002 10.661C12.7895 10.6029 12.86 10.52 12.9032 10.4225C12.9463 10.3251 12.9601 10.2172 12.9431 10.1119C12.926 10.0067 12.8787 9.90875 12.807 9.82991C12.6938 9.71335 12.5864 9.59128 12.4852 9.46416" stroke="#101010" stroke-linecap="round" stroke-linejoin="round"/>
<path d="M11.2999 7.4499C12.2112 7.4499 12.9499 6.71117 12.9499 5.7999C12.9499 4.88863 12.2112 4.1499 11.2999 4.1499C10.3886 4.1499 9.6499 4.88863 9.6499 5.7999C9.6499 6.71117 10.3886 7.4499 11.2999 7.4499Z" stroke="#D98B1D" stroke-linecap="round" stroke-linejoin="round"/>
</svg>
