<svg width="16" height="16" viewBox="0 0 16 16" fill="none" xmlns="http://www.w3.org/2000/svg">
<path d="M7.04706 12.95C7.14361 13.1173 7.28247 13.2561 7.44969 13.3526C7.61691 13.4492 7.80659 13.5 7.99967 13.5C8.19275 13.5 8.38243 13.4492 8.54965 13.3526C8.71686 13.2561 8.85572 13.1173 8.95227 12.95M3.19375 9.82933C3.1219 9.90808 3.07448 10.006 3.05727 10.1112C3.04005 10.2164 3.05378 10.3244 3.09679 10.4219C3.13979 10.5194 3.21021 10.6024 3.29949 10.6606C3.38877 10.7189 3.49305 10.75 3.59965 10.75H12.3997C12.5063 10.7501 12.6106 10.7191 12.6999 10.661C12.7892 10.6028 12.8598 10.52 12.9029 10.4225C12.946 10.325 12.9599 10.2171 12.9428 10.1119C12.9257 10.0067 12.8784 9.90872 12.8067 9.82988C12.0752 9.07583 11.2997 8.27448 11.2997 5.80001C11.2997 4.9248 10.952 4.08542 10.3331 3.46655C9.71426 2.84768 8.87489 2.5 7.99967 2.5C7.12445 2.5 6.28508 2.84768 5.66621 3.46655C5.04733 4.08542 4.69965 4.9248 4.69965 5.80001C4.69965 8.27448 3.9236 9.07583 3.19375 9.82933Z" stroke="#101010" stroke-linecap="round" stroke-linejoin="round"/>
</svg>
