<svg width="16" height="16" viewBox="0 0 16 16" fill="none" xmlns="http://www.w3.org/2000/svg">
<path d="M3.72222 2.5C3.39807 2.5 3.08719 2.62877 2.85798 2.85798C2.62877 3.08719 2.5 3.39807 2.5 3.72222M6.16667 2.5H6.77778M9.22222 2.5H9.83333M12.2778 2.5C12.6019 2.5 12.9128 2.62877 13.142 2.85798C13.3712 3.08719 13.5 3.39807 13.5 3.72222M13.5 6.16667V6.77778M13.5 9.22222V9.83333M13.5 12.2778C13.5 12.6019 13.3712 12.9128 13.142 13.142C12.9128 13.3712 12.6019 13.5 12.2778 13.5M9.22222 13.5H9.83333M6.16667 13.5H6.77778M3.72222 13.5C3.39807 13.5 3.08719 13.3712 2.85798 13.142C2.62877 12.9128 2.5 12.6019 2.5 12.2778M2.5 9.22222V9.83333M2.5 6.16667V6.77778" stroke="black" stroke-linecap="round" stroke-linejoin="round"/>
</svg>
