<svg width="16" height="16" viewBox="0 0 16 16" fill="none" xmlns="http://www.w3.org/2000/svg">
<path d="M4.62642 7.49879V5.30597C4.62642 4.579 4.91045 3.88181 5.41602 3.36777C5.92159 2.85373 6.60729 2.56494 7.32228 2.56494C8.03727 2.56494 8.72297 2.85373 9.22854 3.36777C9.73412 3.88181 10.0181 4.579 10.0181 5.30597V7.49879M11.9541 7.93045C11.7571 7.66808 11.4462 7.49879 11.0965 7.49879H3.54807C2.95252 7.49879 2.46973 7.98967 2.46973 8.5952V12.4326C2.46973 13.0382 2.95252 13.5291 3.54807 13.5291L5.83309 13.5291" stroke="#101010" stroke-linecap="round" stroke-linejoin="round"/>
<path d="M11.026 9.57666V10.1587M11.026 13.0687V13.6507M11.026 11.3227V11.9047M7.82495 10.7407C8.05649 10.7407 8.27854 10.8326 8.44226 10.9964C8.60597 11.1601 8.69795 11.3821 8.69795 11.6137C8.69795 11.8452 8.60597 12.0672 8.44226 12.231C8.27854 12.3947 8.05649 12.4867 7.82495 12.4867V13.0687C7.82495 13.223 7.88627 13.3711 7.99542 13.4802C8.10456 13.5893 8.2526 13.6507 8.40695 13.6507H13.063C13.2173 13.6507 13.3653 13.5893 13.4745 13.4802C13.5836 13.3711 13.645 13.223 13.645 13.0687V12.4867C13.4134 12.4867 13.1914 12.3947 13.0276 12.231C12.8639 12.0672 12.772 11.8452 12.772 11.6137C12.772 11.3821 12.8639 11.1601 13.0276 10.9964C13.1914 10.8326 13.4134 10.7407 13.645 10.7407V10.1587C13.645 10.0043 13.5836 9.85627 13.4745 9.74712C13.3653 9.63798 13.2173 9.57666 13.063 9.57666H8.40695C8.2526 9.57666 8.10456 9.63798 7.99542 9.74712C7.88627 9.85627 7.82495 10.0043 7.82495 10.1587V10.7407Z" stroke="#101010" stroke-width="0.7" stroke-linecap="round" stroke-linejoin="round"/>
</svg>
