<svg width="16" height="16" viewBox="0 0 16 16" fill="none" xmlns="http://www.w3.org/2000/svg">
<path d="M8.56582 5.13281V6.26445M8.56582 11.9227V13.0543M8.56582 8.52773V9.65937M2.3418 7.39609C2.79199 7.39609 3.22375 7.57493 3.54208 7.89327C3.86042 8.2116 4.03926 8.64336 4.03926 9.09355C4.03926 9.54375 3.86042 9.97551 3.54208 10.2938C3.22375 10.6122 2.79199 10.791 2.3418 10.791V11.9227C2.3418 12.2228 2.46102 12.5106 2.67325 12.7228C2.88547 12.9351 3.17331 13.0543 3.47344 13.0543H12.5266C12.8267 13.0543 13.1145 12.9351 13.3268 12.7228C13.539 12.5106 13.6582 12.2228 13.6582 11.9227V10.791C13.208 10.791 12.7763 10.6122 12.4579 10.2938C12.1396 9.97551 11.9607 9.54375 11.9607 9.09355C11.9607 8.64336 12.1396 8.2116 12.4579 7.89327C12.7763 7.57493 13.208 7.39609 13.6582 7.39609V6.26445C13.6582 5.96432 13.539 5.67649 13.3268 5.46426C13.1145 5.25204 12.8267 5.13281 12.5266 5.13281H3.47344C3.17331 5.13281 2.88547 5.25204 2.67325 5.46426C2.46102 5.67649 2.3418 5.96432 2.3418 6.26445V7.39609Z" stroke="#101010" stroke-linecap="round" stroke-linejoin="round"/>
<path d="M3.00342 5.15679L2.89835 4.66796C2.64837 4.72169 2.4792 4.95537 2.50622 5.20963C2.53323 5.46389 2.74773 5.65679 3.00342 5.65679L3.00342 5.15679ZM13.1969 5.26678L13.1289 5.76214L13.6728 5.83674L13.6964 5.28827L13.1969 5.26678ZM12.3949 5.15679L12.4629 4.66143L12.4291 4.65679H12.3949V5.15679ZM13.2226 4.66769L12.7231 4.6462L13.2226 4.66769ZM3.00342 5.15679L3.10849 5.64563L11.7154 3.79566L11.6103 3.30682L11.5053 2.81798L2.89835 4.66796L3.00342 5.15679ZM13.2226 4.66769L12.7231 4.6462L12.6973 5.24529L13.1969 5.26678L13.6964 5.28827L13.7222 4.68919L13.2226 4.66769ZM13.1969 5.26678L13.2648 4.77142L12.4629 4.66143L12.3949 5.15679L12.327 5.65216L13.1289 5.76214L13.1969 5.26678ZM12.3949 5.15679V4.65679H3.00342V5.15679V5.65679H12.3949V5.15679ZM11.6103 3.30682L11.7154 3.79566C12.2487 3.68102 12.7465 4.10121 12.7231 4.6462L13.2226 4.66769L13.7222 4.68919C13.7738 3.49021 12.6786 2.5658 11.5053 2.81798L11.6103 3.30682Z" fill="#101010"/>
</svg>
