<svg width="16" height="16" viewBox="0 0 16 16" fill="none" xmlns="http://www.w3.org/2000/svg">
<path d="M11.5235 7.16564V4.70559C11.5235 4.56002 11.4657 4.4204 11.3628 4.31746C11.2598 4.21453 11.1202 4.1567 10.9746 4.1567C9.87684 4.1567 8.5101 3.50351 7.54953 2.6637C7.43324 2.56435 7.28532 2.50977 7.13237 2.50977C6.97942 2.50977 6.8315 2.56435 6.71521 2.6637C5.76013 3.49802 4.3879 4.1567 3.29011 4.1567C3.14453 4.1567 3.00492 4.21453 2.90198 4.31746C2.79904 4.4204 2.74121 4.56002 2.74121 4.70559V8.54786C2.74121 10.908 4.16199 12.2534 6.0156 13.0865" stroke="#101010" stroke-linecap="round" stroke-linejoin="round"/>
<path d="M10.9231 9.20996V9.7915M10.9231 12.6992V13.2808M10.9231 10.9546V11.5361M7.72461 10.373C7.95596 10.373 8.17784 10.465 8.34143 10.6285C8.50502 10.7921 8.59693 11.014 8.59693 11.2454C8.59693 11.4767 8.50502 11.6986 8.34143 11.8622C8.17784 12.0258 7.95596 12.1177 7.72461 12.1177V12.6992C7.72461 12.8535 7.78588 13.0014 7.89494 13.1104C8.004 13.2195 8.15192 13.2808 8.30615 13.2808H12.9585C13.1127 13.2808 13.2607 13.2195 13.3697 13.1104C13.4788 13.0014 13.54 12.8535 13.54 12.6992V12.1177C13.3087 12.1177 13.0868 12.0258 12.9232 11.8622C12.7596 11.6986 12.6677 11.4767 12.6677 11.2454C12.6677 11.014 12.7596 10.7921 12.9232 10.6285C13.0868 10.465 13.3087 10.373 13.54 10.373V9.7915C13.54 9.63727 13.4788 9.48935 13.3697 9.38029C13.2607 9.27123 13.1127 9.20996 12.9585 9.20996H8.30615C8.15192 9.20996 8.004 9.27123 7.89494 9.38029C7.78588 9.48935 7.72461 9.63727 7.72461 9.7915V10.373Z" stroke="#101010" stroke-width="0.7" stroke-linecap="round" stroke-linejoin="round"/>
<path d="M7.07752 6.12305C7.34083 6.12305 7.5971 6.20987 7.80603 6.37012C8.01493 6.53041 8.16557 6.75544 8.23377 7.00977C8.30191 7.26409 8.28368 7.53407 8.18299 7.77734C8.08371 8.01702 7.9091 8.21778 7.68592 8.34961C7.22322 8.40493 6.86367 8.79787 6.8617 9.27539L6.85974 9.71289H5.98377C5.93566 9.71289 5.90294 9.66317 5.92224 9.61914L6.47889 8.35645C6.25086 8.22474 6.07282 8.02063 5.97205 7.77734C5.87138 7.53409 5.85411 7.26406 5.92224 7.00977C5.99047 6.75552 6.14016 6.53037 6.349 6.37012C6.55793 6.20983 6.81419 6.12307 7.07752 6.12305Z" fill="#101010"/>
</svg>
