<svg width="16" height="16" viewBox="0 0 16 16" fill="none" xmlns="http://www.w3.org/2000/svg">
<path d="M5.67213 5.25137C6.43247 5.25137 7.04884 4.63502 7.04884 3.87471C7.04884 3.1144 6.43247 2.49805 5.67213 2.49805C4.91179 2.49805 4.29541 3.1144 4.29541 3.87471C4.29541 4.63502 4.91179 5.25137 5.67213 5.25137Z" stroke="#101010" stroke-linecap="round" stroke-linejoin="round"/>
<path d="M7.54176 13.5111C8.3021 13.5111 8.91847 12.8948 8.91847 12.1345C8.91847 11.3742 8.3021 10.7578 7.54176 10.7578C6.78142 10.7578 6.16504 11.3742 6.16504 12.1345C6.16504 12.8948 6.78142 13.5111 7.54176 13.5111Z" stroke="#101010" stroke-linecap="round" stroke-linejoin="round"/>
<path d="M10.2949 9.38126C11.0553 9.38126 11.6716 8.7649 11.6716 8.00459C11.6716 7.24428 11.0553 6.62793 10.2949 6.62793C9.53459 6.62793 8.91821 7.24428 8.91821 8.00459C8.91821 8.7649 9.53459 9.38126 10.2949 9.38126Z" stroke="#101010" stroke-linecap="round" stroke-linejoin="round"/>
<path d="M7.36157 3.875L13.4807 3.875" stroke="#101010" stroke-linecap="round" stroke-linejoin="round"/>
<path d="M9.22559 12.1348L13.4805 12.1348" stroke="#101010" stroke-linecap="round" stroke-linejoin="round"/>
<path d="M2.5166 3.875L3.94894 3.875" stroke="#101010" stroke-linecap="round" stroke-linejoin="round"/>
<path d="M2.5166 12.1348L5.93601 12.1348" stroke="#101010" stroke-linecap="round" stroke-linejoin="round"/>
<path d="M11.6709 8.00488H13.4805" stroke="#101010" stroke-linecap="round" stroke-linejoin="round"/>
<path d="M2.5166 8.00488L8.9189 8.00488" stroke="#101010" stroke-linecap="round" stroke-linejoin="round"/>
</svg>
