<svg width="16" height="16" viewBox="0 0 16 16" fill="none" xmlns="http://www.w3.org/2000/svg">
<path d="M7.10015 6.20039C7.10015 6.27996 7.06854 6.35626 7.01228 6.41252C6.95602 6.46878 6.87971 6.50039 6.80015 6.50039C6.72058 6.50039 6.64428 6.46878 6.58801 6.41252C6.53175 6.35626 6.50015 6.27996 6.50015 6.20039C6.50015 6.12083 6.53175 6.04452 6.58801 5.98826C6.64428 5.932 6.72058 5.90039 6.80015 5.90039C6.87971 5.90039 6.95602 5.932 7.01228 5.98826C7.06854 6.04452 7.10015 6.12083 7.10015 6.20039ZM7.70015 7.10039C7.70015 7.17996 7.66854 7.25626 7.61228 7.31252C7.55602 7.36878 7.47971 7.40039 7.40015 7.40039C7.32058 7.40039 7.24428 7.36878 7.18801 7.31252C7.13175 7.25626 7.10015 7.17996 7.10015 7.10039C7.10015 7.02083 7.13175 6.94452 7.18801 6.88826C7.24428 6.832 7.32058 6.80039 7.40015 6.80039C7.47971 6.80039 7.55602 6.832 7.61228 6.88826C7.66854 6.94452 7.70015 7.02083 7.70015 7.10039ZM6.50015 7.10039C6.50015 7.17996 6.46854 7.25626 6.41228 7.31252C6.35602 7.36878 6.27971 7.40039 6.20015 7.40039C6.12058 7.40039 6.04428 7.36878 5.98801 7.31252C5.93175 7.25626 5.90015 7.17996 5.90015 7.10039C5.90015 7.02083 5.93175 6.94452 5.98801 6.88826C6.04428 6.832 6.12058 6.80039 6.20015 6.80039C6.27971 6.80039 6.35602 6.832 6.41228 6.88826C6.46854 6.94452 6.50015 7.02083 6.50015 7.10039ZM7.10015 8.00039C7.10015 8.07996 7.06854 8.15626 7.01228 8.21252C6.95602 8.26878 6.87971 8.30039 6.80015 8.30039C6.72058 8.30039 6.64428 8.26878 6.58801 8.21252C6.53175 8.15626 6.50015 8.07996 6.50015 8.00039C6.50015 7.92083 6.53175 7.84452 6.58801 7.78826C6.64428 7.732 6.72058 7.70039 6.80015 7.70039C6.87971 7.70039 6.95602 7.732 7.01228 7.78826C7.06854 7.84452 7.10015 7.92083 7.10015 8.00039ZM7.70015 8.90039C7.70015 8.97996 7.66854 9.05626 7.61228 9.11252C7.55602 9.16878 7.47971 9.20039 7.40015 9.20039C7.32058 9.20039 7.24428 9.16878 7.18801 9.11252C7.13175 9.05626 7.10015 8.97996 7.10015 8.90039C7.10015 8.82083 7.13175 8.74452 7.18801 8.68826C7.24428 8.632 7.32058 8.60039 7.40015 8.60039C7.47971 8.60039 7.55602 8.632 7.61228 8.68826C7.66854 8.74452 7.70015 8.82083 7.70015 8.90039ZM6.50015 8.90039C6.50015 8.97996 6.46854 9.05626 6.41228 9.11252C6.35602 9.16878 6.27971 9.20039 6.20015 9.20039C6.12058 9.20039 6.04428 9.16878 5.98801 9.11252C5.93175 9.05626 5.90015 8.97996 5.90015 8.90039C5.90015 8.82083 5.93175 8.74452 5.98801 8.68826C6.04428 8.632 6.12058 8.60039 6.20015 8.60039C6.27971 8.60039 6.35602 8.632 6.41228 8.68826C6.46854 8.74452 6.50015 8.82083 6.50015 8.90039ZM7.10015 9.80039C7.10015 9.87996 7.06854 9.95626 7.01228 10.0125C6.95602 10.0688 6.87971 10.1004 6.80015 10.1004C6.72058 10.1004 6.64428 10.0688 6.58801 10.0125C6.53175 9.95626 6.50015 9.87996 6.50015 9.80039C6.50015 9.72083 6.53175 9.64452 6.58801 9.58826C6.64428 9.532 6.72058 9.50039 6.80015 9.50039C6.87971 9.50039 6.95602 9.532 7.01228 9.58826C7.06854 9.64452 7.10015 9.72083 7.10015 9.80039ZM8.30015 6.20039C8.30015 6.27996 8.26854 6.35626 8.21228 6.41252C8.15602 6.46878 8.07971 6.50039 8.00015 6.50039C7.92058 6.50039 7.84428 6.46878 7.78801 6.41252C7.73175 6.35626 7.70015 6.27996 7.70015 6.20039C7.70015 6.12083 7.73175 6.04452 7.78801 5.98826C7.84428 5.932 7.92058 5.90039 8.00015 5.90039C8.07971 5.90039 8.15602 5.932 8.21228 5.98826C8.26854 6.04452 8.30015 6.12083 8.30015 6.20039ZM8.90015 7.10039C8.90015 7.17996 8.86854 7.25626 8.81228 7.31252C8.75602 7.36878 8.67971 7.40039 8.60015 7.40039C8.52058 7.40039 8.44428 7.36878 8.38801 7.31252C8.33175 7.25626 8.30015 7.17996 8.30015 7.10039C8.30015 7.02083 8.33175 6.94452 8.38801 6.88826C8.44428 6.832 8.52058 6.80039 8.60015 6.80039C8.67971 6.80039 8.75602 6.832 8.81228 6.88826C8.86854 6.94452 8.90015 7.02083 8.90015 7.10039ZM8.30015 8.00039C8.30015 8.07996 8.26854 8.15626 8.21228 8.21252C8.15602 8.26878 8.07971 8.30039 8.00015 8.30039C7.92058 8.30039 7.84428 8.26878 7.78801 8.21252C7.73175 8.15626 7.70015 8.07996 7.70015 8.00039C7.70015 7.92083 7.73175 7.84452 7.78801 7.78826C7.84428 7.732 7.92058 7.70039 8.00015 7.70039C8.07971 7.70039 8.15602 7.732 8.21228 7.78826C8.26854 7.84452 8.30015 7.92083 8.30015 8.00039ZM8.90015 8.90039C8.90015 8.97996 8.86854 9.05626 8.81228 9.11252C8.75602 9.16878 8.67971 9.20039 8.60015 9.20039C8.52058 9.20039 8.44428 9.16878 8.38801 9.11252C8.33175 9.05626 8.30015 8.97996 8.30015 8.90039C8.30015 8.82083 8.33175 8.74452 8.38801 8.68826C8.44428 8.632 8.52058 8.60039 8.60015 8.60039C8.67971 8.60039 8.75602 8.632 8.81228 8.68826C8.86854 8.74452 8.90015 8.82083 8.90015 8.90039ZM8.30015 9.80039C8.30015 9.87996 8.26854 9.95626 8.21228 10.0125C8.15602 10.0688 8.07971 10.1004 8.00015 10.1004C7.92058 10.1004 7.84428 10.0688 7.78801 10.0125C7.73175 9.95626 7.70015 9.87996 7.70015 9.80039C7.70015 9.72083 7.73175 9.64452 7.78801 9.58826C7.84428 9.532 7.92058 9.50039 8.00015 9.50039C8.07971 9.50039 8.15602 9.532 8.21228 9.58826C8.26854 9.64452 8.30015 9.72083 8.30015 9.80039ZM9.50015 6.20039C9.50015 6.27996 9.46854 6.35626 9.41228 6.41252C9.35602 6.46878 9.27971 6.50039 9.20015 6.50039C9.12058 6.50039 9.04428 6.46878 8.98801 6.41252C8.93175 6.35626 8.90015 6.27996 8.90015 6.20039C8.90015 6.12083 8.93175 6.04452 8.98801 5.98826C9.04428 5.932 9.12058 5.90039 9.20015 5.90039C9.27971 5.90039 9.35602 5.932 9.41228 5.98826C9.46854 6.04452 9.50015 6.12083 9.50015 6.20039ZM10.1001 7.10039C10.1001 7.17996 10.0685 7.25626 10.0123 7.31252C9.95602 7.36878 9.87971 7.40039 9.80015 7.40039C9.72058 7.40039 9.64428 7.36878 9.58801 7.31252C9.53175 7.25626 9.50015 7.17996 9.50015 7.10039C9.50015 7.02083 9.53175 6.94452 9.58801 6.88826C9.64428 6.832 9.72058 6.80039 9.80015 6.80039C9.87971 6.80039 9.95602 6.832 10.0123 6.88826C10.0685 6.94452 10.1001 7.02083 10.1001 7.10039ZM9.50015 8.00039C9.50015 8.07996 9.46854 8.15626 9.41228 8.21252C9.35602 8.26878 9.27971 8.30039 9.20015 8.30039C9.12058 8.30039 9.04428 8.26878 8.98801 8.21252C8.93175 8.15626 8.90015 8.07996 8.90015 8.00039C8.90015 7.92083 8.93175 7.84452 8.98801 7.78826C9.04428 7.732 9.12058 7.70039 9.20015 7.70039C9.27971 7.70039 9.35602 7.732 9.41228 7.78826C9.46854 7.84452 9.50015 7.92083 9.50015 8.00039ZM10.1001 8.90039C10.1001 8.97996 10.0685 9.05626 10.0123 9.11252C9.95602 9.16878 9.87971 9.20039 9.80015 9.20039C9.72058 9.20039 9.64428 9.16878 9.58801 9.11252C9.53175 9.05626 9.50015 8.97996 9.50015 8.90039C9.50015 8.82083 9.53175 8.74452 9.58801 8.68826C9.64428 8.632 9.72058 8.60039 9.80015 8.60039C9.87971 8.60039 9.95602 8.632 10.0123 8.68826C10.0685 8.74452 10.1001 8.82083 10.1001 8.90039ZM9.50015 9.80039C9.50015 9.87996 9.46854 9.95626 9.41228 10.0125C9.35602 10.0688 9.27971 10.1004 9.20015 10.1004C9.12058 10.1004 9.04428 10.0688 8.98801 10.0125C8.93175 9.95626 8.90015 9.87996 8.90015 9.80039C8.90015 9.72083 8.93175 9.64452 8.98801 9.58826C9.04428 9.532 9.12058 9.50039 9.20015 9.50039C9.27971 9.50039 9.35602 9.532 9.41228 9.58826C9.46854 9.64452 9.50015 9.72083 9.50015 9.80039Z" fill="#101010"/>
<rect x="5.13721" y="5.13672" width="5.72577" height="5.72577" rx="1" stroke="#101010" stroke-linejoin="round"/>
<rect x="2.5" y="2.5" width="11" height="11" rx="2" stroke="#101010" stroke-linejoin="round"/>
</svg>
