<svg width="16" height="16" viewBox="0 0 16 16" fill="none" xmlns="http://www.w3.org/2000/svg">
<path d="M5.33301 2.5H4.66634C3.92996 2.5 3.33301 3.09695 3.33301 3.83333V12.1667C3.33301 12.903 3.92996 13.5 4.66634 13.5H5.33301C6.06939 13.5 6.66634 12.903 6.66634 12.1667V3.83333C6.66634 3.09695 6.06939 2.5 5.33301 2.5Z" stroke="#101010" stroke-linejoin="round"/>
<path d="M11.333 2.5H10.6663C9.92996 2.5 9.33301 3.09695 9.33301 3.83333V12.1667C9.33301 12.903 9.92996 13.5 10.6663 13.5H11.333C12.0694 13.5 12.6663 12.903 12.6663 12.1667V3.83333C12.6663 3.09695 12.0694 2.5 11.333 2.5Z" stroke="#101010" stroke-linejoin="round"/>
</svg>
