<svg width="16" height="16" viewBox="0 0 16 16" fill="none" xmlns="http://www.w3.org/2000/svg">
<path d="M6.05778 8.25289C7.15665 8.25289 8.04745 7.36209 8.04745 6.26323C8.04745 5.16436 7.15665 4.27356 6.05778 4.27356C4.95892 4.27356 4.06812 5.16436 4.06812 6.26323C4.06812 7.36209 4.95892 8.25289 6.05778 8.25289Z" stroke="#101010" stroke-linecap="round" stroke-linejoin="round"/>
<path d="M2.50024 11.7263C2.88569 11.1337 3.41305 10.6467 4.03445 10.3096C4.65586 9.97247 5.35162 9.7959 6.05858 9.7959C6.76554 9.7959 7.4613 9.97247 8.0827 10.3096C8.7041 10.6467 9.23147 11.1337 9.61691 11.7263" stroke="#101010" stroke-linecap="round" stroke-linejoin="round"/>
<path d="M9.94189 9.7959C10.6488 9.79548 11.3446 9.97177 11.9661 10.3087C12.5875 10.6457 13.1149 11.1327 13.5002 11.7253" stroke="#101010" stroke-linecap="round" stroke-linejoin="round"/>
<path d="M9.3645 4.41513C9.63667 4.30658 9.92946 4.25948 10.2219 4.2772C10.5144 4.29492 10.7994 4.37703 11.0565 4.51765C11.3135 4.65827 11.5364 4.85394 11.709 5.09067C11.8817 5.3274 12 5.59934 12.0554 5.88708C12.1108 6.17481 12.1019 6.47123 12.0295 6.75516C11.9571 7.03908 11.8228 7.30349 11.6363 7.52951C11.4498 7.75553 11.2157 7.93756 10.9507 8.06261C10.6857 8.18766 10.3964 8.25264 10.1034 8.2529" stroke="#101010" stroke-linecap="round" stroke-linejoin="round"/>
</svg>
