<svg width="16" height="16" viewBox="0 0 16 16" fill="none" xmlns="http://www.w3.org/2000/svg">
<path d="M8.00039 10.75V13.5M6.35039 7.318C6.35028 7.52265 6.29309 7.7232 6.18524 7.89713C6.07739 8.07105 5.92316 8.21143 5.73989 8.3025L4.76089 8.7975C4.57762 8.88857 4.42339 9.02895 4.31554 9.20287C4.20769 9.3768 4.1505 9.57735 4.15039 9.782V10.2C4.15039 10.3459 4.20834 10.4858 4.31148 10.5889C4.41463 10.6921 4.55452 10.75 4.70039 10.75H11.3004C11.4463 10.75 11.5862 10.6921 11.6893 10.5889C11.7924 10.4858 11.8504 10.3459 11.8504 10.2V9.782C11.8503 9.57735 11.7931 9.3768 11.6852 9.20287C11.5774 9.02895 11.4232 8.88857 11.2399 8.7975L10.2609 8.3025C10.0776 8.21143 9.92339 8.07105 9.81554 7.89713C9.70769 7.7232 9.6505 7.52265 9.65039 7.318V5.25C9.65039 5.10413 9.70834 4.96424 9.81148 4.86109C9.91463 4.75795 10.0545 4.7 10.2004 4.7C10.4921 4.7 10.7719 4.58411 10.9782 4.37782C11.1845 4.17153 11.3004 3.89174 11.3004 3.6C11.3004 3.30826 11.1845 3.02847 10.9782 2.82218C10.7719 2.61589 10.4921 2.5 10.2004 2.5H5.80039C5.50865 2.5 5.22886 2.61589 5.02257 2.82218C4.81628 3.02847 4.70039 3.30826 4.70039 3.6C4.70039 3.89174 4.81628 4.17153 5.02257 4.37782C5.22886 4.58411 5.50865 4.7 5.80039 4.7C5.94626 4.7 6.08615 4.75795 6.1893 4.86109C6.29244 4.96424 6.35039 5.10413 6.35039 5.25V7.318Z" stroke="#101010" stroke-linecap="round" stroke-linejoin="round"/>
</svg>
