<svg width="16" height="16" viewBox="0 0 16 16" fill="none" xmlns="http://www.w3.org/2000/svg">
<path d="M2.47607 3.21705V12.7831M5.02071 4.28018C5.02066 4.09317 5.06995 3.90946 5.1636 3.74759C5.25726 3.58573 5.39196 3.45144 5.55412 3.35828C5.71627 3.26513 5.90014 3.21641 6.08714 3.21705C6.27415 3.21768 6.45768 3.26765 6.6192 3.3619L12.9945 7.08072C13.1554 7.17408 13.289 7.30803 13.3819 7.46918C13.4748 7.63034 13.5238 7.81305 13.524 7.99907C13.5241 8.18509 13.4755 8.36789 13.3828 8.5292C13.2902 8.69052 13.1569 8.8247 12.9961 8.91834L6.6192 12.6382C6.45768 12.7325 6.27415 12.7824 6.08714 12.7831C5.90014 12.7837 5.71627 12.735 5.55412 12.6418C5.39196 12.5487 5.25726 12.4144 5.1636 12.2525C5.06995 12.0907 5.02066 11.907 5.02071 11.7199V4.28018Z" stroke="#101010" stroke-linecap="round" stroke-linejoin="round"/>
</svg>
