<svg width="16" height="16" viewBox="0 0 16 16" fill="none" xmlns="http://www.w3.org/2000/svg">
<path d="M4.69868 11.3006H3.59836C3.30654 11.3006 3.02667 11.1847 2.82032 10.9783C2.61397 10.772 2.49805 10.4921 2.49805 10.2003V7.44947C2.49805 7.15765 2.61397 6.87778 2.82032 6.67143C3.02667 6.46508 3.30654 6.34916 3.59836 6.34916H12.4009C12.6927 6.34916 12.9726 6.46508 13.1789 6.67143C13.3853 6.87778 13.5012 7.15765 13.5012 7.44947V10.2003C13.5012 10.4921 13.3853 10.772 13.1789 10.9783C12.9726 11.1847 12.6927 11.3006 12.4009 11.3006H11.3006M4.69868 6.34916V3.04821C4.69868 2.90229 4.75664 2.76236 4.85982 2.65918C4.96299 2.55601 5.10293 2.49805 5.24884 2.49805H10.7504C10.8963 2.49805 11.0363 2.55601 11.1394 2.65918C11.2426 2.76236 11.3006 2.90229 11.3006 3.04821V6.34916M5.24884 9.09995H10.7504C11.0543 9.09995 11.3006 9.34627 11.3006 9.65011V12.9511C11.3006 13.2549 11.0543 13.5012 10.7504 13.5012H5.24884C4.945 13.5012 4.69868 13.2549 4.69868 12.9511V9.65011C4.69868 9.34627 4.945 9.09995 5.24884 9.09995Z" stroke="#101010" stroke-linecap="round" stroke-linejoin="round"/>
</svg>
