<svg width="16" height="16" viewBox="0 0 16 16" fill="none" xmlns="http://www.w3.org/2000/svg">
<path d="M2.88522 7.06534C2.76202 7.18842 2.66428 7.33458 2.59759 7.49546C2.53091 7.65634 2.49658 7.82878 2.49658 8.00293C2.49658 8.17708 2.53091 8.34952 2.59759 8.5104C2.66428 8.67128 2.76202 8.81744 2.88522 8.94052L7.059 13.1143C7.18208 13.2375 7.32823 13.3352 7.48911 13.4019C7.64999 13.4686 7.82243 13.5029 7.99658 13.5029C8.17073 13.5029 8.34318 13.4686 8.50405 13.4019C8.66493 13.3352 8.81109 13.2375 8.93417 13.1143L13.1079 8.94052C13.2311 8.81744 13.3289 8.67128 13.3956 8.5104C13.4623 8.34952 13.4966 8.17708 13.4966 8.00293C13.4966 7.82878 13.4623 7.65634 13.3956 7.49546C13.3289 7.33458 13.2311 7.18842 13.1079 7.06534L8.93417 2.89157C8.81109 2.76837 8.66493 2.67063 8.50405 2.60394C8.34318 2.53725 8.17073 2.50293 7.99658 2.50293C7.82243 2.50293 7.64999 2.53725 7.48911 2.60394C7.32823 2.67063 7.18208 2.76837 7.059 2.89157L2.88522 7.06534Z" stroke="#101010" stroke-linecap="round" stroke-linejoin="round"/>
</svg>
