<svg width="16" height="16" viewBox="0 0 16 16" fill="none" xmlns="http://www.w3.org/2000/svg">
<path d="M2.59808 7.49546C2.66477 7.33458 2.76251 7.18842 2.88571 7.06534L7.05948 2.89157C7.18256 2.76837 7.32872 2.67063 7.4896 2.60394C7.65048 2.53725 7.82292 2.50293 7.99707 2.50293C8.17122 2.50293 8.34366 2.53725 8.50454 2.60394C8.66542 2.67063 8.81158 2.76837 8.93466 2.89157L13.1084 7.06534C13.2316 7.18842 13.3294 7.33458 13.3961 7.49546C13.4627 7.65634 13.4971 7.82878 13.4971 8.00293C13.4971 8.17708 13.4627 8.34952 13.3961 8.5104C13.3294 8.67128 13.2316 8.81744 13.1084 8.94052L11.9041 10.1448L8.93466 13.1143C8.81158 13.2375 8.66542 13.3352 8.50454 13.4019C8.34366 13.4686 8.17122 13.5029 7.99707 13.5029C7.82292 13.5029 7.65048 13.4686 7.4896 13.4019C7.32872 13.3352 7.18256 13.2375 7.05948 13.1143L2.88571 8.94052C2.76251 8.81744 2.66477 8.67128 2.59808 8.5104C2.53139 8.34952 2.49707 8.17708 2.49707 8.00293C2.49707 7.82878 2.53139 7.65634 2.59808 7.49546Z" stroke="#101010" stroke-linecap="round" stroke-linejoin="round"/>
<path d="M7.99023 5.5V10.4973" stroke="#101010" stroke-linecap="round"/>
<path d="M10.5 7.98779L5.50273 7.98779" stroke="#101010" stroke-linecap="round"/>
</svg>
