<svg width="16" height="16" viewBox="0 0 16 16" fill="none" xmlns="http://www.w3.org/2000/svg">
<path d="M2.88571 7.06534C2.76251 7.18842 2.66477 7.33458 2.59808 7.49546C2.53139 7.65634 2.49707 7.82878 2.49707 8.00293C2.49707 8.17708 2.53139 8.34952 2.59808 8.5104C2.66477 8.67128 2.76251 8.81744 2.88571 8.94052L7.05948 13.1143C7.18256 13.2375 7.32872 13.3352 7.4896 13.4019C7.65048 13.4686 7.82292 13.5029 7.99707 13.5029C8.17122 13.5029 8.34366 13.4686 8.50454 13.4019C8.66542 13.3352 8.81158 13.2375 8.93466 13.1143L13.1084 8.94052C13.2316 8.81744 13.3294 8.67128 13.3961 8.5104C13.4627 8.34952 13.4971 8.17708 13.4971 8.00293C13.4971 7.82878 13.4627 7.65634 13.3961 7.49546C13.3294 7.33458 13.2316 7.18842 13.1084 7.06534L8.93466 2.89157C8.81158 2.76837 8.66542 2.67063 8.50454 2.60394C8.34366 2.53725 8.17122 2.50293 7.99707 2.50293C7.82292 2.50293 7.65048 2.53725 7.4896 2.60394C7.32872 2.67063 7.18256 2.76837 7.05948 2.89157L2.88571 7.06534Z" stroke="#101010" stroke-linecap="round" stroke-linejoin="round"/>
<circle cx="7.99968" cy="8.0009" r="2.21184" fill="#101010"/>
</svg>
