<svg width="16" height="16" viewBox="0 0 16 16" fill="none" xmlns="http://www.w3.org/2000/svg">
<path d="M9.94562 7.61099C9.84247 7.71417 9.78452 7.8541 9.78452 8C9.78452 8.1459 9.84247 8.28583 9.94562 8.38901L11.253 9.69691C11.3562 9.80007 11.4961 9.85802 11.642 9.85802C11.7879 9.85802 11.9278 9.80007 12.031 9.69691L13.3389 8.38901C13.4421 8.28583 13.5 8.1459 13.5 8C13.5 7.8541 13.4421 7.71417 13.3389 7.61099L12.031 6.30309C11.9278 6.19993 11.7879 6.14198 11.642 6.14198C11.4961 6.14198 11.3562 6.19993 11.253 6.30309L9.94562 7.61099Z" stroke="#101010" stroke-linecap="round" stroke-linejoin="round"/>
<path d="M2.6611 7.61099C2.55795 7.71417 2.5 7.8541 2.5 8C2.5 8.1459 2.55795 8.28583 2.6611 8.38901L3.969 9.69691C4.07219 9.80007 4.21211 9.85802 4.35802 9.85802C4.50392 9.85802 4.64385 9.80007 4.74703 9.69691L6.05493 8.38901C6.15808 8.28583 6.21603 8.1459 6.21603 8C6.21603 7.8541 6.15808 7.71417 6.05493 7.61099L4.74703 6.30309C4.64385 6.19993 4.50392 6.14198 4.35802 6.14198C4.21211 6.14198 4.07219 6.19993 3.969 6.30309L2.6611 7.61099Z" stroke="#101010" stroke-linecap="round" stroke-linejoin="round"/>
<path d="M6.30309 11.253C6.25193 11.3041 6.21134 11.3648 6.18365 11.4316C6.15596 11.4984 6.14171 11.5699 6.14171 11.6423C6.14171 11.7146 6.15596 11.7862 6.18365 11.853C6.21134 11.9198 6.25193 11.9804 6.30309 12.0315L7.61099 13.3389C7.71417 13.4421 7.8541 13.5 8 13.5C8.1459 13.5 8.28583 13.4421 8.38901 13.3389L9.69691 12.0315C9.74807 11.9804 9.78866 11.9198 9.81635 11.853C9.84404 11.7862 9.85829 11.7146 9.85829 11.6423C9.85829 11.5699 9.84404 11.4984 9.81635 11.4316C9.78866 11.3648 9.74807 11.3041 9.69691 11.253L8.38901 9.94562C8.28583 9.84247 8.1459 9.78452 8 9.78452C7.8541 9.78452 7.71417 9.84247 7.61099 9.94562L6.30309 11.253Z" stroke="#101010" stroke-linecap="round" stroke-linejoin="round"/>
<path d="M6.30309 3.969C6.19993 4.07219 6.14198 4.21211 6.14198 4.35802C6.14198 4.50392 6.19993 4.64385 6.30309 4.74703L7.61099 6.05438C7.71417 6.15753 7.8541 6.21548 8 6.21548C8.1459 6.21548 8.28583 6.15753 8.38901 6.05438L9.69691 4.74703C9.80007 4.64385 9.85802 4.50392 9.85802 4.35802C9.85802 4.21211 9.80007 4.07219 9.69691 3.969L8.38901 2.6611C8.28583 2.55795 8.1459 2.5 8 2.5C7.8541 2.5 7.71417 2.55795 7.61099 2.6611L6.30309 3.969Z" stroke="#101010" stroke-linecap="round" stroke-linejoin="round"/>
</svg>
