<svg width="16" height="16" viewBox="0 0 16 16" fill="none" xmlns="http://www.w3.org/2000/svg">
<path d="M12.3867 8.5474C12.3867 11.289 10.4675 12.6598 8.18652 13.4549C8.06708 13.4954 7.93733 13.4934 7.81915 13.4494C5.53265 12.6598 3.61353 11.289 3.61353 8.5474V4.70916C3.61353 4.56373 3.67129 4.42426 3.77413 4.32143C3.87696 4.2186 4.01642 4.16084 4.16185 4.16084C5.25849 4.16084 6.62929 3.50285 7.58337 2.6694C7.69954 2.57015 7.84731 2.51562 8.00009 2.51562C8.15288 2.51562 8.30065 2.57015 8.41682 2.6694C9.37638 3.50833 10.7417 4.16084 11.8383 4.16084C11.9838 4.16084 12.1232 4.2186 12.2261 4.32143C12.3289 4.42426 12.3867 4.56373 12.3867 4.70916V8.5474Z" stroke="#101010" stroke-linecap="round" stroke-linejoin="round"/>
<path d="M6.54631 4.98633V8.09313M6.54631 8.09313C5.9915 8.09313 5.54175 8.54288 5.54175 9.09769C5.54175 9.65249 5.9915 10.1022 6.54631 10.1022M6.54631 8.09313C7.10111 8.09313 7.55087 8.54288 7.55087 9.09769C7.55087 9.65249 7.10111 10.1022 6.54631 10.1022M6.54631 10.1022V11.0137" stroke="#101010" stroke-linecap="round" stroke-linejoin="round"/>
<path d="M9.45451 11.0137V7.90687M9.45451 7.90687C8.89971 7.90687 8.44995 7.45712 8.44995 6.90231C8.44995 6.34751 8.89971 5.89775 9.45451 5.89775M9.45451 7.90687C10.0093 7.90687 10.4591 7.45712 10.4591 6.90231C10.4591 6.34751 10.0093 5.89775 9.45451 5.89775M9.45451 5.89775V4.98631" stroke="#101010" stroke-linecap="round" stroke-linejoin="round"/>
</svg>
