<svg width="16" height="16" viewBox="0 0 16 16" fill="none" xmlns="http://www.w3.org/2000/svg">
<rect width="16" height="16" rx="8" fill="#101010"/>
<g clip-path="url(#clip0_3813_1361)">
<path fill-rule="evenodd" clip-rule="evenodd" d="M7.99638 4.3877C8.09547 4.3877 8.19321 4.41361 8.27861 4.46387C8.3631 4.51368 8.43276 4.58541 8.48076 4.6709L11.8164 10.5033C11.8166 10.5037 11.8169 10.5041 11.8172 10.5044C11.8175 10.5047 11.8178 10.5051 11.818 10.5055C11.8735 10.6043 11.8978 10.7182 11.887 10.8311C11.8761 10.944 11.8306 11.0512 11.7571 11.1377C11.6837 11.224 11.5854 11.2865 11.4759 11.3154C11.3663 11.3442 11.2497 11.3388 11.1433 11.3C11.143 11.2999 11.1429 11.2996 11.1429 11.2993C11.1429 11.299 11.1427 11.2988 11.1424 11.2987L8.82737 10.5167C8.46612 10.3946 8.22295 10.0558 8.22295 9.67453V7.55566C8.22295 7.43299 8.12294 7.3331 8.00029 7.33301C7.87756 7.33301 7.77763 7.43293 7.77763 7.55566V9.67368C7.77763 10.0549 7.53453 10.3937 7.17338 10.5158L4.8538 11.2998C4.74754 11.3375 4.63164 11.3428 4.52275 11.3135C4.41391 11.284 4.31626 11.2219 4.24345 11.1357C4.17059 11.0495 4.12541 10.9425 4.11455 10.8301C4.10383 10.7178 4.12796 10.6043 4.18291 10.5059L4.18388 10.5039L7.51201 4.6709C7.55991 4.58555 7.62987 4.51368 7.71416 4.46387C7.79947 4.41358 7.89736 4.38779 7.99638 4.3877Z" fill="white"/>
</g>
<defs>
<clipPath id="clip0_3813_1361">
<rect width="8.88889" height="8.88889" fill="white" transform="translate(3.55566 3.55566)"/>
</clipPath>
</defs>
</svg>
