<svg width="16" height="16" viewBox="0 0 16 16" fill="none" xmlns="http://www.w3.org/2000/svg">
<path d="M9.65324 8.00028C9.65324 8.91318 8.91318 9.65324 8.00027 9.65324C7.08737 9.65324 6.34731 8.91318 6.34731 8.00028C6.34731 7.08737 7.08737 6.34731 8.00027 6.34731C8.91318 6.34731 9.65324 7.08737 9.65324 8.00028Z" fill="#101010"/>
<path d="M6.71702 3.66731C6.74738 3.34792 6.89573 3.05133 7.13308 2.83547C7.37042 2.61961 7.67972 2.5 8.00055 2.5C8.32137 2.5 8.63067 2.61961 8.86802 2.83547C9.10537 3.05133 9.25372 3.34792 9.28407 3.66731C9.30232 3.87363 9.37001 4.07251 9.4814 4.24713C9.5928 4.42175 9.74462 4.56697 9.92403 4.67048C10.1034 4.77399 10.3051 4.83276 10.5121 4.8418C10.719 4.85085 10.9251 4.80991 11.1128 4.72245C11.4043 4.59009 11.7347 4.57094 12.0396 4.66872C12.3444 4.7665 12.602 4.97422 12.7622 5.25146C12.9224 5.52869 12.9736 5.8556 12.9061 6.16856C12.8385 6.48152 12.6569 6.75814 12.3966 6.94458C12.2271 7.06351 12.0888 7.22151 11.9932 7.40522C11.8977 7.58893 11.8478 7.79294 11.8478 8C11.8478 8.20706 11.8977 8.41107 11.9932 8.59478C12.0888 8.77849 12.2271 8.93649 12.3966 9.05542C12.6569 9.24186 12.8385 9.51848 12.9061 9.83144C12.9736 10.1444 12.9224 10.4713 12.7622 10.7485C12.602 11.0258 12.3444 11.2335 12.0396 11.3313C11.7347 11.4291 11.4043 11.4099 11.1128 11.2776C10.9251 11.1901 10.719 11.1491 10.5121 11.1582C10.3051 11.1672 10.1034 11.226 9.92403 11.3295C9.74462 11.433 9.5928 11.5782 9.4814 11.7529C9.37001 11.9275 9.30232 12.1264 9.28407 12.3327C9.25372 12.6521 9.10537 12.9487 8.86802 13.1645C8.63067 13.3804 8.32137 13.5 8.00055 13.5C7.67972 13.5 7.37042 13.3804 7.13308 13.1645C6.89573 12.9487 6.74738 12.6521 6.71702 12.3327C6.69881 12.1263 6.63112 11.9273 6.5197 11.7527C6.40827 11.578 6.25638 11.4327 6.0769 11.3292C5.89743 11.2257 5.69564 11.1669 5.48864 11.1579C5.28164 11.1489 5.07552 11.19 4.88774 11.2776C4.59621 11.4099 4.26586 11.4291 3.96098 11.3313C3.65611 11.2335 3.39852 11.0258 3.23835 10.7485C3.07819 10.4713 3.0269 10.1444 3.09448 9.83144C3.16205 9.51848 3.34366 9.24186 3.60394 9.05542C3.77344 8.93649 3.9118 8.77849 4.00731 8.59478C4.10283 8.41107 4.1527 8.20706 4.1527 8C4.1527 7.79294 4.10283 7.58893 4.00731 7.40522C3.9118 7.22151 3.77344 7.06351 3.60394 6.94458C3.34402 6.75804 3.16274 6.48153 3.09533 6.16878C3.02791 5.85603 3.07919 5.52939 3.23918 5.25234C3.39917 4.97529 3.65646 4.76762 3.96103 4.66969C4.26561 4.57176 4.59571 4.59056 4.88719 4.72245C5.07495 4.80991 5.28101 4.85085 5.48794 4.8418C5.69486 4.83276 5.89657 4.77399 6.07597 4.67048C6.25537 4.56697 6.4072 4.42175 6.51859 4.24713C6.62999 4.07251 6.69767 3.87363 6.71592 3.66731M9.65324 8.00028C9.65324 8.91318 8.91318 9.65324 8.00027 9.65324C7.08737 9.65324 6.34731 8.91318 6.34731 8.00028C6.34731 7.08737 7.08737 6.34731 8.00027 6.34731C8.91318 6.34731 9.65324 7.08737 9.65324 8.00028Z" stroke="#101010" stroke-linecap="round" stroke-linejoin="round"/>
</svg>
