<svg width="16" height="16" viewBox="0 0 16 16" fill="none" xmlns="http://www.w3.org/2000/svg">
<path d="M5.0385 9.69223C5.97313 9.69223 6.73081 8.93456 6.73081 7.99992C6.73081 7.06529 5.97313 6.30762 5.0385 6.30762C4.10386 6.30762 3.34619 7.06529 3.34619 7.99992C3.34619 8.93456 4.10386 9.69223 5.0385 9.69223Z" stroke="#101010" stroke-linecap="round" stroke-linejoin="round"/>
<path d="M10.9616 13.5001C11.8962 13.5001 12.6539 12.7424 12.6539 11.8078C12.6539 10.8732 11.8962 10.1155 10.9616 10.1155C10.027 10.1155 9.26929 10.8732 9.26929 11.8078C9.26929 12.7424 10.027 13.5001 10.9616 13.5001Z" stroke="#101010" stroke-linecap="round" stroke-linejoin="round"/>
<path d="M10.9616 5.88462C11.8962 5.88462 12.6539 5.12694 12.6539 4.19231C12.6539 3.25767 11.8962 2.5 10.9616 2.5C10.027 2.5 9.26929 3.25767 9.26929 4.19231C9.26929 5.12694 10.027 5.88462 10.9616 5.88462Z" stroke="#101010" stroke-linecap="round" stroke-linejoin="round"/>
<path d="M9.53996 5.10693L6.46313 7.08482" stroke="#101010" stroke-linecap="round" stroke-linejoin="round"/>
<path d="M6.46313 8.91479L9.53996 10.8927" stroke="#101010" stroke-linecap="round" stroke-linejoin="round"/>
</svg>
