<svg width="16" height="16" viewBox="0 0 16 16" fill="none" xmlns="http://www.w3.org/2000/svg">
<path d="M12.2778 13.5H3.72222C3.39807 13.5 3.08719 13.3712 2.85798 13.142C2.62877 12.9128 2.5 12.6019 2.5 12.2778V3.72222C2.5 3.39807 2.62877 3.08719 2.85798 2.85798C3.08719 2.62877 3.39807 2.5 3.72222 2.5H12.2778C12.6019 2.5 12.9128 2.62877 13.142 2.85798C13.3712 3.08719 13.5 3.39807 13.5 3.72222V12.2778C13.5 12.6019 13.3712 12.9128 13.142 13.142C12.9128 13.3712 12.6019 13.5 12.2778 13.5Z" stroke="#101010" stroke-linecap="round" stroke-linejoin="round"/>
<path d="M4.02832 6.77778L5.24855 8L4.02832 9.22222M6.79916 13.5V2.5" stroke="#101010" stroke-linecap="round" stroke-linejoin="round"/>
</svg>
