<svg width="16" height="16" viewBox="0 0 16 16" fill="none" xmlns="http://www.w3.org/2000/svg">
<path d="M2.5 5.03043V10.9695C2.50065 11.0442 2.52132 11.1175 2.55988 11.1815C2.59844 11.2456 2.65347 11.2982 2.71924 11.3338C2.78501 11.3694 2.85912 11.3867 2.93385 11.3839C3.00858 11.3811 3.0812 11.3583 3.14414 11.318L7.8081 8.34846C7.86686 8.31125 7.91526 8.25979 7.9488 8.19885C7.98234 8.13792 7.99993 8.0695 7.99993 7.99995C7.99993 7.93039 7.98234 7.86197 7.9488 7.80104C7.91526 7.7401 7.86686 7.68864 7.8081 7.65143L3.14414 4.68192C3.0812 4.64155 3.00858 4.61879 2.93385 4.61601C2.85912 4.61323 2.78501 4.63054 2.71924 4.66612C2.65347 4.70171 2.59844 4.75427 2.55988 4.81835C2.52132 4.88242 2.50065 4.95566 2.5 5.03043Z" stroke="#101010" stroke-width="0.846165" stroke-linecap="round" stroke-linejoin="round"/>
<path d="M8 5.03043V10.9695C8.00065 11.0442 8.02132 11.1175 8.05988 11.1815C8.09844 11.2456 8.15347 11.2982 8.21924 11.3338C8.28501 11.3694 8.35912 11.3867 8.43385 11.3839C8.50858 11.3811 8.5812 11.3583 8.64414 11.318L13.3081 8.34846C13.3669 8.31125 13.4153 8.25979 13.4488 8.19885C13.4823 8.13792 13.4999 8.0695 13.4999 7.99995C13.4999 7.93039 13.4823 7.86197 13.4488 7.80104C13.4153 7.7401 13.3669 7.68864 13.3081 7.65143L8.64414 4.68192C8.5812 4.64155 8.50858 4.61879 8.43385 4.61601C8.35912 4.61323 8.28501 4.63054 8.21924 4.66612C8.15347 4.70171 8.09844 4.75427 8.05988 4.81835C8.02132 4.88242 8.00065 4.95566 8 5.03043Z" stroke="#101010" stroke-width="0.846165" stroke-linecap="round" stroke-linejoin="round"/>
</svg>
