<svg width="16" height="16" viewBox="0 0 16 16" fill="none" xmlns="http://www.w3.org/2000/svg">
<path d="M2.57715 6.28688H13.4238M5.1461 4.57424H5.15124M7.42961 4.57424H7.43475M2.57715 7.99951C2.57715 5.44312 2.57715 4.16435 3.37124 3.37026C4.16533 2.57617 5.44353 2.57617 8.00049 2.57617C10.5569 2.57617 11.8356 2.57617 12.6297 3.37026C13.4238 4.16435 13.4238 5.44255 13.4238 7.99951C13.4238 10.5559 13.4238 11.8347 12.6297 12.6288C11.8356 13.4229 10.5574 13.4229 8.00049 13.4229C5.4441 13.4229 4.16533 13.4229 3.37124 12.6288C2.57715 11.8347 2.57715 10.5565 2.57715 7.99951Z" stroke="#101010" stroke-linecap="round" stroke-linejoin="round"/>
<path d="M5.71704 8.57031L6.41751 9.17373C6.71151 9.42777 6.8588 9.55451 6.8588 9.71207C6.8588 9.86963 6.71151 9.99637 6.41751 10.2504L5.71704 10.8538M8.00055 10.8538H10.2841" stroke="#101010" stroke-linecap="round" stroke-linejoin="round"/>
</svg>
