<svg width="16" height="16" viewBox="0 0 16 16" fill="none" xmlns="http://www.w3.org/2000/svg">
<path d="M12.4001 8.55021C12.4001 11.2997 10.4754 12.6745 8.18779 13.4719C8.068 13.5125 7.93788 13.5105 7.81936 13.4664C5.52624 12.6745 3.60156 11.2997 3.60156 8.55021V4.70086C3.60156 4.55501 3.6595 4.41514 3.76263 4.31201C3.86575 4.20888 4.00563 4.15095 4.15147 4.15095C5.25129 4.15095 6.62606 3.49106 7.5829 2.6552C7.6994 2.55566 7.8476 2.50098 8.00083 2.50098C8.15406 2.50098 8.30225 2.55566 8.41876 2.6552C9.38109 3.49656 10.7504 4.15095 11.8502 4.15095C11.996 4.15095 12.1359 4.20888 12.239 4.31201C12.3422 4.41514 12.4001 4.55501 12.4001 4.70086V8.55021Z" stroke="black" stroke-linecap="round" stroke-linejoin="round"/>
<path d="M7.42875 8.41912C7.21063 8.29319 7.04016 8.09881 6.94378 7.86612C6.8474 7.63344 6.83049 7.37545 6.89567 7.13217C6.96086 6.8889 7.1045 6.67393 7.30431 6.52061C7.50412 6.36728 7.74894 6.28418 8.0008 6.28418C8.25266 6.28418 8.49748 6.36728 8.69729 6.52061C8.8971 6.67393 9.04074 6.8889 9.10593 7.13217C9.17111 7.37545 9.1542 7.63344 9.05782 7.86612C8.96144 8.09881 8.79097 8.29319 8.57286 8.41912L9.11087 9.63907C9.1269 9.67542 9.10029 9.71625 9.06056 9.71625H6.94104C6.90132 9.71625 6.8747 9.67542 6.89073 9.63907L7.42875 8.41912Z" fill="black"/>
</svg>
