<svg width="16" height="16" viewBox="0 0 16 16" fill="none" xmlns="http://www.w3.org/2000/svg">
<path d="M7.68689 12.7849C7.5746 12.8229 7.45261 12.8211 7.3415 12.7797C5.19177 12.0374 3.38745 10.7486 3.38745 8.17096V4.56232C3.38745 4.42559 3.44176 4.29447 3.53844 4.19779C3.63512 4.10111 3.76625 4.04679 3.90297 4.04679C4.93401 4.04679 6.22282 3.42817 7.11982 2.64458C7.22904 2.55127 7.36797 2.5 7.51162 2.5C7.65527 2.5 7.7942 2.55127 7.90341 2.64458C8.80558 3.43332 10.0892 4.04679 11.1203 4.04679C11.257 4.04679 11.3881 4.10111 11.4848 4.19779C11.5815 4.29447 11.6358 4.42559 11.6358 4.56232V7.62312" stroke="black" stroke-linecap="round" stroke-linejoin="round"/>
<path d="M6.97525 8.04831C6.77077 7.93026 6.61096 7.74803 6.52061 7.5299C6.43025 7.31176 6.4144 7.0699 6.47551 6.84184C6.53662 6.61378 6.67128 6.41225 6.85859 6.26852C7.04591 6.12478 7.27542 6.04688 7.51153 6.04688C7.74764 6.04688 7.97715 6.12478 8.16447 6.26852C8.35179 6.41225 8.48644 6.61378 8.54755 6.84184C8.60866 7.0699 8.59281 7.31176 8.50245 7.5299C8.4121 7.74803 8.25229 7.93026 8.04782 8.04831L8.55219 9.19198C8.56722 9.22606 8.54226 9.26433 8.50502 9.26433H6.51804C6.4808 9.26433 6.45585 9.22606 6.47087 9.19198L6.97525 8.04831Z" fill="black"/>
<path d="M9.35547 8.32617C9.4807 8.32622 9.58203 8.42749 9.58203 8.55273V10.9463C10.0157 11.0513 10.3385 11.4405 10.3389 11.9062L10.334 12.0078C10.2913 12.4285 9.98417 12.7698 9.58203 12.8672V13.2734C9.58193 13.3986 9.48063 13.5009 9.35547 13.501C9.23026 13.501 9.12901 13.3986 9.12891 13.2734V12.8711C8.68839 12.7708 8.35938 12.3771 8.35938 11.9062C8.35974 11.4357 8.68855 11.0424 9.12891 10.9424V8.55273C9.12891 8.42746 9.23019 8.32617 9.35547 8.32617ZM9.34863 11.3711C9.05305 11.3713 8.8139 11.6107 8.81348 11.9062C8.81348 12.2021 9.05279 12.4421 9.34863 12.4424C9.64465 12.4424 9.88477 12.2023 9.88477 11.9062C9.88434 11.6106 9.64439 11.3711 9.34863 11.3711Z" fill="black"/>
<path d="M11.6216 8.32617C11.7469 8.32617 11.8481 8.42746 11.8481 8.55273V8.95996C12.2853 9.06255 12.6116 9.45458 12.6118 9.92285L12.6069 10.0244C12.564 10.4474 12.2535 10.7905 11.8481 10.8857V13.2734C11.8481 13.3987 11.7468 13.5 11.6216 13.5C11.4964 13.4998 11.395 13.3986 11.395 13.2734V10.8857C10.9578 10.7831 10.6323 10.3914 10.6323 9.92285C10.6325 9.45442 10.9578 9.06239 11.395 8.95996V8.55273C11.395 8.42756 11.4964 8.32633 11.6216 8.32617ZM11.6216 9.3877C11.3259 9.38793 11.0867 9.62715 11.0864 9.92285C11.0865 10.2187 11.3258 10.4587 11.6216 10.459C11.9174 10.4587 12.1577 10.2187 12.1577 9.92285C12.1575 9.62716 11.9173 9.38795 11.6216 9.3877Z" fill="black"/>
</svg>
