<svg width="16" height="16" viewBox="0 0 16 16" fill="none" xmlns="http://www.w3.org/2000/svg">
<path d="M12.4 6.24526C13.0075 6.24526 13.5 5.75277 13.5 5.14526V3.6C13.5 2.99249 13.0075 2.5 12.4 2.5H3.60003C2.99251 2.5 2.50003 2.99249 2.50003 3.6V5.14526C2.50003 5.75277 2.99251 6.24526 3.60003 6.24526M12.4 6.24526H3.60003M12.4 6.24526C13.0075 6.24526 13.4999 6.73774 13.4999 7.34526V8.65265C13.4999 9.26017 13.0074 9.75265 12.3999 9.75265M3.60003 6.24526C2.99251 6.24526 2.49993 6.73774 2.49993 7.34526V8.65265C2.49993 9.26017 2.99241 9.75265 3.59993 9.75265M12.3999 9.75265H3.59993M12.3999 9.75265C13.0074 9.75265 13.4998 10.2451 13.4998 10.8527L13.4999 12.3984C13.4999 13.0059 13.0074 13.4984 12.3999 13.4984H3.59988C2.99237 13.4984 2.49988 13.0059 2.49988 12.3984L2.49976 10.8527C2.49976 10.2451 2.99241 9.75265 3.59993 9.75265M4.70003 4.3621V4.1511M4.69993 8.11257V7.89394M4.69976 11.8538V11.6427" stroke="#101010" stroke-linecap="round" stroke-linejoin="round"/>
</svg>
