<svg width="16" height="16" viewBox="0 0 16 16" fill="none" xmlns="http://www.w3.org/2000/svg">
<path d="M9.1105 4.77646L11.168 6.83394M4.83277 9.16506L6.89009 11.2226M6.89009 4.77637L4.83252 6.83394M11.168 9.16515L9.1105 11.2226" stroke="#101010" stroke-linecap="round"/>
<path d="M8.00033 4.99967C8.73671 4.99967 9.33366 4.40272 9.33366 3.66634C9.33366 2.92996 8.73671 2.33301 8.00033 2.33301C7.26395 2.33301 6.66699 2.92996 6.66699 3.66634C6.66699 4.40272 7.26395 4.99967 8.00033 4.99967Z" stroke="#101010" stroke-width="0.666667"/>
<path d="M8.00033 13.6667C8.73671 13.6667 9.33366 13.0697 9.33366 12.3333C9.33366 11.597 8.73671 11 8.00033 11C7.26395 11 6.66699 11.597 6.66699 12.3333C6.66699 13.0697 7.26395 13.6667 8.00033 13.6667Z" stroke="#101010" stroke-width="0.666667"/>
<path d="M3.66683 9.33268C4.40321 9.33268 5.00016 8.73573 5.00016 7.99935C5.00016 7.26297 4.40321 6.66602 3.66683 6.66602C2.93045 6.66602 2.3335 7.26297 2.3335 7.99935C2.3335 8.73573 2.93045 9.33268 3.66683 9.33268Z" stroke="#101010" stroke-width="0.666667"/>
<path d="M12.3336 9.33268C13.07 9.33268 13.6669 8.73573 13.6669 7.99935C13.6669 7.26297 13.07 6.66602 12.3336 6.66602C11.5972 6.66602 11.0002 7.26297 11.0002 7.99935C11.0002 8.73573 11.5972 9.33268 12.3336 9.33268Z" stroke="#101010" stroke-width="0.666667"/>
<path d="M3.66683 8.33268C3.85092 8.33268 4.00016 8.18344 4.00016 7.99935C4.00016 7.81525 3.85092 7.66602 3.66683 7.66602C3.48273 7.66602 3.3335 7.81525 3.3335 7.99935C3.3335 8.18344 3.48273 8.33268 3.66683 8.33268Z" stroke="#101010" stroke-width="0.666667"/>
<path d="M8.00033 12.6667C8.18442 12.6667 8.33366 12.5174 8.33366 12.3333C8.33366 12.1492 8.18442 12 8.00033 12C7.81623 12 7.66699 12.1492 7.66699 12.3333C7.66699 12.5174 7.81623 12.6667 8.00033 12.6667Z" stroke="#101010" stroke-width="0.666667"/>
<path d="M12.3336 8.33268C12.5177 8.33268 12.6669 8.18344 12.6669 7.99935C12.6669 7.81525 12.5177 7.66602 12.3336 7.66602C12.1495 7.66602 12.0002 7.81525 12.0002 7.99935C12.0002 8.18344 12.1495 8.33268 12.3336 8.33268Z" stroke="#101010" stroke-width="0.666667"/>
</svg>
