<svg width="16" height="16" viewBox="0 0 16 16" fill="none" xmlns="http://www.w3.org/2000/svg">
<path d="M10.8205 4.67871C12.0592 5.56093 12.867 7.00883 12.867 8.64542C12.867 11.3332 10.6882 13.512 8.00042 13.512C5.31265 13.512 3.13379 11.3332 3.13379 8.64542C3.13379 7.00883 3.94163 5.56093 5.1803 4.67871" stroke="#101010" stroke-linecap="round"/>
<path d="M5.74733 7.31836C5.47473 7.73837 5.31641 8.23941 5.31641 8.77743C5.31641 10.2596 6.5179 11.461 8.00002 11.461C9.48214 11.461 10.6836 10.2596 10.6836 8.77743C10.6836 8.23941 10.5253 7.73837 10.2527 7.31836" stroke="#101010" stroke-linecap="round"/>
<path d="M6.87561 4.38546C6.96194 4.72837 7.14701 5.33255 7.4308 6.198C7.49796 6.40279 7.68943 6.54108 7.90495 6.54108H8.00008H8.09521C8.31073 6.54108 8.5022 6.40279 8.56936 6.198C8.85316 5.33255 9.03822 4.72837 9.12455 4.38546C9.22196 3.99883 9.27067 3.63501 9.27067 3.29403C9.27067 2.93854 9.14775 2.63793 8.90192 2.39219C8.65617 2.14636 8.35556 2.02344 8.00008 2.02344C7.6446 2.02344 7.34399 2.14636 7.09825 2.39219C6.85241 2.63793 6.72949 2.93854 6.72949 3.29403C6.72949 3.63501 6.7782 3.99883 6.87561 4.38546Z" fill="#101010"/>
<path d="M7.30013 9.35868C7.49241 9.55087 7.72573 9.64697 8.00008 9.64697C8.27443 9.64697 8.50775 9.55087 8.70003 9.35868C8.89222 9.1664 8.98832 8.93308 8.98832 8.65873C8.98832 8.38438 8.89222 8.15106 8.70003 7.95878C8.50775 7.76659 8.27443 7.6705 8.00008 7.6705C7.72573 7.6705 7.49241 7.76659 7.30013 7.95878C7.10794 8.15106 7.01185 8.38438 7.01185 8.65873C7.01185 8.93308 7.10794 9.1664 7.30013 9.35868Z" fill="#101010"/>
</svg>
