<svg width="16" height="16" viewBox="0 0 16 16" fill="none" xmlns="http://www.w3.org/2000/svg">
<path d="M2.5 7.63379H13.5" stroke="#101010" stroke-linecap="round" stroke-linejoin="round"/>
<path d="M5.61659 11.6673C6.32535 11.6673 6.89992 11.0927 6.89992 10.3839C6.89992 9.67515 6.32535 9.10059 5.61659 9.10059C4.90782 9.10059 4.33325 9.67515 4.33325 10.3839C4.33325 11.0927 4.90782 11.6673 5.61659 11.6673Z" stroke="#101010" stroke-linecap="round" stroke-linejoin="round"/>
<path d="M10.3834 11.6673C11.0922 11.6673 11.6668 11.0927 11.6668 10.3839C11.6668 9.67515 11.0922 9.10059 10.3834 9.10059C9.67467 9.10059 9.1001 9.67515 9.1001 10.3839C9.1001 11.0927 9.67467 11.6673 10.3834 11.6673Z" stroke="#101010" stroke-linecap="round" stroke-linejoin="round"/>
<path d="M6.88721 10.5674H9.11287" stroke="#101010" stroke-linecap="round" stroke-linejoin="round"/>
<path d="M3.96655 7.63364L6.25318 4.48443C6.28638 4.43896 6.32961 4.40174 6.37951 4.37567C6.42941 4.3496 6.48465 4.33537 6.54094 4.33408C6.59723 4.33279 6.65306 4.34449 6.7041 4.36826C6.75514 4.39203 6.80002 4.42723 6.83526 4.47114L7.42834 5.15864C7.49707 5.24412 7.58409 5.3131 7.683 5.3605C7.78192 5.40789 7.8902 5.4325 7.99989 5.4325C8.10957 5.4325 8.21785 5.40789 8.31677 5.3605C8.41568 5.3131 8.50271 5.24412 8.57143 5.15864L9.16451 4.47114C9.19975 4.42723 9.24464 4.39203 9.29568 4.36826C9.34672 4.34449 9.40255 4.33279 9.45883 4.33408C9.51512 4.33537 9.57036 4.3496 9.62026 4.37567C9.67017 4.40174 9.71339 4.43896 9.74659 4.48443L12.0332 7.63364" stroke="#101010" stroke-linecap="round" stroke-linejoin="round"/>
</svg>
