<svg width="16" height="16" viewBox="0 0 16 16" fill="none" xmlns="http://www.w3.org/2000/svg">
<rect x="13.1484" y="8.82764" width="2.20645" height="6.17515" transform="rotate(-180 13.1484 8.82764)" fill="#101010"/>
<path d="M10.7034 9.1L10.7034 7.45L10.7034 5.8L10.7034 2.5M6.30337 11.366L6.85337 9.1L3.64687 9.1C3.4761 9.1 3.30768 9.06024 3.15494 8.98387C3.0022 8.9075 2.86933 8.79661 2.76687 8.66C2.66441 8.52338 2.59516 8.36479 2.56461 8.19677C2.53407 8.02876 2.54306 7.85594 2.59087 7.692L3.87237 3.292C3.93901 3.06351 4.07796 2.8628 4.26837 2.72C4.45878 2.57719 4.69036 2.5 4.92837 2.5L12.3534 2.5C12.6451 2.5 12.9249 2.61589 13.1312 2.82218C13.3375 3.02847 13.4534 3.30826 13.4534 3.6L13.4534 8C13.4534 8.29174 13.3375 8.57153 13.1312 8.77782C12.9249 8.98411 12.6451 9.1 12.3534 9.1L10.8354 9.1C10.6307 9.10011 10.4302 9.1573 10.2562 9.26515C10.0823 9.373 9.94194 9.52723 9.85087 9.7105L7.95337 13.5C7.694 13.4968 7.43871 13.435 7.20658 13.3193C6.97444 13.2035 6.77146 13.0368 6.6128 12.8316C6.45414 12.6264 6.3439 12.388 6.29031 12.1342C6.23673 11.8804 6.2412 11.6178 6.30337 11.366Z" stroke="#101010" stroke-width="0.825" stroke-linecap="round" stroke-linejoin="round"/>
</svg>
