<svg width="16" height="16" viewBox="0 0 16 16" fill="none" xmlns="http://www.w3.org/2000/svg">
<rect x="2.85181" y="7.17236" width="2.20645" height="6.17515" fill="#101010"/>
<path d="M5.29687 6.9V8.55V10.2V13.5M9.69687 4.634L9.14687 6.9H12.3534C12.5241 6.9 12.6926 6.93976 12.8453 7.01613C12.998 7.0925 13.1309 7.20338 13.2334 7.34C13.3358 7.47662 13.4051 7.63521 13.4356 7.80323C13.4662 7.97124 13.4572 8.14406 13.4094 8.308L12.1279 12.708C12.0612 12.9365 11.9223 13.1372 11.7319 13.28C11.5415 13.4228 11.3099 13.5 11.0719 13.5H3.64687C3.35514 13.5 3.07535 13.3841 2.86906 13.1778C2.66277 12.9715 2.54688 12.6917 2.54688 12.4V8C2.54688 7.70826 2.66277 7.42847 2.86906 7.22218C3.07535 7.01589 3.35514 6.9 3.64687 6.9H5.16487C5.36952 6.89989 5.57008 6.8427 5.744 6.73485C5.91792 6.627 6.05831 6.47277 6.14937 6.2895L8.04687 2.5C8.30624 2.50321 8.56153 2.56499 8.79367 2.68073C9.0258 2.79646 9.22879 2.96316 9.38745 3.16836C9.54611 3.37356 9.65635 3.61197 9.70993 3.86576C9.76351 4.11955 9.75905 4.38217 9.69687 4.634Z" stroke="#101010" stroke-width="0.825" stroke-linecap="round" stroke-linejoin="round"/>
</svg>
