<svg width="16" height="16" viewBox="0 0 16 16" fill="none" xmlns="http://www.w3.org/2000/svg">
<path d="M8.01241 6.14904V8.10586M2.49805 6.34922C2.93581 6.34922 3.35564 6.52312 3.66519 6.83266C3.97473 7.14221 4.14863 7.56204 4.14863 7.9998C4.14863 8.43757 3.97473 8.8574 3.66519 9.16695C3.35564 9.47649 2.93581 9.65039 2.49805 9.65039V10.7508C2.49805 11.0426 2.61398 11.3225 2.82034 11.5289C3.02671 11.7352 3.3066 11.8512 3.59844 11.8512H12.4016C12.6934 11.8512 12.9733 11.7352 13.1797 11.5289C13.386 11.3225 13.502 11.0426 13.502 10.7508V9.65039C13.0642 9.65039 12.6444 9.47649 12.3348 9.16695C12.0253 8.8574 11.8514 8.43757 11.8514 7.9998C11.8514 7.56204 12.0253 7.14221 12.3348 6.83266C12.6444 6.52312 13.0642 6.34922 13.502 6.34922V5.24883C13.502 4.95699 13.386 4.6771 13.1797 4.47073C12.9733 4.26437 12.6934 4.14844 12.4016 4.14844H3.59844C3.3066 4.14844 3.02671 4.26437 2.82034 4.47073C2.61398 4.6771 2.49805 4.95699 2.49805 5.24883V6.34922Z" stroke="#101010" stroke-linecap="round" stroke-linejoin="round"/>
<circle cx="8" cy="9.65796" r="0.56665" fill="#101010"/>
</svg>
