<svg width="16" height="16" viewBox="0 0 16 16" fill="none" xmlns="http://www.w3.org/2000/svg">
<path d="M8.55264 4.13184V5.23711M8.55264 10.7635V11.8688M8.55264 7.01671V7.92841M8.55264 8.84011V7.92841M8.55264 7.92841H9.72236L7.44096 7.92841M2.47363 6.34238C2.91334 6.34238 3.33503 6.51705 3.64595 6.82797C3.95687 7.13889 4.13154 7.56059 4.13154 8.00029C4.13154 8.44 3.95687 8.86169 3.64595 9.17261C3.33503 9.48353 2.91334 9.6582 2.47363 9.6582V10.7635C2.47363 11.0566 2.59008 11.3377 2.79736 11.545C3.00464 11.7523 3.28577 11.8688 3.57891 11.8688H12.4211C12.7142 11.8688 12.9954 11.7523 13.2026 11.545C13.4099 11.3377 13.5264 11.0566 13.5264 10.7635V9.6582C13.0867 9.6582 12.665 9.48353 12.354 9.17261C12.0431 8.86169 11.8685 8.44 11.8685 8.00029C11.8685 7.56059 12.0431 7.13889 12.354 6.82797C12.665 6.51705 13.0867 6.34238 13.5264 6.34238V5.23711C13.5264 4.94397 13.4099 4.66284 13.2026 4.45556C12.9954 4.24828 12.7142 4.13184 12.4211 4.13184H3.57891C3.28577 4.13184 3.00464 4.24828 2.79736 4.45556C2.59008 4.66284 2.47363 4.94397 2.47363 5.23711V6.34238Z" stroke="#101010" stroke-linecap="round" stroke-linejoin="round"/>
</svg>
