<svg width="16" height="16" viewBox="0 0 16 16" fill="none" xmlns="http://www.w3.org/2000/svg">
<path d="M6.35 7.99941L7.45 9.09941L9.65 6.89941M2.5 6.34941C2.93761 6.34941 3.35729 6.52325 3.66673 6.83269C3.97616 7.14212 4.15 7.56181 4.15 7.99941C4.15 8.43702 3.97616 8.85671 3.66673 9.16614C3.35729 9.47558 2.93761 9.64941 2.5 9.64941V10.7494C2.5 11.0412 2.61589 11.3209 2.82218 11.5272C3.02847 11.7335 3.30826 11.8494 3.6 11.8494H12.4C12.6917 11.8494 12.9715 11.7335 13.1778 11.5272C13.3841 11.3209 13.5 11.0412 13.5 10.7494V9.64941C13.0624 9.64941 12.6427 9.47558 12.3333 9.16614C12.0238 8.85671 11.85 8.43702 11.85 7.99941C11.85 7.56181 12.0238 7.14212 12.3333 6.83269C12.6427 6.52325 13.0624 6.34941 13.5 6.34941V5.24941C13.5 4.95768 13.3841 4.67789 13.1778 4.4716C12.9715 4.26531 12.6917 4.14941 12.4 4.14941H3.6C3.30826 4.14941 3.02847 4.26531 2.82218 4.4716C2.61589 4.67789 2.5 4.95768 2.5 5.24941V6.34941Z" stroke="#101010" stroke-linecap="round" stroke-linejoin="round"/>
</svg>
