<svg width="16" height="16" viewBox="0 0 16 16" fill="none" xmlns="http://www.w3.org/2000/svg">
<path d="M5.43066 9.5415V3.49609C5.43066 2.94381 5.87838 2.49609 6.43066 2.49609H12.5146C13.0669 2.49609 13.5146 2.94381 13.5146 3.49609V9.5415C13.5146 10.0938 13.0669 10.5415 12.5146 10.5415H6.43066C5.87838 10.5415 5.43066 10.0938 5.43066 9.5415Z" stroke="#101010" stroke-linecap="round"/>
<path d="M11.4357 12.5996L4.40807 13.4913C3.86018 13.5608 3.35967 13.173 3.29015 12.6251L2.5141 6.50881C2.45292 6.02663 2.7942 5.58615 3.27639 5.52497" stroke="#101010" stroke-linecap="round"/>
<path d="M11.1553 5.54008L9.48742 4.57711C9.48433 4.57532 9.48052 4.57532 9.47742 4.57711L7.80969 5.54008C7.80659 5.54187 7.80469 5.54517 7.80469 5.54874L7.8045 7.47852C7.8045 7.48209 7.8064 7.4854 7.8095 7.48718L9.47742 8.45016C9.48052 8.45194 9.48433 8.45194 9.48742 8.45016L11.1553 7.48718C11.1584 7.4854 11.1603 7.48209 11.1603 7.47852V5.54874C11.1603 5.54517 11.1584 5.54187 11.1553 5.54008Z" stroke="#101010" stroke-linecap="round"/>
</svg>
