<svg width="16" height="16" viewBox="0 0 16 16" fill="none" xmlns="http://www.w3.org/2000/svg">
<path d="M8.34204 5.40283C8.34204 3.78562 7.03103 2.47461 5.41382 2.47461C3.79661 2.47461 2.4856 3.78562 2.4856 5.40283C2.4856 7.02004 3.79661 8.33105 5.41382 8.33105M8.34204 5.40283C8.34204 6.18907 8.03217 6.90293 7.5279 7.42895M8.34204 5.40283H11.073M5.41382 8.33105C6.2448 8.33105 6.99493 7.98492 7.5279 7.42895M5.41382 8.33105L5.44849 11.0842M5.44849 11.0842C4.77431 11.0842 4.22778 11.6308 4.22778 12.3049C4.22778 12.9791 4.77431 13.5256 5.44849 13.5256C6.12266 13.5256 6.66919 12.9791 6.66919 12.3049C6.66919 11.6308 6.12266 11.0842 5.44849 11.0842ZM11.073 5.40283C11.073 6.07701 11.6195 6.62354 12.2937 6.62354C12.9678 6.62354 13.5144 6.07701 13.5144 5.40283C13.5144 4.72866 12.9678 4.18213 12.2937 4.18213C11.6195 4.18213 11.073 4.72866 11.073 5.40283ZM7.5279 7.42895L9.77443 9.6473M9.77443 9.6473C9.52571 9.87077 9.36927 10.1949 9.36927 10.5556C9.36927 11.2298 9.9158 11.7763 10.59 11.7763C11.2642 11.7763 11.8107 11.2298 11.8107 10.5556C11.8107 9.88143 11.2642 9.33491 10.59 9.33491C10.2765 9.33491 9.9906 9.45307 9.77443 9.6473Z" stroke="#101010"/>
</svg>
