<svg width="16" height="16" viewBox="0 0 16 16" fill="none" xmlns="http://www.w3.org/2000/svg">
<path d="M7.41131 9.66164C7.58006 9.83074 7.7967 9.90767 8.06124 9.89243C8.32578 9.87755 8.51884 9.78248 8.64041 9.6072L11.4998 5.62109L7.49296 8.46031C7.3108 8.58151 7.20937 8.76985 7.18868 9.02532C7.168 9.28079 7.24221 9.49253 7.41131 9.66164Z" fill="#101010"/>
<path d="M10.278 4.31317C9.58515 4.00285 8.8159 3.83008 8.00586 3.83008C4.96074 3.83008 2.49219 6.27162 2.49219 9.28342C2.49219 10.1458 2.69456 10.9614 3.0549 11.6863C3.20769 11.9937 3.5332 12.1667 3.87645 12.1667H12.1353C12.4785 12.1667 12.804 11.9937 12.9568 11.6863C13.3172 10.9614 13.5195 10.1458 13.5195 9.28342C13.5195 8.43716 13.3246 7.63592 12.9768 6.92122" stroke="#101010" stroke-linecap="round"/>
</svg>
