<svg width="16" height="16" viewBox="0 0 16 16" fill="none" xmlns="http://www.w3.org/2000/svg">
<path d="M12.15 5.07396V3.73047C12.15 3.45433 11.9262 3.23047 11.65 3.23047H3.03906C2.76292 3.23047 2.53906 3.45433 2.53906 3.73047V9.32209C2.53906 9.59823 2.76292 9.82209 3.03906 9.82209H8.27766M4.8239 11.3505H8.27766M9.94598 11.3505V7.17002C9.94598 6.89388 10.1698 6.67002 10.446 6.67002H12.9932C13.2693 6.67002 13.4932 6.89388 13.4932 7.17002V11.3505M9.94598 11.3505V12.2782C9.94598 12.5544 10.1698 12.7782 10.446 12.7782H12.9932C13.2693 12.7782 13.4932 12.5544 13.4932 12.2782V11.3505M9.94598 11.3505H13.4932" stroke="#101010" stroke-linecap="round" stroke-linejoin="round"/>
</svg>
