<svg width="16" height="16" viewBox="0 0 16 16" fill="none" xmlns="http://www.w3.org/2000/svg">
<path d="M2.49512 5.33174V4.11133C2.49512 3.55904 2.94283 3.11133 3.49512 3.11133H12.5084C13.0607 3.11133 13.5084 3.55904 13.5084 4.11133V5.33174M2.49512 5.33174V11.8338C2.49512 12.386 2.94283 12.8338 3.49512 12.8338H12.5084C13.0607 12.8338 13.5084 12.386 13.5084 11.8338V5.33174M2.49512 5.33174H13.5084" stroke="#101010"/>
<path d="M9.83792 8.51328C9.83792 8.43044 9.90508 8.36328 9.98792 8.36328H10.9128C10.9957 8.36328 11.0628 8.43044 11.0628 8.51328V9.43819C11.0628 9.52104 10.9957 9.58819 10.9128 9.58819H9.98792C9.90508 9.58819 9.83792 9.52104 9.83792 9.43819V8.51328Z" fill="#101010"/>
<path d="M7.37678 8.51328C7.37678 8.43044 7.44394 8.36328 7.52678 8.36328H8.45169C8.53454 8.36328 8.60169 8.43044 8.60169 8.51328V9.43819C8.60169 9.52104 8.53454 9.58819 8.45169 9.58819H7.52678C7.44394 9.58819 7.37678 9.52104 7.37678 9.43819V8.51328Z" fill="#101010"/>
<path d="M4.9375 8.51328C4.9375 8.43044 5.00466 8.36328 5.0875 8.36328H6.01241C6.09525 8.36328 6.16241 8.43044 6.16241 8.51328V9.43819C6.16241 9.52104 6.09525 9.58819 6.01241 9.58819H5.0875C5.00466 9.58819 4.9375 9.52104 4.9375 9.43819V8.51328Z" fill="#101010"/>
</svg>
