<svg width="16" height="16" viewBox="0 0 16 16" fill="none" xmlns="http://www.w3.org/2000/svg">
<path d="M5.93799 9.375L2.50049 5.9375M2.50049 5.9375L5.93799 2.5M2.50049 5.9375H9.71924C10.2158 5.9375 10.7075 6.03531 11.1663 6.22533C11.625 6.41536 12.0419 6.69388 12.393 7.045C12.7441 7.39612 13.0226 7.81297 13.2127 8.27173C13.4027 8.73049 13.5005 9.22219 13.5005 9.71875C13.5005 10.2153 13.4027 10.707 13.2127 11.1658C13.0226 11.6245 12.7441 12.0414 12.393 12.3925C12.0419 12.7436 11.625 13.0221 11.1663 13.2122C10.7075 13.4022 10.2158 13.5 9.71924 13.5H7.31299" stroke="black" stroke-linecap="round" stroke-linejoin="round"/>
</svg>
