<svg width="16" height="16" viewBox="0 0 16 16" fill="none" xmlns="http://www.w3.org/2000/svg">
<path d="M7.99951 10.75V13.5M9.64951 6.537V5.25C9.64951 5.10413 9.70746 4.96424 9.8106 4.86109C9.91375 4.75795 10.0536 4.7 10.1995 4.7C10.4913 4.7 10.771 4.58411 10.9773 4.37782C11.1836 4.17153 11.2995 3.89174 11.2995 3.6C11.2995 3.30826 11.1836 3.02847 10.9773 2.82218C10.771 2.61589 10.4913 2.5 10.1995 2.5H5.73901M2.49951 2.5L13.4995 13.5M6.34951 6.35V7.318C6.3494 7.52265 6.29221 7.7232 6.18436 7.89713C6.07651 8.07105 5.92228 8.21143 5.73901 8.3025L4.76001 8.7975C4.57674 8.88857 4.42252 9.02895 4.31467 9.20287C4.20682 9.3768 4.14962 9.57735 4.14951 9.782V10.2C4.14951 10.3459 4.20746 10.4858 4.3106 10.5889C4.41375 10.6921 4.55364 10.75 4.69951 10.75H10.7495" stroke="#101010" stroke-linecap="round" stroke-linejoin="round"/>
</svg>
