<svg width="16" height="16" viewBox="0 0 16 16" fill="none" xmlns="http://www.w3.org/2000/svg">
<path d="M8 13.5C11.0376 13.5 13.5 11.0376 13.5 8C13.5 4.96243 11.0376 2.5 8 2.5C4.96243 2.5 2.5 4.96243 2.5 8C2.5 11.0376 4.96243 13.5 8 13.5Z" stroke="#101010" stroke-linecap="round" stroke-linejoin="round"/>
<path d="M8.00021 8.53656C8.94971 8.53656 9.71942 7.76684 9.71942 6.81735C9.71942 5.86786 8.94971 5.09814 8.00021 5.09814C7.05072 5.09814 6.28101 5.86786 6.28101 6.81735C6.28101 7.76684 7.05072 8.53656 8.00021 8.53656Z" stroke="#101010" stroke-linecap="round" stroke-linejoin="round"/>
<path d="M4.32178 12.0889C4.66662 11.6302 5.19282 11.245 5.84204 10.9759C6.49126 10.7068 7.23814 10.5643 7.9999 10.5643C8.76166 10.5643 9.50855 10.7068 10.1578 10.9759C10.807 11.245 11.3332 11.6302 11.678 12.0889" stroke="#101010" stroke-linecap="round" stroke-linejoin="round"/>
</svg>
