<svg width="16" height="16" viewBox="0 0 16 16" fill="none" xmlns="http://www.w3.org/2000/svg">
<path d="M6.34964 7.99933L7.44945 9.09914L9.64908 6.89951M12.3986 8.54923C12.3986 11.2988 10.4739 12.6735 8.18633 13.4709C8.06654 13.5115 7.93642 13.5096 7.81789 13.4654C5.52478 12.6735 3.6001 11.2988 3.6001 8.54923V4.69988C3.6001 4.55403 3.65803 4.41416 3.76116 4.31104C3.86429 4.20791 4.00416 4.14997 4.15001 4.14997C5.24982 4.14997 6.62459 3.49008 7.58143 2.65422C7.69793 2.55469 7.84613 2.5 7.99936 2.5C8.15259 2.5 8.30079 2.55469 8.41729 2.65422C9.37963 3.49558 10.7489 4.14997 11.8487 4.14997C11.9946 4.14997 12.1344 4.20791 12.2376 4.31104C12.3407 4.41416 12.3986 4.55403 12.3986 4.69988V8.54923Z" stroke="#101010" stroke-linecap="round" stroke-linejoin="round"/>
</svg>
