<svg width="16" height="16" viewBox="0 0 16 16" fill="none" xmlns="http://www.w3.org/2000/svg">
<path d="M10.2 8.54961H11.3M10.75 6.34961H5.25C4.2215 6.34961 3.7078 6.34961 3.325 6.59271C3.0742 6.75221 2.86575 6.98101 2.7211 7.25711C2.5 7.67841 2.5 8.24381 2.5 9.37461C2.5 10.5054 2.5 11.0708 2.7211 11.4921C2.86575 11.7682 3.0742 11.997 3.325 12.1565C3.7078 12.3996 4.2215 12.3996 5.25 12.3996C5.58715 12.3996 5.756 12.3996 5.9155 12.3738C6.34942 12.3008 6.74986 12.0946 7.06115 11.7836C7.1816 11.6654 7.2894 11.5229 7.50555 11.2375L7.68925 10.9955C7.79815 10.8508 7.85315 10.7788 7.92025 10.7502C7.97522 10.7271 8.03658 10.7242 8.0935 10.7419C8.16225 10.7634 8.22275 10.8299 8.3432 10.9619L8.8723 11.5438C9.0032 11.6885 9.06865 11.7605 9.1374 11.8243C9.4883 12.1521 9.9239 12.3507 10.3826 12.3914C10.4717 12.3996 10.5641 12.3996 10.75 12.3996C11.7785 12.3996 12.2922 12.3996 12.675 12.1565C12.9258 11.997 13.1342 11.7682 13.2789 11.4921C13.5 11.0708 13.5 10.5054 13.5 9.37461C13.5 8.24381 13.5 7.67841 13.2789 7.25711C13.1391 6.98672 12.9309 6.75766 12.675 6.59271C12.2922 6.34961 11.7785 6.34961 10.75 6.34961Z" stroke="#101010" stroke-linecap="round" stroke-linejoin="round"/>
<path d="M13.5 9.64961V8.24821C13.5 7.70921 13.5 7.43971 13.4577 7.17956C13.4364 7.05147 13.4075 6.92475 13.3713 6.80006C13.2982 6.54981 13.1848 6.31881 12.9582 5.85681C12.5034 4.93006 12.2763 4.46696 11.9446 4.15566C11.7865 4.0065 11.6066 3.88225 11.4111 3.78716C11.0222 3.59961 10.5806 3.59961 9.6962 3.59961H6.3038C5.41995 3.59961 4.9783 3.59961 4.58945 3.78661C4.39394 3.88187 4.21405 4.00631 4.05595 4.15566C3.72485 4.46696 3.49715 4.93006 3.0423 5.85681C2.8157 6.31881 2.7024 6.54981 2.62925 6.80006C2.59303 6.92475 2.56419 7.05147 2.5429 7.17956C2.5 7.43971 2.5 7.70921 2.5 8.24821V9.64961" stroke="#101010" stroke-linecap="round" stroke-linejoin="round"/>
</svg>
