<svg width="16" height="16" viewBox="0 0 16 16" fill="none" xmlns="http://www.w3.org/2000/svg">
<path d="M14 7.33333V2H2V14H7.33333M8.66667 9.33333L6 6.66667L2.33333 10.3333M14.5527 10.7813L12.6667 12.6667M12.6667 12.6667L10.7813 14.5527M12.6667 12.6667L10.7813 10.7813M12.6667 12.6667L14.5527 14.5527M11.8333 5.5C11.8333 5.85362 11.6929 6.19276 11.4428 6.44281C11.1928 6.69286 10.8536 6.83333 10.5 6.83333C10.1464 6.83333 9.80724 6.69286 9.55719 6.44281C9.30714 6.19276 9.16667 5.85362 9.16667 5.5C9.16667 5.14638 9.30714 4.80724 9.55719 4.55719C9.80724 4.30714 10.1464 4.16667 10.5 4.16667C10.8536 4.16667 11.1928 4.30714 11.4428 4.55719C11.6929 4.80724 11.8333 5.14638 11.8333 5.5Z" stroke="#565656" stroke-width="1.25" stroke-linecap="square"/>
</svg>
