<svg width="172" height="28" viewBox="0 0 172 28" fill="none" xmlns="http://www.w3.org/2000/svg">
<path d="M14.0003 23.2593C8.8871 23.2593 4.74205 19.1144 4.74183 14.0014C4.74183 8.88784 8.88678 4.74284 13.9999 4.74257C19.1134 4.74257 23.2585 8.88752 23.2587 14.0006C23.2587 19.1132 19.1139 23.2581 14.0007 23.2584M14.0003 4.00021C8.47705 4.00021 3.99989 8.47742 4 14.0002C4 19.523 8.47726 24.0001 14.0002 24C19.5228 24 24.0001 19.5228 24 13.9999C24 8.47699 19.5232 4.00011 14.0003 4.00021Z" fill="white"/>
<path d="M16.6438 9.29042H16.0563C15.9766 9.27002 15.8918 9.28401 15.8238 9.32891C15.7557 9.37376 15.7112 9.44482 15.7018 9.52384L12.6616 18.4047C12.6457 18.4442 12.636 18.486 12.6328 18.5284C12.6329 18.6118 12.6747 18.7103 12.8743 18.7103H13.4678C13.5482 18.7305 13.6337 18.7162 13.7023 18.671C13.7708 18.6258 13.8158 18.5542 13.8257 18.4746L16.8545 9.59213C16.8702 9.553 16.88 9.51167 16.8832 9.46976C16.8832 9.38647 16.8418 9.28935 16.6441 9.28935" fill="white"/>
<path d="M18.6899 13.0697C18.6183 13.0224 18.532 13.0013 18.4459 13.0096H17.9285C17.8424 13.0012 17.7561 13.0224 17.6848 13.0697C17.6288 13.1338 17.6029 13.2175 17.6137 13.3008V18.4209C17.6029 18.5042 17.6288 18.5881 17.6851 18.6522C17.7563 18.6995 17.8426 18.7208 17.9284 18.7121H18.4459C18.532 18.7206 18.6185 18.6994 18.6899 18.6521C18.7459 18.588 18.7716 18.5042 18.7609 18.4209V13.3008C18.7716 13.2175 18.7459 13.1338 18.6899 13.0697Z" fill="white"/>
<path d="M12.4844 10.2036C12.4146 10.1114 12.3358 10.0259 12.2493 9.9482C11.785 9.5412 11.3059 9.3035 10.2299 9.29357L9.53121 9.29138H9.52689C9.49019 9.28978 9.45337 9.29346 9.41766 9.30211C9.34547 9.32496 9.27118 9.38551 9.32513 9.54649L9.39467 9.75247L9.48322 10.0154C9.49848 10.0844 9.53441 10.1475 9.58637 10.197C9.64652 10.2273 9.71418 10.2415 9.78184 10.2381H9.97211C10.6462 10.2381 11.096 10.3711 11.3875 10.657C11.6749 10.9377 11.8129 11.4233 11.8129 12.1415C11.8129 12.8597 11.6738 13.3452 11.3875 13.6262C11.096 13.912 10.6465 14.0452 9.97244 14.0452H9.78305C9.71495 14.0416 9.64718 14.0557 9.58671 14.086C9.53463 14.1355 9.49859 14.1985 9.48322 14.2675L9.39467 14.5304L9.32513 14.7365C9.27118 14.8972 9.34547 14.9586 9.41777 14.9808C9.45304 14.9895 9.48953 14.9931 9.52601 14.9916L10.2299 14.9894C11.3059 14.9793 11.785 14.7417 12.2493 14.3347C12.3358 14.257 12.4145 14.1714 12.4844 14.0793C12.8293 13.6352 12.9977 13.0018 12.9977 12.1401C12.9977 11.2783 12.8299 10.644 12.4844 10.2009" fill="white"/>
<path d="M37.4031 13.9979H39.9355C40.8574 13.9979 41.513 13.8214 41.9021 13.4684C42.2913 13.1154 42.4858 12.5112 42.4858 11.6558V11.3787C42.4858 10.4642 42.2941 9.81946 41.9106 9.44452C41.5272 9.06956 40.8686 8.88162 39.9351 8.88071H37.4027L37.4031 13.9979ZM37.4031 15.1772V19.7041C37.4165 19.8033 37.3874 19.9035 37.3228 19.9817C37.2352 20.0373 37.1305 20.0618 37.0264 20.0512H36.3796C36.2757 20.0617 36.1711 20.0372 36.0837 19.9817C36.019 19.9035 35.99 19.8033 36.0032 19.7041V8.04757C35.9897 7.94849 36.0188 7.84835 36.0837 7.77051C36.1711 7.7149 36.2756 7.69021 36.3796 7.70054H39.8829C41.3074 7.70054 42.346 7.98661 42.999 8.5588C43.6521 9.13102 43.9782 10.0475 43.9776 11.3083V11.6554C43.9776 14.0026 42.6127 15.1763 39.8829 15.1763L37.4031 15.1772Z" fill="white"/>
<path d="M62.3492 11.7949C60.7809 11.7949 59.9907 12.7953 59.9787 14.796H64.6121C64.674 14.0022 64.4829 13.2091 64.0643 12.5234C63.6557 12.0176 63.0113 11.7442 62.3492 11.7949ZM59.9787 15.9231V16.2528C59.9787 18.1608 60.7806 19.1146 62.3847 19.1143C63.4025 19.1143 64.079 18.7385 64.4143 17.9867C64.4449 17.8929 64.4971 17.8071 64.5671 17.7357C64.648 17.6983 64.7378 17.6826 64.8271 17.69H65.4737C65.5838 17.6815 65.6943 17.6971 65.7971 17.7357C65.8451 17.7662 65.8689 17.8443 65.8686 17.9698C65.8515 18.1896 65.7842 18.4029 65.6712 18.5944C65.5509 18.8317 65.4 19.0533 65.2218 19.2538C64.8879 19.5997 64.4719 19.8616 64.0095 20.017C63.4716 20.2068 62.9027 20.3009 62.3302 20.2945C61.2899 20.3588 60.2715 19.9857 59.537 19.2712C58.8365 18.4565 58.4862 17.4133 58.558 16.3566V15.0557C58.558 13.6568 58.8812 12.5842 59.5275 11.8379C60.2384 11.0648 61.279 10.6519 62.3473 10.719C64.8135 10.719 66.0468 12.0431 66.0471 14.6912V15.576C66.06 15.6753 66.0307 15.7754 65.9662 15.8536C65.8786 15.9091 65.7739 15.9336 65.6698 15.9231L59.9787 15.9231Z" fill="white"/>
<path d="M71.7412 10.9643C71.8351 10.9561 71.9285 10.984 72.0011 11.042C72.0725 11.1259 72.1247 11.2234 72.154 11.3283L74.6504 18.6834L77.0753 11.3283C77.1001 11.2195 77.1525 11.1183 77.2276 11.0338C77.3029 10.9813 77.3951 10.9566 77.4875 10.9643H78.2423C78.4335 10.9643 78.5291 11.0338 78.5291 11.1728C78.5177 11.2437 78.4998 11.3135 78.4756 11.3813L75.5835 19.6724C75.5471 19.7849 75.4861 19.8885 75.4045 19.976C75.3216 20.0346 75.2195 20.0622 75.1172 20.0538H74.0756C73.9732 20.0625 73.8711 20.0349 73.7883 19.976C73.7062 19.8886 73.6449 19.785 73.6083 19.6724L70.7352 11.3813C70.7111 11.3134 70.6932 11.2437 70.6816 11.1728C70.6816 11.0356 70.7764 10.9643 70.969 10.9643L71.7412 10.9643Z" fill="white"/>
<path d="M87.0055 15.6442C86.0837 15.6442 85.446 15.7829 85.0929 16.0603C84.7051 16.4199 84.5096 16.9315 84.5628 17.4481C84.5189 17.9107 84.7018 18.3665 85.0571 18.6796C85.5778 18.9824 86.1853 19.1161 86.7901 19.0614H86.9522C87.5078 19.1138 88.0602 18.9339 88.4695 18.5671C88.8159 18.1088 88.9788 17.5448 88.9277 16.9795V15.7997C88.5683 15.7537 88.2119 15.7162 87.8588 15.6872C87.5056 15.6583 87.2215 15.643 87.0066 15.6415M86.8987 14.4983C87.1382 14.4983 87.4438 14.5098 87.8152 14.5326C88.1867 14.5555 88.5579 14.5902 88.9287 14.6369V13.6131C88.9765 13.1124 88.811 12.6146 88.4703 12.2345C88.0449 11.9132 87.5083 11.7611 86.9705 11.8092C86.5294 11.7852 86.089 11.8654 85.687 12.0429C85.3683 12.2278 85.1241 12.5124 84.9954 12.8495C84.9607 12.9367 84.9129 13.0185 84.8534 13.0923C84.7722 13.1381 84.6774 13.1566 84.5841 13.1449L83.9374 13.1449C83.8276 13.1567 83.717 13.1322 83.6235 13.0754C83.56 13.0034 83.5305 12.9091 83.542 12.8152C83.5471 12.6305 83.5958 12.4495 83.6841 12.2857C83.7795 12.0953 83.9001 11.9175 84.043 11.7571C84.3589 11.4072 84.7601 11.1388 85.2104 10.9761C85.776 10.7873 86.3724 10.6991 86.9705 10.7159C88.1679 10.7159 89.0299 10.9386 89.5569 11.384C90.0839 11.8293 90.3474 12.5609 90.3471 13.5788V17.1349C90.3471 18.1869 90.0779 18.9643 89.5394 19.4669C89.001 19.9696 88.1389 20.221 86.953 20.221H86.6836C85.4623 20.221 84.5611 20.0043 83.9804 19.5708C83.3997 19.1373 83.1094 18.4346 83.1094 17.4628C83.1094 16.434 83.4147 15.6822 84.0253 15.2076C84.6361 14.7329 85.5938 14.4961 86.8987 14.497" fill="white"/>
<path d="M107.155 11.795C105.587 11.795 104.797 12.7953 104.785 14.796H109.418C109.48 14.0022 109.289 13.2091 108.871 12.5234C108.462 12.0177 107.818 11.7443 107.155 11.795ZM104.785 15.9231V16.2528C104.785 18.1608 105.587 19.1146 107.191 19.1143C108.209 19.1143 108.886 18.7385 109.221 17.9867C109.252 17.893 109.304 17.8071 109.374 17.7357C109.455 17.6983 109.544 17.6825 109.634 17.69H110.281C110.39 17.6815 110.501 17.6971 110.604 17.7357C110.652 17.7662 110.676 17.8442 110.675 17.9698C110.658 18.1896 110.591 18.403 110.478 18.5944C110.358 18.8317 110.207 19.0533 110.029 19.2538C109.695 19.5997 109.279 19.8617 108.816 20.017C108.278 20.2068 107.71 20.3008 107.137 20.2945C106.097 20.3588 105.078 19.9857 104.344 19.2712C103.643 18.4565 103.293 17.4133 103.365 16.3566V15.0557C103.365 13.6568 103.688 12.5842 104.334 11.8379C105.045 11.0648 106.086 10.6519 107.154 10.719C109.62 10.719 110.853 12.0431 110.854 14.6912V15.576C110.867 15.6753 110.837 15.7754 110.773 15.8536C110.685 15.9091 110.581 15.9336 110.476 15.9231L104.785 15.9231Z" fill="white"/>
<path d="M132.695 20.0521C132.049 20.1084 131.407 19.9081 130.917 19.4974C130.503 19.0052 130.303 18.377 130.36 17.7452V12.1076H129.192C129.061 12.1076 128.977 12.0843 128.941 12.0386C128.896 11.9529 128.877 11.8566 128.887 11.761V11.3097C128.877 11.2143 128.896 11.1182 128.941 11.0326C128.977 10.9869 129.061 10.9631 129.192 10.9631H130.36V8.75956C130.347 8.66018 130.376 8.56002 130.44 8.48151C130.528 8.42646 130.633 8.40214 130.737 8.41249H131.4C131.504 8.40214 131.609 8.42649 131.696 8.48151C131.761 8.55987 131.79 8.66015 131.777 8.75956V10.9626H133.629C133.76 10.9626 133.844 10.9858 133.881 11.0322C133.925 11.1177 133.944 11.2139 133.934 11.3092V11.7605C133.944 11.8561 133.925 11.9524 133.881 12.0381C133.844 12.0838 133.76 12.1072 133.629 12.1072H131.779V17.5193C131.747 17.8737 131.832 18.2286 132.022 18.5335C132.223 18.7521 132.519 18.865 132.821 18.8372H133.665C133.797 18.8372 133.881 18.8609 133.917 18.9067C133.961 18.9922 133.98 19.0883 133.97 19.1837V19.7064C133.98 19.802 133.961 19.8982 133.917 19.9839C133.881 20.0297 133.797 20.0535 133.665 20.0535L132.695 20.0521Z" fill="white"/>
<path d="M152.327 15.4546H156.673L154.518 9.07124L152.327 15.4546ZM159.654 19.687C159.674 19.737 159.686 19.7896 159.691 19.8429C159.691 19.9816 159.595 20.0512 159.403 20.0515H158.595C158.494 20.0797 158.386 20.0631 158.299 20.0061C158.212 19.9492 158.156 19.8578 158.146 19.757L157.086 16.6691H151.913L150.871 19.757C150.861 19.8579 150.805 19.9492 150.719 20.0061C150.632 20.0631 150.523 20.0797 150.422 20.0515H149.668C149.477 20.0515 149.381 19.982 149.381 19.8429C149.385 19.7896 149.397 19.7371 149.416 19.687L153.53 8.08264C153.56 7.9741 153.615 7.87351 153.691 7.78812C153.777 7.72178 153.887 7.69064 153.997 7.70126L155.146 7.7013C155.257 7.69046 155.368 7.72495 155.451 7.79639C155.523 7.88112 155.578 7.97826 155.612 8.08264L159.654 19.687Z" fill="white"/>
<path d="M167.298 8.84316C167.401 8.85587 167.504 8.82783 167.585 8.76543C167.643 8.68106 167.668 8.58007 167.657 8.47964V8.06812C167.668 7.96751 167.643 7.86641 167.585 7.78186C167.504 7.71958 167.401 7.69156 167.298 7.7041H163.928C163.825 7.69156 163.722 7.71958 163.641 7.78186C163.584 7.86652 163.558 7.96751 163.569 8.06812V8.47964C163.558 8.58004 163.584 8.68094 163.641 8.76543C163.722 8.82783 163.825 8.85587 163.928 8.84316H164.894V18.9098H163.928C163.825 18.8972 163.722 18.9252 163.641 18.9875C163.584 19.0722 163.558 19.1732 163.569 19.2738V19.688C163.558 19.7884 163.583 19.8893 163.641 19.9738C163.721 20.0365 163.825 20.0646 163.928 20.0516H167.298C167.401 20.0645 167.505 20.0364 167.585 19.9738C167.643 19.8895 167.668 19.7885 167.657 19.688V19.2738C167.668 19.1732 167.643 19.0721 167.585 18.9875C167.504 18.9252 167.401 18.8972 167.298 18.9098H166.333V8.84316H167.298Z" fill="white"/>
<path d="M122.979 11.4993C122.357 10.9444 121.525 10.6622 120.68 10.7191C120.126 10.7097 119.577 10.8162 119.07 11.0314C118.613 11.2273 118.214 11.5317 117.912 11.9163V11.309C117.925 11.2098 117.896 11.1094 117.831 11.0315C117.818 11.0209 117.804 11.0119 117.788 11.0049C117.712 10.9675 117.626 10.9506 117.54 10.956H115.359C115.257 10.9434 115.153 10.9715 115.072 11.0338C115.015 11.1185 114.99 11.2195 115.001 11.32V11.7315C114.99 11.8319 115.015 11.9328 115.072 12.0174C115.153 12.0803 115.257 12.1086 115.359 12.0955H116.533V19.7043C116.52 19.8036 116.549 19.9039 116.614 19.9819C116.701 20.0374 116.806 20.062 116.91 20.0514H117.573C117.677 20.0621 117.782 20.0376 117.869 19.9819C117.934 19.9041 117.964 19.8038 117.95 19.7043V14.3796C117.917 13.7295 118.145 13.0923 118.588 12.6013C119.031 12.1483 119.658 11.9043 120.303 11.9332C120.875 11.8823 121.443 12.0684 121.865 12.4453C122.229 12.9092 122.402 13.4869 122.35 14.0668V19.7043C122.337 19.8036 122.366 19.9038 122.431 19.9819C122.519 20.0375 122.623 20.0621 122.728 20.0514H123.39C123.494 20.062 123.599 20.0374 123.686 19.9819C123.751 19.9039 123.781 19.8037 123.768 19.7043V13.7723C123.828 12.9434 123.543 12.1255 122.977 11.4997" fill="white"/>
<path d="M97.6315 19.7042C97.6449 19.8036 97.6155 19.9039 97.5502 19.9817C97.4628 20.0373 97.3583 20.0618 97.2541 20.0512H96.5914C96.4872 20.0619 96.3826 20.0374 96.2951 19.9817C96.2302 19.9037 96.2009 19.8035 96.2141 19.7042V8.04766C96.2008 7.94849 96.2301 7.84838 96.2951 7.77054C96.3826 7.71483 96.4872 7.69013 96.5914 7.70059H97.2542C97.3583 7.69022 97.4628 7.71498 97.5502 7.77054C97.6154 7.84827 97.6449 7.9484 97.6315 8.04766V19.7042Z" fill="white"/>
<path d="M53.8535 11.0315C53.8176 10.9857 53.7338 10.9619 53.6021 10.9619H53.3683C52.814 10.9554 52.2713 11.1152 51.815 11.4192C51.3598 11.7191 51.0018 12.1371 50.782 12.625V11.8202C50.782 11.7946 50.7858 11.7676 50.7858 11.7375V11.3259C50.7966 11.2254 50.7712 11.1242 50.7138 11.0397C50.6328 10.9774 50.5292 10.9493 50.4265 10.9619H48.2426C48.14 10.9493 48.0365 10.9774 47.9557 11.0397C47.8983 11.1243 47.8727 11.2253 47.8832 11.3259V11.7375C47.8725 11.8379 47.8981 11.9389 47.9557 12.0232C48.0364 12.0856 48.14 12.1137 48.2426 12.101H49.4001V19.7016C49.3864 19.8008 49.4155 19.9012 49.4806 19.9791C49.5681 20.0348 49.6728 20.0593 49.7769 20.0486H50.4397C50.5438 20.0593 50.6484 20.0347 50.7356 19.9791C50.8009 19.9013 50.8304 19.801 50.817 19.7016V15.2785C50.8133 14.8769 50.8676 14.4767 50.9785 14.0896C51.0754 13.7477 51.2334 13.4247 51.4453 13.1353C51.636 12.8747 51.8847 12.6585 52.173 12.5024C52.4676 12.3488 52.7982 12.271 53.1331 12.2765H53.6003C53.732 12.2765 53.8161 12.2537 53.8516 12.2071C53.8965 12.1215 53.9151 12.0254 53.9052 11.93V11.3053C53.915 11.2098 53.8965 11.1135 53.8517 11.0278" fill="white"/>
</svg>
