<svg width="20" height="20" viewBox="0 0 20 20" fill="none" xmlns="http://www.w3.org/2000/svg">
<rect x="0.333333" y="0.333333" width="19.3333" height="19.3333" rx="9.66667" fill="#89A833" fill-opacity="0.3"/>
<rect x="0.333333" y="0.333333" width="19.3333" height="19.3333" rx="9.66667" stroke="#89A833" stroke-width="0.666667"/>
<path d="M10.8521 12.2607C11.0515 12.2609 11.2134 12.4227 11.2134 12.6221C11.2132 12.8213 11.0513 12.9832 10.8521 12.9834C10.6526 12.9834 10.4909 12.8214 10.4907 12.6221C10.4907 12.4226 10.6525 12.2607 10.8521 12.2607Z" fill="#89A833" stroke="#89A833" stroke-width="0.333333"/>
<path d="M10.8521 6.98096C11.0515 6.98114 11.2134 7.14289 11.2134 7.34229C11.2132 7.5415 11.0513 7.70343 10.8521 7.70361C10.6526 7.70361 10.4909 7.54161 10.4907 7.34229C10.4907 7.14278 10.6525 6.98096 10.8521 6.98096Z" fill="#89A833" stroke="#89A833" stroke-width="0.333333"/>
<path d="M6.36368 10.5095C6.65527 10.5095 6.89166 10.2731 6.89166 9.98154C6.89166 9.68998 6.65527 9.45361 6.36368 9.45361C6.07208 9.45361 5.83569 9.68998 5.83569 9.98154C5.83569 10.2731 6.07208 10.5095 6.36368 10.5095Z" fill="#89A833"/>
<path d="M11.4229 9.63933C11.4229 10.1204 11.813 10.5104 12.2941 10.5104C12.7752 10.5104 13.1653 10.1204 13.1653 9.63933C13.1653 9.15824 12.7752 8.76824 12.2941 8.76824C11.813 8.76824 11.4229 9.15824 11.4229 9.63933ZM11.4229 9.63933H10.0859M10.0859 9.63933C10.0859 10.1204 9.69591 10.5104 9.21477 10.5104C9.00221 10.5104 8.80743 10.4343 8.6562 10.3078M10.0859 9.63933C10.0859 9.15824 9.69591 8.76824 9.21477 8.76824C9.00221 8.76824 8.80743 8.84436 8.6562 8.97083M8.6562 8.97083C8.46513 9.13062 8.3436 9.37078 8.3436 9.63933C8.3436 9.90787 8.46513 10.148 8.6562 10.3078M8.6562 8.97083L7.69076 7.76388M7.69076 7.76388C7.88602 7.60413 8.01065 7.36129 8.01065 7.08935C8.01065 6.60826 7.62062 6.21826 7.13948 6.21826C6.65835 6.21826 6.26831 6.60826 6.26831 7.08935C6.26831 7.57043 6.65835 7.96043 7.13948 7.96043C7.34864 7.96043 7.54059 7.88673 7.69076 7.76388ZM7.69076 11.5686C7.54061 11.4458 7.34871 11.3721 7.13961 11.3721C6.65847 11.3721 6.26843 11.7621 6.26843 12.2432C6.26843 12.7243 6.65847 13.1143 7.13961 13.1143C7.62074 13.1143 8.01078 12.7243 8.01078 12.2432C8.01078 11.9712 7.88609 11.7283 7.69076 11.5686ZM7.69076 11.5686L8.6562 10.3078" stroke="#89A833" stroke-width="0.666667" stroke-linecap="round" stroke-linejoin="round"/>
</svg>
