<svg width="16" height="16" viewBox="0 0 16 16" fill="none" xmlns="http://www.w3.org/2000/svg">
<g clip-path="url(#clip0_2576_754)">
<path d="M8.72437 11.1442C8.08057 10.4882 7.03914 10.4859 6.39807 11.1392C5.75699 11.7924 5.75922 12.8537 6.40302 13.5097C7.04657 14.1655 8.088 14.1678 8.72907 13.5145C9.02613 13.2118 9.10653 12.8537 9.10653 12.8537L13.6481 12.8595C13.7742 12.8598 14.0265 12.7831 14.026 12.4744L14.0253 12.1439C14.0162 12.0243 13.9326 11.7853 13.6729 11.7848L13.352 11.784C13.351 11.3981 13.0261 11.2871 12.837 11.3144C12.5124 11.3685 12.4861 11.7271 12.4861 11.7271H12.105C11.951 11.0006 11.4047 11.1167 11.2154 11.1442C10.8177 11.2021 10.7245 11.7271 10.7245 11.7271C10.6704 11.8925 9.69916 11.8078 9.42891 11.807L9.10431 11.8065C9.08217 11.5635 8.84191 11.264 8.72437 11.1442Z" fill="#101010"/>
<path d="M10.988 10.1352C10.1956 9.31736 9.12088 8.85791 8.00025 8.85791C6.87962 8.85791 5.80488 9.31736 5.01248 10.1352C4.22007 10.953 3.7749 12.0622 3.7749 13.2188H4.65129" stroke="#101010" stroke-linecap="round" stroke-linejoin="round"/>
<path d="M8.00052 7.09967C9.20353 7.09967 10.1788 6.12443 10.1788 4.92141C10.1788 3.7184 9.20353 2.74316 8.00052 2.74316C6.7975 2.74316 5.82227 3.7184 5.82227 4.92141C5.82227 6.12443 6.7975 7.09967 8.00052 7.09967Z" stroke="#101010" stroke-linecap="round" stroke-linejoin="round"/>
</g>
<defs>
<clipPath id="clip0_2576_754">
<rect width="16" height="16" fill="white"/>
</clipPath>
</defs>
</svg>
