<svg width="16" height="16" viewBox="0 0 16 16" fill="none" xmlns="http://www.w3.org/2000/svg">
<path d="M4.22172 11.1274C4.22172 11.1274 2.51758 11.1471 2.51758 9.09816C2.51758 7.79508 4.21931 7.19237 4.21931 7.19237C4.21931 7.19237 4.27512 4.65315 6.44266 4.00018C9.53732 3.06791 10.5188 5.99534 10.5188 5.99534C10.5188 5.99534 11.5306 6.02935 12.3719 6.74109C12.9708 7.24767 13.4833 7.82078 13.4833 8.93424" stroke="#101010" stroke-linecap="round"/>
<path d="M8.02789 9.65721C7.4493 9.07862 6.51336 9.07661 5.93722 9.65276C5.36108 10.2289 5.36308 11.1648 5.94167 11.7434C6.52004 12.3218 7.45598 12.3238 8.03212 11.7477C8.29908 11.4807 8.37135 11.1649 8.37135 11.1649L12.4529 11.17C12.5662 11.1702 12.793 11.1026 12.7925 10.8303L12.7919 10.5388C12.7837 10.4334 12.7085 10.2226 12.4752 10.2221L12.1868 10.2215C12.1859 9.88112 11.8939 9.78321 11.724 9.8073C11.4323 9.85503 11.4086 10.1713 11.4086 10.1713L11.0661 10.1713C10.9277 9.53057 10.4367 9.6329 10.2666 9.65721C9.9092 9.70826 9.82545 10.1713 9.82545 10.1713C9.77683 10.3171 8.90395 10.2424 8.66107 10.2418L8.36934 10.2413C8.34945 10.0269 8.13353 9.76285 8.02789 9.65721Z" fill="#101010"/>
</svg>
