<svg width="16" height="16" viewBox="0 0 16 16" fill="none" xmlns="http://www.w3.org/2000/svg">
<path d="M8.78662 10.5966C8.78662 10.5966 9.57339 11.3047 11.1472 11.3047C12.7209 11.3047 13.5077 10.5966 13.5077 10.5966M8.78662 9.18027C8.78662 9.18027 9.57339 9.88843 11.1472 9.88843C12.7209 9.88843 13.5077 9.18027 13.5077 9.18027M8.78662 8.72634C8.78662 8.72634 9.18012 8 11.1472 8C13.1142 8 13.5077 8.72634 13.5077 8.72634V11.9947C13.5077 11.9947 13.1142 12.7211 11.1472 12.7211C9.18012 12.7211 8.78662 11.9947 8.78662 11.9947V8.72634Z" stroke="#101010"/>
<path d="M12.7214 6.42618C11.848 5.66012 10.7978 5.62352 10.7978 5.62352C10.7978 5.62352 9.77903 2.47266 6.56673 3.47608C4.31679 4.17889 4.25886 6.9119 4.25886 6.9119C4.25886 6.9119 2.49243 7.56061 2.49243 8.96314C2.49243 11.1685 4.26135 11.1472 4.26135 11.1472H6.66606" stroke="#101010" stroke-linecap="round"/>
</svg>
