<svg width="16" height="16" viewBox="0 0 16 16" fill="none" xmlns="http://www.w3.org/2000/svg">
<path d="M7.99098 10.2921H5.05728C3.64506 10.2899 2.50024 9.20865 2.50024 7.87468C2.50024 6.54071 3.64506 5.45996 5.05728 5.45996C5.27307 4.51067 6.04232 3.73593 7.07513 3.42723C8.10738 3.11906 9.24726 3.32324 10.0643 3.96598C10.8813 4.60711 11.2514 5.58603 11.0361 6.53533H11.5797C12.1046 6.53533 12.5801 6.74544 12.9244 7.08486M11.835 11.9062C11.5438 11.9062 11.2645 11.7927 11.0585 11.5906C10.8526 11.3885 10.7369 11.1145 10.7369 10.8287C10.7369 10.5429 10.8526 10.2689 11.0585 10.0668C11.2645 9.8647 11.5438 9.75118 11.835 9.75118M11.835 11.9062C12.1263 11.9062 12.4056 11.7927 12.6116 11.5906C12.8175 11.3885 12.9332 11.1145 12.9332 10.8287C12.9332 10.5429 12.8175 10.2689 12.6116 10.0668C12.4056 9.8647 12.1263 9.75118 11.835 9.75118M11.835 11.9062V12.7144M11.835 9.75118V8.94304M13.4993 9.88587L12.786 10.2899M10.8846 11.3675L10.1708 11.7715M10.1708 9.88587L10.8846 10.2899M12.786 11.3675L13.4998 11.7715" stroke="#101010" stroke-linecap="round" stroke-linejoin="round"/>
</svg>
