<svg width="16" height="16" viewBox="0 0 16 16" fill="none" xmlns="http://www.w3.org/2000/svg">
<path d="M7.58667 8.77152L9.78692 10.2384M7.58667 8.77152L9.78692 7.30469L11.9872 8.77152M7.58667 8.77152V11.3385L9.78692 12.8053M9.78692 10.2384L11.9872 8.77152M9.78692 10.2384V12.8053M11.9872 8.77152V11.3385L9.78692 12.8053" stroke="#101010" stroke-linecap="round" stroke-linejoin="round"/>
<path d="M13.6162 8.43611C13.6162 7.29558 13.0912 6.70853 12.4778 6.18964C11.6159 5.46059 10.5796 5.42575 10.5796 5.42575C10.5796 5.42575 9.57422 2.42714 6.40431 3.38208C4.18406 4.05093 4.1269 6.65189 4.1269 6.65189C4.1269 6.65189 2.38379 7.26925 2.38379 8.60402C2.38379 10.7028 4.12937 10.6826 4.12937 10.6826L6.12792 10.6826" stroke="#101010" stroke-linecap="round"/>
</svg>
