<svg width="16" height="16" viewBox="0 0 16 16" fill="none" xmlns="http://www.w3.org/2000/svg">
<path d="M9.71049 6.43928H11.1222M9.71049 8.81577H11.1222M4.00828 11.854H3.59619C2.98808 11.854 2.49512 11.361 2.49512 10.7529V5.24756C2.49512 4.63945 2.98808 4.14648 3.59619 4.14648H12.4048C13.0129 4.14648 13.5059 4.63945 13.5059 5.24756V10.7529C13.5059 11.361 13.0129 11.854 12.4048 11.854H8.09336M4.00828 11.854C3.91508 10.835 4.51772 9.63279 6.01025 9.60794C7.50277 9.58308 8.09336 11.0059 8.09336 11.854M4.00828 11.854H8.09336M7.11132 6.81206C7.11132 7.42017 6.61835 7.91314 6.01025 7.91314C5.40214 7.91314 4.90917 7.42017 4.90917 6.81206C4.90917 6.20396 5.40214 5.71099 6.01025 5.71099C6.61835 5.71099 7.11132 6.20396 7.11132 6.81206Z" stroke="#101010" stroke-linecap="round" stroke-linejoin="round"/>
</svg>
