<svg width="16" height="16" viewBox="0 0 16 16" fill="none" xmlns="http://www.w3.org/2000/svg">
<path d="M2.46704 2.52393H2.9318C3.48409 2.52393 3.9318 2.97164 3.9318 3.52393V4.50932M3.9318 13.4759V11.2953M3.9318 11.2953H4.97528C5.22514 11.2953 5.46595 11.2017 5.6503 11.0331L5.84197 10.8577C6.02632 10.6891 6.26712 10.5955 6.51698 10.5955H7.12937C7.37561 10.5955 7.6132 10.6864 7.79662 10.8507L8.00806 11.0401C8.19147 11.2044 8.42906 11.2953 8.67531 11.2953H12.5329C13.0852 11.2953 13.5329 10.8476 13.5329 10.2953V5.50932C13.5329 4.95704 13.0852 4.50932 12.5329 4.50932H3.9318M3.9318 11.2953V4.50932" stroke="#101010" stroke-linecap="round"/>
<path d="M8.83946 8.99033C8.83946 9.34516 8.55181 9.63281 8.19698 9.63281C7.84215 9.63281 7.5545 9.34516 7.5545 8.99033C7.5545 8.6355 7.84215 8.34785 8.19698 8.34785C8.55181 8.34785 8.83946 8.6355 8.83946 8.99033ZM8.83946 8.99033H10.5091V7.65953M9.71579 7.01287V7.46065C9.71579 7.57049 9.80483 7.65953 9.91467 7.65953H10.5091M9.71579 7.01287V6.56509C9.71579 6.45525 9.80483 6.36621 9.91467 6.36621H10.886C10.9958 6.36621 11.0849 6.45525 11.0849 6.56509V7.46065C11.0849 7.57049 10.9958 7.65953 10.886 7.65953H10.5091M9.71579 7.01287H7.55087M7.55087 7.01287C7.51661 6.69032 7.24365 6.43904 6.91201 6.43904C6.55718 6.43904 6.26953 6.72669 6.26953 7.08153C6.26953 7.43636 6.55718 7.72401 6.91201 7.72401C7.26685 7.72401 7.5545 7.43636 7.5545 7.08153C7.5545 7.05833 7.55327 7.03543 7.55087 7.01287Z" stroke="#101010" stroke-width="0.7" stroke-linejoin="round"/>
</svg>
