<svg width="16" height="16" viewBox="0 0 16 16" fill="none" xmlns="http://www.w3.org/2000/svg">
<path d="M4.62767 5.04977C5.32597 5.04977 5.89205 4.48368 5.89205 3.78538C5.89205 3.08708 5.32597 2.521 4.62767 2.521C3.92937 2.521 3.36328 3.08708 3.36328 3.78538C3.36328 4.48368 3.92937 5.04977 4.62767 5.04977Z" stroke="#101010" stroke-linecap="round" stroke-linejoin="round"/>
<path d="M7.99974 13.479C8.69804 13.479 9.26412 12.9129 9.26412 12.2146C9.26412 11.5163 8.69804 10.9502 7.99974 10.9502C7.30144 10.9502 6.73535 11.5163 6.73535 12.2146C6.73535 12.9129 7.30144 13.479 7.99974 13.479Z" stroke="#101010" stroke-linecap="round" stroke-linejoin="round"/>
<path d="M7.99927 8V10.9502" stroke="#101010" stroke-linecap="round" stroke-linejoin="round"/>
<path d="M11.3708 5.04977C12.0691 5.04977 12.6352 4.48368 12.6352 3.78538C12.6352 3.08708 12.0691 2.521 11.3708 2.521C10.6725 2.521 10.1064 3.08708 10.1064 3.78538C10.1064 4.48368 10.6725 5.04977 11.3708 5.04977Z" stroke="#101010" stroke-linecap="round" stroke-linejoin="round"/>
<path d="M4.6272 5.0498C4.6272 7.01671 6.44264 8.00004 7.99889 8.00004C9.55514 8.00004 11.3706 7.01671 11.3706 5.0498" stroke="#101010" stroke-linecap="round" stroke-linejoin="round"/>
</svg>
