<svg width="16" height="16" viewBox="0 0 16 16" fill="none" xmlns="http://www.w3.org/2000/svg">
<path d="M9.52366 12.7249C9.96106 12.7249 10.3156 12.3704 10.3156 11.933C10.3156 11.4957 9.96106 11.1411 9.52366 11.1411C9.08627 11.1411 8.73169 11.4957 8.73169 11.933C8.73169 12.3704 9.08627 12.7249 9.52366 12.7249Z" fill="#101010"/>
<path d="M9.52366 4.80547C9.96106 4.80547 10.3156 4.45093 10.3156 4.01358C10.3156 3.57622 9.96106 3.22168 9.52366 3.22168C9.08627 3.22168 8.73169 3.57622 8.73169 4.01358C8.73169 4.45093 9.08627 4.80547 9.52366 4.80547Z" fill="#101010"/>
<path d="M2.79197 8.76543C3.22937 8.76543 3.58395 8.41089 3.58395 7.97354C3.58395 7.53618 3.22937 7.18164 2.79197 7.18164C2.35458 7.18164 2 7.53618 2 7.97354C2 8.41089 2.35458 8.76543 2.79197 8.76543Z" fill="#101010"/>
<path d="M10.8808 7.95972C10.8808 8.68135 11.4659 9.26635 12.1876 9.26635C12.9093 9.26635 13.4944 8.68135 13.4944 7.95972C13.4944 7.23809 12.9093 6.65309 12.1876 6.65309C11.4659 6.65309 10.8808 7.23809 10.8808 7.95972ZM10.8808 7.95972H8.87538M8.87538 7.95972C8.87538 8.68135 8.29032 9.26635 7.56862 9.26635C7.24977 9.26635 6.9576 9.15217 6.73076 8.96247M8.87538 7.95972C8.87538 7.23809 8.29032 6.65309 7.56862 6.65309C7.24977 6.65309 6.9576 6.76727 6.73076 6.95697M6.73076 6.95697C6.44416 7.19666 6.26186 7.5569 6.26186 7.95972C6.26186 8.36254 6.44416 8.72278 6.73076 8.96247M6.73076 6.95697L5.2826 5.14655M5.2826 5.14655C5.57549 4.90693 5.76244 4.54267 5.76244 4.13475C5.76244 3.41312 5.17738 2.82812 4.45568 2.82812C3.73398 2.82812 3.14893 3.41312 3.14893 4.13475C3.14893 4.85638 3.73398 5.44138 4.45568 5.44138C4.76942 5.44138 5.05734 5.33083 5.2826 5.14655ZM5.2826 10.8536C5.05737 10.6694 4.76952 10.5589 4.45587 10.5589C3.73417 10.5589 3.14911 11.1439 3.14911 11.8656C3.14911 12.5872 3.73417 13.1722 4.45587 13.1722C5.17757 13.1722 5.76263 12.5872 5.76263 11.8656C5.76263 11.4576 5.5756 11.0932 5.2826 10.8536ZM5.2826 10.8536L6.73076 8.96247" stroke="#101010" stroke-linecap="round" stroke-linejoin="round"/>
</svg>
