<svg width="15" height="15" viewBox="0 0 15 15" fill="none" xmlns="http://www.w3.org/2000/svg">
<path fill-rule="evenodd" clip-rule="evenodd" d="M4.95351 7.49683L4.34528 11.2097L2.75085 11.5807L2.22192 11.3111V7.49683H4.95351Z" fill="#9D5025"/>
<path fill-rule="evenodd" clip-rule="evenodd" d="M12.7814 6.18888L7.50018 6.57092L2.21899 6.18888L7.50018 1L12.7814 6.18888Z" fill="#6B3B19"/>
<path fill-rule="evenodd" clip-rule="evenodd" d="M8.55167 7.49683H2.75098V11.5807L8.55167 10.2284V7.49683Z" fill="#F58534"/>
<path fill-rule="evenodd" clip-rule="evenodd" d="M5.65194 7.49683L5.84174 11.6727L3.98439 12.2086L3.33569 11.8789V7.49683H5.65194Z" fill="#9D5025"/>
<path fill-rule="evenodd" clip-rule="evenodd" d="M10.2894 7.49683H3.98462V12.2085L10.2894 10.3852V7.49683Z" fill="#F58534"/>
<path fill-rule="evenodd" clip-rule="evenodd" d="M6.97299 7.49683V12.4542L5.52481 12.9932L4.70972 12.5778V7.49683H6.97315H6.97299Z" fill="#9D5025"/>
<path fill-rule="evenodd" clip-rule="evenodd" d="M11.663 7.49683H5.52466V12.9932L11.663 10.7055V7.49683Z" fill="#F58534"/>
<path fill-rule="evenodd" clip-rule="evenodd" d="M6.44702 13.4641V7.49683H10.4448L12.3628 11.5221L7.49855 14L6.44702 13.4641Z" fill="#9D5025"/>
<path fill-rule="evenodd" clip-rule="evenodd" d="M7.49854 14V7.49683H12.7797V11.3097L7.49854 14ZM12.7813 6.18888L7.50016 5.26313V1L12.7813 3.69032V6.18888Z" fill="#F58534"/>
<path fill-rule="evenodd" clip-rule="evenodd" d="M2.21899 6.18888L7.50018 5.26313V1L2.21899 3.69032V6.18888Z" fill="#9D5025"/>
</svg>
