<svg width="15" height="15" viewBox="0 0 15 15" fill="none" xmlns="http://www.w3.org/2000/svg">
<path fill-rule="evenodd" clip-rule="evenodd" d="M9.9049 8.22778L11.7437 8.6922V11.9914L9.9049 11.5317L8.22678 9.5991L9.9049 8.22778ZM1.8125 11.3081L3.25613 11.9914L5.27419 8.5115H1.8125V11.3081Z" fill="#4B612C"/>
<path fill-rule="evenodd" clip-rule="evenodd" d="M7.50018 14L5.09521 12.8617V8.92048L8.93033 8.51147L7.50018 14Z" fill="#4B612C"/>
<path fill-rule="evenodd" clip-rule="evenodd" d="M1.8125 8.51124L7.49993 9.22461L13.1874 8.51124L7.49993 8.21484L1.8125 8.51124Z" fill="#B7CA9D"/>
<path fill-rule="evenodd" clip-rule="evenodd" d="M9.90483 5.35815L7.49986 7.93586L5.09326 5.35815L7.49986 1.87988L9.90483 5.35815Z" fill="#3C4929"/>
<path fill-rule="evenodd" clip-rule="evenodd" d="M7.50041 8.70951L9.90538 8.92043L11.267 7.14011L9.90538 5.35815L7.50041 5.67681L5.94287 7.14011L7.50041 8.70951Z" fill="#4B612C"/>
<path fill-rule="evenodd" clip-rule="evenodd" d="M3.25635 8.69213L4.17576 10.4788L5.09517 8.92352L6.75655 7.13994L5.09517 5.35815L3.25635 5.70541V8.69213Z" fill="#4B612C"/>
<path fill-rule="evenodd" clip-rule="evenodd" d="M5.09375 2.1383L7.50034 1L9.52686 3.46054L7.50034 4.9032L5.09375 5.3582V2.1383Z" fill="#4B612C"/>
<path fill-rule="evenodd" clip-rule="evenodd" d="M5.09517 8.92356L3.25635 8.69217V11.9914L5.09517 11.5315V8.92356ZM7.50014 8.70955L5.09517 8.92048V5.3582L7.50014 5.67685V8.70955ZM13.1876 11.3079L11.7439 11.9912V8.692L13.1876 8.51131V11.3079ZM7.50014 14L9.90511 12.8617V8.92048L7.50014 9.22175V14ZM9.90511 5.3582L7.50014 4.9032V1L9.90511 2.1383V5.3582Z" fill="#759C3E"/>
<path fill-rule="evenodd" clip-rule="evenodd" d="M11.7441 8.69213L9.90527 8.92368V5.35815L11.7441 5.70541V8.69213Z" fill="#759C3E"/>
</svg>
