<svg width="15" height="15" viewBox="0 0 15 15" fill="none" xmlns="http://www.w3.org/2000/svg">
<path fill-rule="evenodd" clip-rule="evenodd" d="M1.69582 1.86865L1 2.23948V12.7607L1.69582 13.1315L4.43736 7.7193L1.69582 1.86865ZM3.81418 3.76763L4.8389 2.21283L9.43099 4.40073L8.36044 4.58305L3.81434 3.76779L3.81418 3.76763ZM3.0189 11.3452L4.14681 13.0066L9.43099 10.5627L8.41 10.3926L3.0189 11.3452Z" fill="#9D5025"/>
<path fill-rule="evenodd" clip-rule="evenodd" d="M3.3169 12.7238L1.6958 13.1315V1.86865L3.3169 2.26401V12.7238Z" fill="#F58536"/>
<path fill-rule="evenodd" clip-rule="evenodd" d="M2.46436 1.45679L3.31699 1L4.92282 8.2293L3.31699 14L2.46436 13.5432V1.45679ZM8.35254 10.3844L9.43073 10.5626L10.4173 7.61895L9.43073 4.40064L8.35254 4.58296V10.3844Z" fill="#9D5025"/>
<path fill-rule="evenodd" clip-rule="evenodd" d="M4.97659 13.4982L3.31714 14V1L4.97659 1.50391V13.4982Z" fill="#F58536"/>
<path fill-rule="evenodd" clip-rule="evenodd" d="M10.5609 10.3351L3.3173 11.7773V14L10.5611 11.808V10.3351H10.5609ZM10.5742 4.63204L3.31714 3.15507V1L10.5742 3.20626V4.63204Z" fill="#F58536"/>
<path fill-rule="evenodd" clip-rule="evenodd" d="M9.43091 2.85815L10.5952 3.20233V11.8082L9.43091 12.1502V2.85815Z" fill="#F58536"/>
<path fill-rule="evenodd" clip-rule="evenodd" d="M14.0001 6.36303L10.8838 6.52082L9.78271 6.44087L12.9333 3.72046L14.0001 6.36303Z" fill="#6B3A19"/>
<path fill-rule="evenodd" clip-rule="evenodd" d="M9.78271 6.44087L12.9333 6.25042V3.72046L9.78271 4.26743V6.44087Z" fill="#9D5025"/>
<path fill-rule="evenodd" clip-rule="evenodd" d="M6.81755 6.22804L10.0102 2.78027L11.6332 6.1112L8.32392 6.33659L6.81755 6.22804Z" fill="#6B3A19"/>
<path fill-rule="evenodd" clip-rule="evenodd" d="M6.81738 6.22804L10.01 5.93716V2.78027L6.81738 3.58124V6.22804ZM9.78252 8.60427L13.9999 8.68211L12.9331 11.3247L9.78252 10.7777V8.60427Z" fill="#9D5025"/>
<path fill-rule="evenodd" clip-rule="evenodd" d="M6.81738 8.81714L11.6331 8.93593L10.01 12.2647L6.81738 11.4659V8.81714Z" fill="#9D5025"/>
<path fill-rule="evenodd" clip-rule="evenodd" d="M6.81755 8.81724L10.0102 9.11023L11.6332 8.93603L8.32392 8.70869L6.81755 8.81724ZM14 8.68204L10.8838 8.52637L9.78268 8.6042L12.9332 8.79677L14 8.68204Z" fill="#FBBF93"/>
<path fill-rule="evenodd" clip-rule="evenodd" d="M12.9333 6.25046L14.0001 6.36307V4.06256L12.9333 3.7205V6.25046ZM11.6333 6.1112L10.0103 5.937V2.78027L11.6333 3.30271V6.1112ZM12.9333 8.79684L14.0001 8.68211V10.9826L12.9333 11.3247V8.79684ZM11.6333 8.9361L10.0103 9.1103V12.2651L11.6333 11.7447V8.9361Z" fill="#F58536"/>
</svg>
