<svg width="15" height="15" viewBox="0 0 15 15" fill="none" xmlns="http://www.w3.org/2000/svg">
<g clip-path="url(#clip0_3785_1900)">
<path d="M15 0H0V15H15V0Z" fill="url(#paint0_linear_3785_1900)"/>
<path fill-rule="evenodd" clip-rule="evenodd" d="M4.6875 9.93676H5.4375V9.56139H4.6875V9.93676ZM11.2446 7.15564C11.2024 6.58621 10.9239 6.16692 10.4816 6.01883C10.1256 5.90003 9.73331 5.98392 9.43463 6.22735C9.2535 5.87019 8.98125 5.52034 8.75663 5.29869C7.95113 4.50365 7.06275 4.30095 6.1155 4.69603C5.26988 5.04794 4.5 6.20389 4.5 7.12148V7.15714C3.99244 7.32869 3.58294 7.70143 3.38887 8.17665L3.73613 8.31854C3.98344 7.71288 4.56225 7.52294 4.73381 7.47921C4.81687 7.458 4.875 7.38312 4.875 7.29734V7.12148C4.875 6.36305 5.56069 5.33341 6.25969 5.0425C7.065 4.70673 7.79588 4.87715 8.49337 5.56595C8.79 5.85855 9.08006 6.29267 9.19875 6.62205C9.222 6.68699 9.279 6.73373 9.34725 6.74405C9.41475 6.75437 9.48319 6.72641 9.52481 6.67123C9.732 6.39571 10.068 6.27634 10.3629 6.37487C10.6883 6.48392 10.875 6.82438 10.875 7.30917C10.875 7.40095 10.9414 7.47921 11.0317 7.49423C11.1692 7.51712 12.375 7.75342 12.375 8.99833C12.375 10.2877 11.1152 10.3118 11.0625 10.3121H6.75V10.6875H11.0629C11.6464 10.6864 12.75 10.332 12.75 8.99833C12.75 7.8345 11.8648 7.31048 11.2446 7.15564ZM5.8125 9.93676H8.4375V9.56139H5.8125V9.93676ZM5.0625 10.6875H6.1875V10.3121H5.0625V10.6875ZM2.25 10.6875H2.8125V10.3121H2.25V10.6875ZM2.8125 9.18602H4.5V8.81065H2.8125V9.18602ZM2.4375 9.93676H4.3125V9.56139H2.4375V9.93676ZM5.0625 9.18602H6.375V8.81065H5.0625V9.18602ZM3.1875 10.6875H4.6875V10.3121H3.1875V10.6875Z" fill="white"/>
</g>
<defs>
<linearGradient id="paint0_linear_3785_1900" x1="0" y1="1500" x2="1500" y2="0" gradientUnits="userSpaceOnUse">
<stop stop-color="#B0084D"/>
<stop offset="1" stop-color="#FF4F8B"/>
</linearGradient>
<clipPath id="clip0_3785_1900">
<rect width="15" height="15" fill="white"/>
</clipPath>
</defs>
</svg>
