<svg width="15" height="15" viewBox="0 0 15 15" fill="none" xmlns="http://www.w3.org/2000/svg">
<path fill-rule="evenodd" clip-rule="evenodd" d="M2.38304 3.4209L1.8125 3.69097V11.309L2.38304 11.579L4.692 7.69741L2.38304 3.4209Z" fill="#9D5025"/>
<path fill-rule="evenodd" clip-rule="evenodd" d="M3.71279 11.2838L2.38306 11.579V3.4209L3.71279 3.70836V11.2838Z" fill="#F58536"/>
<path fill-rule="evenodd" clip-rule="evenodd" d="M3.01196 3.12227L3.71266 2.79224L7.04115 7.84257L3.71266 12.2075L3.01196 11.8774V3.12227Z" fill="#9D5025"/>
<path fill-rule="evenodd" clip-rule="evenodd" d="M5.37096 11.7637L3.71265 12.2075V2.79224L5.37096 3.23749V11.7637Z" fill="#F58536"/>
<path fill-rule="evenodd" clip-rule="evenodd" d="M4.49365 2.42121L5.37115 2.00586L10.2813 8.39536L5.37115 12.9939L4.49365 12.5786V2.42121Z" fill="#9D5025"/>
<path fill-rule="evenodd" clip-rule="evenodd" d="M7.49822 12.2581L5.37109 12.9941V2.00586L7.49822 2.74328V12.2581Z" fill="#F58536"/>
<path fill-rule="evenodd" clip-rule="evenodd" d="M6.36377 1.5369L7.49834 1L12.8105 7.8679L7.49834 14L6.36377 13.4631V1.5369Z" fill="#9D5025"/>
<path fill-rule="evenodd" clip-rule="evenodd" d="M13.1874 11.3075L7.49829 14V1L13.1874 3.69262V11.3075Z" fill="#F58536"/>
</svg>
