<svg width="15" height="15" viewBox="0 0 15 15" fill="none" xmlns="http://www.w3.org/2000/svg">
<g clip-path="url(#clip0_3804_1458)">
<path d="M15 0H0V15H15V0Z" fill="url(#paint0_linear_3804_1458)"/>
<path fill-rule="evenodd" clip-rule="evenodd" d="M8.28187 7.73344C8.28187 7.76569 8.27287 8.45325 7.71937 8.58206V6.52238L8.28187 6.76612V7.73344ZM6.78187 7.73044V6.76612L7.34437 6.52238V8.58262C6.80531 8.45887 6.78244 7.81106 6.78187 7.73044ZM8.54381 6.471L7.60631 6.06469C7.55888 6.04406 7.50487 6.04406 7.45744 6.06469L6.51994 6.471C6.45112 6.50063 6.40687 6.56831 6.40687 6.64313V7.73044C6.40687 8.16262 6.642 8.97975 7.53187 8.97975C8.42175 8.97975 8.65687 8.1645 8.65687 7.73344V6.64313C8.65687 6.56831 8.61263 6.50063 8.54381 6.471ZM11.0606 10.1576C10.7274 10.1576 10.4565 9.88669 10.4565 9.5535C10.4565 9.22031 10.7274 8.94919 11.0606 8.94919C11.394 8.94919 11.6649 9.22031 11.6649 9.5535C11.6649 9.88669 11.394 10.1576 11.0606 10.1576ZM7.55006 9.366C6.51375 9.366 5.67075 8.523 5.67075 7.48688C5.67075 6.45056 6.51375 5.60756 7.55006 5.60756C8.58619 5.60756 9.42919 6.45056 9.42919 7.48688C9.42919 8.523 8.58619 9.366 7.55006 9.366ZM8.15775 11.5892C8.15775 11.9224 7.88681 12.1935 7.55344 12.1935C7.22025 12.1935 6.94931 11.9224 6.94931 11.5892C6.94931 11.2562 7.22025 10.9851 7.55344 10.9851C7.88681 10.9851 8.15775 11.2562 8.15775 11.5892ZM6.96094 3.22913C6.96094 2.89594 7.23187 2.625 7.56525 2.625C7.89825 2.625 8.16919 2.89594 8.16919 3.22913C8.16919 3.56231 7.89825 3.83344 7.56525 3.83344C7.23187 3.83344 6.96094 3.56231 6.96094 3.22913ZM3.97931 9.92925C3.64594 9.92925 3.375 9.65831 3.375 9.32513C3.375 8.99194 3.64594 8.721 3.97931 8.721C4.31231 8.721 4.58325 8.99194 4.58325 9.32513C4.58325 9.65831 4.31231 9.92925 3.97931 9.92925ZM4.185 5.97563C3.85181 5.97563 3.58087 5.70469 3.58087 5.3715C3.58087 5.03831 3.85181 4.76719 4.185 4.76719C4.51819 4.76719 4.78912 5.03831 4.78912 5.3715C4.78912 5.70469 4.51819 5.97563 4.185 5.97563ZM11.0844 4.61869C11.4178 4.61869 11.6888 4.88962 11.6888 5.22281C11.6888 5.556 11.4178 5.82712 11.0844 5.82712C10.7514 5.82712 10.4805 5.556 10.4805 5.22281C10.4805 4.88962 10.7514 4.61869 11.0844 4.61869ZM11.0606 8.57419C10.7897 8.57419 10.5441 8.68519 10.3667 8.86369L9.62306 8.37094C9.73931 8.09925 9.80419 7.80056 9.80419 7.48688C9.80419 7.07644 9.69206 6.69263 9.49988 6.36094L10.3507 5.86425C10.5304 6.06956 10.791 6.20212 11.0844 6.20212C11.6244 6.20212 12.0637 5.76281 12.0637 5.22281C12.0637 4.68281 11.6244 4.24369 11.0844 4.24369C10.5446 4.24369 10.1055 4.68281 10.1055 5.22281C10.1055 5.33437 10.1282 5.43994 10.1627 5.53988L9.2865 6.05119C8.91038 5.59687 8.35912 5.29369 7.73756 5.24213V4.191C8.19506 4.10906 8.54419 3.71006 8.54419 3.22913C8.54419 2.68931 8.10506 2.25 7.56525 2.25C7.02525 2.25 6.58594 2.68931 6.58594 3.22913C6.58594 3.69956 6.9195 4.09294 7.36256 4.18669V5.24213C6.69694 5.29725 6.114 5.64281 5.73825 6.15131L5.09363 5.73112C5.13788 5.61956 5.16412 5.49881 5.16412 5.3715C5.16412 4.8315 4.72481 4.39219 4.185 4.39219C3.64519 4.39219 3.20587 4.8315 3.20587 5.3715C3.20587 5.9115 3.64519 6.35063 4.185 6.35063C4.46287 6.35063 4.71262 6.23325 4.89094 6.04669L5.54081 6.47044C5.38538 6.77625 5.29575 7.12087 5.29575 7.48688C5.29575 7.7655 5.349 8.03138 5.442 8.27813L4.71806 8.68988C4.53844 8.48119 4.27556 8.346 3.97931 8.346C3.43931 8.346 3 8.78513 3 9.32513C3 9.86513 3.43931 10.3043 3.97931 10.3043C4.51912 10.3043 4.95825 9.86513 4.95825 9.32513C4.95825 9.21638 4.93631 9.11363 4.9035 9.01575L5.60325 8.61769C5.96494 9.23812 6.61313 9.6705 7.36594 9.73163V10.629C6.91556 10.7168 6.57431 11.1135 6.57431 11.5892C6.57431 12.1292 7.01344 12.5685 7.55344 12.5685C8.09344 12.5685 8.53275 12.1292 8.53275 11.5892C8.53275 11.1135 8.1915 10.7168 7.74094 10.629V9.73125C8.45625 9.67088 9.07613 9.27581 9.44513 8.70281L10.1578 9.17512C10.1087 9.29156 10.0815 9.41944 10.0815 9.5535C10.0815 10.0933 10.5206 10.5326 11.0606 10.5326C11.6006 10.5326 12.0399 10.0933 12.0399 9.5535C12.0399 9.0135 11.6006 8.57419 11.0606 8.57419Z" fill="white"/>
</g>
<defs>
<linearGradient id="paint0_linear_3804_1458" x1="0" y1="1500" x2="1500" y2="0" gradientUnits="userSpaceOnUse">
<stop stop-color="#BD0816"/>
<stop offset="1" stop-color="#FF5252"/>
</linearGradient>
<clipPath id="clip0_3804_1458">
<rect width="15" height="15" fill="white"/>
</clipPath>
</defs>
</svg>
