<svg width="15" height="15" viewBox="0 0 15 15" fill="none" xmlns="http://www.w3.org/2000/svg">
<path d="M4.40788 6.47337C4.40788 6.67021 4.42678 6.82979 4.45976 6.94681C4.50162 7.07847 4.55203 7.20647 4.61056 7.32977C4.63414 7.37232 4.64353 7.41486 4.64353 7.45214C4.64353 7.50528 4.61528 7.5585 4.55401 7.61171L4.25708 7.83509C4.21465 7.86703 4.17222 7.88297 4.13447 7.88297C4.08737 7.88297 4.04022 7.85637 3.99306 7.80849C3.9295 7.73152 3.87269 7.6478 3.82341 7.5585C3.77626 7.46814 3.7291 7.36698 3.67728 7.24469C3.30958 7.73401 2.84765 7.97869 2.29149 7.97873C1.89558 7.97873 1.57974 7.85103 1.34876 7.59577C1.11783 7.34038 1 6.99996 1 6.57446C1 6.12235 1.1414 5.75533 1.42894 5.47873C1.71642 5.20213 2.09826 5.06383 2.58375 5.06383C2.744 5.06383 2.90898 5.07977 3.08336 5.10637C3.25779 5.13298 3.4369 5.17552 3.62546 5.2234V4.83511C3.62546 4.43081 3.55 4.14894 3.40387 3.98404C3.25307 3.81913 2.99851 3.73931 2.63557 3.73931C2.47059 3.73931 2.30094 3.76065 2.12651 3.80853C1.95207 3.8564 1.78242 3.91489 1.61744 3.98937C1.54204 4.02658 1.48549 4.04785 1.45246 4.05852C1.41943 4.06919 1.39591 4.07446 1.37706 4.07446C1.31106 4.07446 1.27808 4.02125 1.27808 3.90955V3.64889C1.27808 3.5638 1.28753 3.49999 1.31106 3.46278C1.33463 3.4255 1.37706 3.38829 1.44306 3.35108C1.60802 3.25529 1.80598 3.17549 2.03693 3.11169C2.26797 3.04254 2.51307 3.01067 2.77231 3.01067C3.33325 3.01067 3.74334 3.15424 4.0073 3.4415C4.26653 3.72871 4.39854 4.16488 4.39854 4.75002V6.47337H4.40788ZM2.49417 7.2819C2.64975 7.2819 2.81001 7.25002 2.97966 7.18614C3.14936 7.12232 3.30022 7.0053 3.42745 6.84572C3.5029 6.7447 3.55945 6.633 3.5877 6.50531C3.616 6.37768 3.63485 6.22338 3.63485 6.04253V5.81914C3.4919 5.77991 3.34712 5.74972 3.20119 5.72872C3.05423 5.70768 2.90626 5.69701 2.75813 5.69678C2.44229 5.69678 2.21136 5.76593 2.05583 5.90957C1.9003 6.0532 1.82485 6.25532 1.82485 6.52125C1.82485 6.77124 1.8814 6.95742 1.99923 7.08511C2.11238 7.21808 2.27736 7.2819 2.49417 7.2819ZM6.27916 7.85637C6.19431 7.85637 6.13776 7.84043 6.10006 7.80315C6.06235 7.77128 6.02933 7.69679 6.00108 7.59577L4.89342 3.48405C4.86506 3.37763 4.85094 3.30848 4.85094 3.27127C4.85094 3.18618 4.88864 3.13824 4.9641 3.13824H5.42601C5.51553 3.13824 5.57687 3.15424 5.60984 3.19145C5.64754 3.22339 5.67584 3.29787 5.70409 3.3989L6.49596 6.92021L7.23129 3.3989C7.25486 3.29254 7.28317 3.22339 7.32081 3.19145C7.35857 3.15957 7.42457 3.1383 7.50943 3.1383H7.88648C7.97601 3.1383 8.03734 3.15424 8.07499 3.19145C8.11274 3.22339 8.14572 3.29787 8.16457 3.3989L8.90934 6.96275L9.72474 3.3989C9.75299 3.29254 9.78601 3.22339 9.81899 3.19145C9.85669 3.15957 9.91797 3.1383 10.0028 3.1383H10.4412C10.5166 3.1383 10.559 3.18084 10.559 3.27127C10.559 3.29787 10.5543 3.32448 10.5496 3.35635C10.5449 3.38823 10.5355 3.43084 10.5166 3.48938L9.3806 7.60104C9.35235 7.70746 9.31936 7.77661 9.28162 7.80849C9.24392 7.84043 9.18264 7.8617 9.10257 7.8617H8.69721C8.60763 7.8617 8.54635 7.84576 8.5086 7.80849C8.4709 7.77128 8.43792 7.70213 8.41907 7.59577L7.68842 4.16488L6.96255 7.59037C6.93903 7.69679 6.91072 7.76594 6.87302 7.80315C6.83532 7.84043 6.76932 7.85637 6.68452 7.85637H6.27916ZM12.3361 8C12.091 8 11.8459 7.96806 11.6102 7.90424C11.3745 7.84043 11.1907 7.77122 11.0682 7.69152C10.9927 7.64358 10.9408 7.59043 10.922 7.54256C10.9037 7.4956 10.8941 7.4449 10.8937 7.39359V7.12232C10.8937 7.01063 10.9314 6.95742 11.0022 6.95742C11.031 6.95754 11.0597 6.96294 11.087 6.97342C11.1153 6.98409 11.1577 7.0053 11.2048 7.02657C11.3713 7.10925 11.5451 7.17166 11.7233 7.21275C11.9079 7.25499 12.0958 7.27637 12.2842 7.27656C12.5812 7.27656 12.8122 7.21808 12.9724 7.10105C13.1327 6.98402 13.2175 6.81385 13.2175 6.59573C13.2175 6.44683 13.1751 6.32446 13.0902 6.22338C13.0054 6.12229 12.8451 6.03193 12.6142 5.94678L11.9307 5.70745C11.5866 5.58509 11.3321 5.40424 11.1765 5.16486C11.021 4.9308 10.9409 4.6702 10.9409 4.3936C10.9409 4.17021 10.9833 3.97339 11.0682 3.80313C11.153 3.63295 11.2661 3.48405 11.4075 3.36702C11.5489 3.24466 11.7092 3.15424 11.8977 3.09042C12.0862 3.02661 12.2842 3 12.4916 3C12.5953 3 12.7037 3.00533 12.8074 3.02127C12.9159 3.03721 13.0148 3.05848 13.1138 3.07975C13.2081 3.10636 13.2977 3.13297 13.3825 3.16491C13.4673 3.19678 13.5333 3.22868 13.5805 3.2606C13.6465 3.30321 13.6936 3.34575 13.7219 3.39363C13.7501 3.43617 13.7643 3.49467 13.7643 3.56914V3.81913C13.7643 3.93083 13.7266 3.98937 13.6559 3.98937C13.6182 3.98937 13.5569 3.96804 13.4768 3.92549C13.2081 3.78719 12.9064 3.71804 12.5718 3.71804C12.3031 3.71804 12.091 3.76592 11.9448 3.86701C11.7988 3.96804 11.7233 4.12234 11.7233 4.34039C11.7233 4.48936 11.7705 4.61699 11.8647 4.71808C11.959 4.81917 12.1334 4.9202 12.3832 5.01062L13.0525 5.25001C13.3919 5.37237 13.637 5.54254 13.7831 5.7606C13.9293 5.97865 14 6.22871 14 6.50531C14 6.73403 13.9575 6.94148 13.8774 7.12232C13.7926 7.30317 13.6794 7.46274 13.5333 7.59043C13.3872 7.7234 13.2128 7.81916 13.0101 7.88831C12.798 7.96279 12.5765 8 12.3361 8Z" fill="#252F3E"/>
<path d="M12.7531 10.3517C11.3306 11.4284 9.26388 12 7.48689 12C4.99643 12 2.75248 11.0562 1.0576 9.48771C0.923561 9.36368 1.0446 9.19532 1.20455 9.29275C3.0378 10.3828 5.29909 11.0429 7.63822 11.0429C9.21634 11.0429 10.9501 10.7062 12.5456 10.015C12.7834 9.9042 12.9866 10.1745 12.7531 10.3517ZM13.3455 9.66052C13.1639 9.42128 12.1435 9.54531 11.6808 9.60291C11.5425 9.62069 11.5208 9.4966 11.6463 9.40356C12.4591 8.81866 13.7951 8.98707 13.9508 9.18199C14.1064 9.3814 13.9075 10.7505 13.1465 11.4063C13.0298 11.5082 12.9174 11.455 12.9693 11.3221C13.1422 10.8834 13.527 9.89536 13.3455 9.66052Z" fill="#FF9900"/>
</svg>
