<svg width="15" height="15" viewBox="0 0 15 15" fill="none" xmlns="http://www.w3.org/2000/svg">
<path fill-rule="evenodd" clip-rule="evenodd" d="M8.62143 4.83037L11.5754 2.93903L13.1779 4.83037L10.4149 5.20932L8.62159 4.83037H8.62143ZM6.37763 4.83037L3.42386 2.92944L1.82129 4.83037L4.58428 5.20932L6.37763 4.83037Z" fill="#3C4929"/>
<path fill-rule="evenodd" clip-rule="evenodd" d="M13.1877 8.63025L7.49943 8.30054L1.81274 8.63025L7.49943 13.9999L13.1877 8.63025Z" fill="#B7CA9D"/>
<path fill-rule="evenodd" clip-rule="evenodd" d="M6.37751 4.83037L3.42358 4.29916V2.92944L6.37751 3.68881V4.83037Z" fill="#759C3E"/>
<path fill-rule="evenodd" clip-rule="evenodd" d="M1.82129 4.83045L3.42386 4.2994V2.92969L1.82129 3.68726V4.83045ZM8.62143 4.83045L11.5754 4.2994V2.92969L8.62143 3.68905V4.83045Z" fill="#4B612C"/>
<path fill-rule="evenodd" clip-rule="evenodd" d="M13.1778 4.83045L11.5752 4.2994V2.92969L13.1778 3.68743V4.83045Z" fill="#759C3E"/>
<path fill-rule="evenodd" clip-rule="evenodd" d="M1.81274 7.50015H7.49943L13.1877 6.69155L7.49943 4.90015L1.81274 5.97655V7.50015ZM7.49943 14.0001L1.81274 11.3082V8.6305L7.49943 9.43113V14.0001Z" fill="#4B612C"/>
<path fill-rule="evenodd" clip-rule="evenodd" d="M13.1878 11.3082L7.49951 14.0001V9.43113L13.1878 8.6305V11.3082ZM13.1878 7.50015H7.49951V4.90015L13.1878 5.97655V7.50015Z" fill="#759C3E"/>
<path fill-rule="evenodd" clip-rule="evenodd" d="M10.527 3.95035L7.49946 4.59239L4.47192 3.95035L7.49946 1L10.527 3.95035Z" fill="#3C4929"/>
<path fill-rule="evenodd" clip-rule="evenodd" d="M4.47192 3.95035L7.49946 2.94675V1L4.47192 2.43325V3.95035Z" fill="#4B612C"/>
<path fill-rule="evenodd" clip-rule="evenodd" d="M10.527 3.95035L7.49951 2.94675V1L10.527 2.43325V3.95035Z" fill="#759C3E"/>
</svg>
