<svg width="15" height="15" viewBox="0 0 15 15" fill="none" xmlns="http://www.w3.org/2000/svg">
<path fill-rule="evenodd" clip-rule="evenodd" d="M4.32735 5.54528L3.19164 4.81761L2.625 5.5786L3.49437 5.64993L4.32735 5.54528ZM3.38517 6.48697L7.5 6.6693L11.6148 6.48697L7.5 4.9L3.38517 6.48697ZM10.2812 5.54528L11.2827 5.66895L12.375 5.5786L11.3987 4.14551L10.2812 5.54528Z" fill="#3C4929"/>
<path fill-rule="evenodd" clip-rule="evenodd" d="M6.15031 10.7328L8.50363 10.3491L10.7749 10.7185L8.42157 12.2769L6.15031 10.7328Z" fill="#B7CA9D"/>
<path fill-rule="evenodd" clip-rule="evenodd" d="M6.41203 5.40094L5.1876 5.25355L3.92676 4.1596L5.1876 2.39355L6.41203 2.65827V5.40094Z" fill="#759C3E"/>
<path fill-rule="evenodd" clip-rule="evenodd" d="M3.38517 3.44627V2.43325L7.5 1L8.58794 2.60274L6.41206 3.21L5.18762 2.94366V5.22175L7.5 4.9L8.73126 8.67309L7.5 14L6.26646 13.5703V12.356L5.18762 12.0563V6.36006L3.38517 6.48681V5.47379L2.625 5.5786V3.65866L3.38517 3.44627Z" fill="#4B612C"/>
<path fill-rule="evenodd" clip-rule="evenodd" d="M9.63021 1.74197L10.4973 2.04325L11.6148 2.43325V3.44627L12.375 3.65866V5.5786L11.6148 5.47395V6.48697L10.6453 6.41889L9.81237 6.36022V7.48749V7.49382V7.5H11.6148V8.54162L10.7773 8.59395V9.645L8.73126 9.92872V11.1431L10.7727 10.7198L10.7773 11.7915L8.73126 12.3558V13.5702L7.5 14V10.1V8.8V7.49204V7.4857V6.2V4.9L8.58794 5.05064V3.21L7.5 2.94366V2.3V1L9.63021 1.74197Z" fill="#759C3E"/>
<path fill-rule="evenodd" clip-rule="evenodd" d="M8.73114 2.64244L7.49987 2.30005L5.1875 2.94371L6.41194 3.21005L8.73114 2.64244Z" fill="#3C4929"/>
<path fill-rule="evenodd" clip-rule="evenodd" d="M8.58789 2.9436H9.81233V5.22169L8.58789 5.05042V2.9436Z" fill="#4B612C"/>
<path fill-rule="evenodd" clip-rule="evenodd" d="M5.1875 2.94371L7.49987 2.30005L7.98689 2.43639L8.73114 2.64244L9.81225 2.94371L8.58781 3.21005L7.49987 2.94371L6.41194 3.21005L5.1875 2.94371Z" fill="#3C4929"/>
</svg>
