<svg width="15" height="15" viewBox="0 0 15 15" fill="none" xmlns="http://www.w3.org/2000/svg">
<mask id="mask0_3804_1401" style="mask-type:luminance" maskUnits="userSpaceOnUse" x="6" y="5" width="4" height="5">
<path d="M6.26733 5.4625H6.8011V7.03681L8.33808 5.4625H9.04271L7.35624 7.19703L9.14934 9.19849H8.46629L6.80111 7.33053V9.19849H6.26737L6.26733 5.4625Z" fill="white"/>
</mask>
<g mask="url(#mask0_3804_1401)">
<path d="M6.26733 5.4625H6.8011V7.03681L8.33808 5.4625H9.04271L7.35624 7.19703L9.14934 9.19849H8.46629L6.80111 7.33053V9.19849H6.26737V5.46248" fill="url(#paint0_linear_3804_1401)"/>
</g>
<mask id="mask1_3804_1401" style="mask-type:luminance" maskUnits="userSpaceOnUse" x="7" y="1" width="7" height="10">
<path d="M7.93941 3.97977L10.5681 5.49743C10.5901 5.51017 10.6084 5.52848 10.6211 5.55052C10.6338 5.57255 10.6405 5.59754 10.6405 5.62298V8.65835C10.6405 8.7101 10.6683 8.75799 10.7131 8.78389L13.0589 10.1383C13.1556 10.1942 13.2764 10.1242 13.2764 10.0128V4.10102C13.2764 4.04927 13.2488 4.00144 13.2041 3.97548L8.08464 1.01969C7.98794 0.963902 7.86694 1.03384 7.86694 1.14542V3.85424C7.86694 3.9061 7.89463 3.95381 7.93955 3.97977H7.93941Z" fill="white"/>
</mask>
<g mask="url(#mask1_3804_1401)">
<path d="M7.93941 3.97977L10.5681 5.49743C10.5901 5.51017 10.6084 5.52848 10.6211 5.55052C10.6338 5.57255 10.6405 5.59754 10.6405 5.62298V8.65835C10.6405 8.7101 10.6683 8.75799 10.7131 8.78389L13.0589 10.1383C13.1556 10.1942 13.2764 10.1242 13.2764 10.0128V4.10102C13.2764 4.04927 13.2488 4.00144 13.2041 3.97548L8.08464 1.01969C7.98794 0.963902 7.86694 1.03384 7.86694 1.14542V3.85424C7.86694 3.9061 7.89463 3.95381 7.93955 3.97977" fill="url(#paint1_linear_3804_1401)"/>
</g>
<mask id="mask2_3804_1401" style="mask-type:luminance" maskUnits="userSpaceOnUse" x="1" y="1" width="12" height="13">
<path d="M10.2012 9.41916L7.57256 10.9368C7.52777 10.9628 7.47237 10.9628 7.42757 10.9368L4.43208 9.20738C4.41003 9.19461 4.39172 9.17628 4.37898 9.15422C4.36624 9.13215 4.35951 9.10713 4.35948 9.08165V5.6227C4.35953 5.59725 4.36626 5.57225 4.37901 5.55022C4.39175 5.52819 4.41006 5.50988 4.4321 5.49715L7.0608 3.97959C7.08284 3.96689 7.10115 3.9486 7.11389 3.92658C7.12663 3.90455 7.13334 3.87956 7.13336 3.85411V1.14526C7.13336 1.03368 7.01242 0.963907 6.91574 1.01954L1.79617 3.9755C1.75135 4.00146 1.72388 4.04929 1.72388 4.10104V10.6037C1.72388 10.6555 1.7515 10.7033 1.79617 10.7294L7.42757 13.9805C7.47236 14.0065 7.52775 14.0065 7.57256 13.9805L12.6921 11.0248C12.7888 10.969 12.7888 10.8294 12.6921 10.7736L10.3463 9.41916C10.3013 9.3932 10.2461 9.3932 10.2012 9.41916Z" fill="white"/>
</mask>
<g mask="url(#mask2_3804_1401)">
<path d="M10.2012 9.41916L7.57256 10.9368C7.52777 10.9628 7.47237 10.9628 7.42757 10.9368L4.43208 9.20738C4.41003 9.19461 4.39172 9.17628 4.37898 9.15422C4.36624 9.13215 4.35951 9.10713 4.35948 9.08165V5.6227C4.35953 5.59725 4.36626 5.57225 4.37901 5.55022C4.39175 5.52819 4.41006 5.50988 4.4321 5.49715L7.0608 3.97959C7.08284 3.96689 7.10115 3.9486 7.11389 3.92658C7.12663 3.90455 7.13334 3.87956 7.13336 3.85411V1.14526C7.13336 1.03368 7.01242 0.963907 6.91574 1.01954L1.79617 3.9755C1.75135 4.00146 1.72388 4.04929 1.72388 4.10104V10.6037C1.72388 10.6555 1.7515 10.7033 1.79617 10.7294L7.42757 13.9805C7.47236 14.0065 7.52775 14.0065 7.57256 13.9805L12.6921 11.0248C12.7888 10.969 12.7888 10.8294 12.6921 10.7736L10.3463 9.41916C10.3013 9.3932 10.2461 9.3932 10.2012 9.41916Z" fill="url(#paint2_linear_3804_1401)"/>
</g>
<defs>
<linearGradient id="paint0_linear_3804_1401" x1="8.73047" y1="9.10245" x2="6.43747" y2="5.32422" gradientUnits="userSpaceOnUse">
<stop stop-color="#4F66B9"/>
<stop offset="1" stop-color="#484FAB"/>
</linearGradient>
<linearGradient id="paint1_linear_3804_1401" x1="13.8486" y1="9.63408" x2="8.6508" y2="0.684559" gradientUnits="userSpaceOnUse">
<stop stop-color="#4F66B9"/>
<stop offset="1" stop-color="#484FAB"/>
</linearGradient>
<linearGradient id="paint2_linear_3804_1401" x1="8.68222" y1="13.2901" x2="3.01488" y2="3.28435" gradientUnits="userSpaceOnUse">
<stop stop-color="#4C68BB"/>
<stop offset="1" stop-color="#5180C9"/>
</linearGradient>
</defs>
</svg>
