<svg width="15" height="15" viewBox="0 0 15 15" fill="none" xmlns="http://www.w3.org/2000/svg">
<rect width="15" height="15" fill="#599D14"/>
<path d="M6.00799 5.694C5.76995 4.99628 5.69607 4.60228 5.01477 3.88815C4.77673 3.64189 3.89842 3.10014 4.00513 3.22326C5.12148 4.42169 5.69607 5.87459 5.9177 6.2768C5.71249 6.03055 5.47444 5.80892 5.20356 5.53804C4.97373 5.3082 4.73568 5.09479 4.50585 4.95524C4.3581 4.86495 4.27601 4.8157 4.12005 4.73361C3.43054 4.38065 2.75745 4.16723 2.50299 4.10157C2.19107 4.01948 1.87915 4.00306 1.87915 4.00306C1.87915 4.00306 2.88058 4.84032 3.29921 5.36566C3.72605 5.89921 4.16109 6.3753 4.64539 6.5723C5.12969 6.7693 5.30207 6.82676 5.67965 6.88422C6.00799 6.93347 6.4102 7.00735 6.4102 7.00735L6.00799 5.694Z" fill="white"/>
<path fill-rule="evenodd" clip-rule="evenodd" d="M9.88237 5.84175C11.4666 5.84175 12.8374 7.20435 12.8374 8.78037C12.8374 10.4877 11.5241 11.8093 9.78387 11.8093C8.20785 11.8093 6.83704 10.7094 6.83704 8.93633V3.19043H7.74818V6.70364L7.85489 6.58872C8.2571 6.20292 8.82348 5.84175 9.88237 5.84175ZM11.9099 8.86245C11.9099 10.0691 11.089 10.9802 9.79208 10.9802C8.6429 10.9802 7.6743 10.0855 7.68251 8.88708C7.68251 7.68044 8.49514 6.69543 9.8167 6.69543C11.13 6.69543 11.9099 7.75432 11.9099 8.86245Z" fill="white"/>
</svg>
