<svg width="15" height="15" viewBox="0 0 15 15" fill="none" xmlns="http://www.w3.org/2000/svg">
<path d="M4.80278 13.75V11.875C4.80278 11.7092 4.85686 11.5503 4.95313 11.4331C5.0494 11.3158 5.17997 11.25 5.31612 11.25H7.36947C7.50562 11.25 7.63619 11.3158 7.73246 11.4331C7.82873 11.5503 7.88281 11.7092 7.88281 11.875V13.75M10.4495 9.13078V2.5C10.4495 2.30995 10.4147 2.12981 10.3524 1.96852C10.0542 1.197 9.02352 1.38681 8.24107 1.6549L3.08092 3.42291C2.57556 3.59606 2.23608 4.07122 2.23608 4.60542V4.92474V12.5C2.23608 13.1904 2.69574 13.75 3.26276 13.75H8.57087" stroke="#101010" stroke-width="0.6" stroke-linecap="round" stroke-linejoin="round"/>
<path d="M9.1438 12.7227L9.63302 12.5271M9.5841 11.4019L9.1438 11.2551M10.269 13.7501L10.4158 13.3098M10.3668 10.6191L10.1712 10.1299M11.4921 10.5702L11.6388 10.1299M11.7367 13.7501L11.541 13.2609M12.2748 11.3529L12.764 11.1572M12.764 12.6249L12.3237 12.4781M12.4216 11.94C12.4216 12.7506 11.7645 13.4077 10.9539 13.4077C10.1433 13.4077 9.48625 12.7506 9.48625 11.94C9.48625 11.1294 10.1433 10.4723 10.9539 10.4723C11.7645 10.4723 12.4216 11.1294 12.4216 11.94Z" stroke="#101010" stroke-width="0.6" stroke-linecap="round" stroke-linejoin="round"/>
<path d="M6.34297 9.04868H6.34539M3.93042 6.35145C4.5939 5.75801 5.45282 5.42993 6.34297 5.42993C7.23313 5.42993 8.09205 5.75801 8.75553 6.35145M4.65419 7.32588C5.10516 6.88383 5.71148 6.63623 6.34297 6.63623C6.97447 6.63623 7.58079 6.88383 8.03176 7.32588M5.49858 8.18716C5.72407 7.96614 6.02723 7.84234 6.34297 7.84234C6.65872 7.84234 6.96188 7.96614 7.18737 8.18716" stroke="#101010" stroke-width="0.6" stroke-linecap="round" stroke-linejoin="round"/>
<circle cx="10.9536" cy="11.9399" r="0.654297" fill="#101010"/>
</svg>
