<svg width="15" height="15" viewBox="0 0 15 15" fill="none" xmlns="http://www.w3.org/2000/svg">
<rect width="15" height="15" fill="#FC0000"/>
<path fill-rule="evenodd" clip-rule="evenodd" d="M13.6529 10.5535C13.3625 10.5312 12.86 10.4642 12.2122 10.7545C11.5757 11.0561 11.3188 11.0672 11.0061 11.0337C11.0955 11.1901 11.2853 11.4023 11.866 11.4469C12.4468 11.4804 12.7371 11.5028 12.4244 12.184C12.4356 11.983 12.3798 11.5809 11.799 11.648C11.2183 11.715 11.0843 12.2063 11.7097 12.4409C11.5087 12.4744 11.0731 12.4967 10.7716 11.7596C10.5594 11.849 10.2356 12.0165 9.63253 11.5921C9.84471 11.6591 10.1016 11.6703 10.1016 11.6703C9.57669 11.4358 9.06298 11.0002 8.75028 10.587C9.00714 10.7657 9.28633 10.9444 9.57669 10.9779C9.24166 10.5982 8.45993 9.82763 7.49951 9.0459C8.11373 9.41443 8.86196 10.0063 10.0681 9.8723C11.2853 9.73829 12.1006 9.48144 13.6529 10.5535Z" fill="white"/>
<path fill-rule="evenodd" clip-rule="evenodd" d="M8.52724 10.4084C7.712 10.1069 7.54449 10.0399 6.49473 9.81654C5.45614 9.58202 4.42872 9.11298 3.73633 8.36475C4.21654 8.67744 5.21045 9.29166 6.22671 9.22465C6.07036 9.02364 5.79117 8.87846 5.44497 8.72211C5.82467 8.80028 6.9861 9.05714 8.52724 10.4084Z" fill="white"/>
<path fill-rule="evenodd" clip-rule="evenodd" d="M12.6253 9.72716C13.3401 9.79417 13.3066 9.89467 13.3066 10.0734C13.005 9.85 12.6253 9.72716 12.6253 9.72716ZM8.31463 6.03068C5.23237 5.14844 4.00393 4.04284 3.05469 2.89258C3.49022 4.22152 4.51765 4.70173 5.62324 5.59514C6.72883 6.48855 6.79584 6.96876 7.1197 7.5048C7.84559 8.68857 7.95727 8.87842 8.68317 9.39213C9.53191 9.95051 10.5593 9.57081 11.6873 9.7495C12.8152 9.92818 13.7421 10.7769 13.9431 11.1008C14.1776 10.6876 13.6193 10.0845 13.4629 9.92818C13.5411 9.38096 12.2456 9.13528 11.7431 8.95659C11.6426 8.92309 11.4081 8.86725 11.6091 8.37588C11.8883 7.69465 12.1898 7.10277 8.31463 6.03068Z" fill="white"/>
<path fill-rule="evenodd" clip-rule="evenodd" d="M6.81833 7.67232C6.61731 7.12511 6.27112 6.43272 4.59597 5.39413C3.76957 4.86925 2.57463 4.22153 1 2.54639C1.11168 2.99309 1.61422 4.16569 4.11577 5.69565C4.94217 6.24287 6.01426 6.5779 6.81833 7.67232Z" fill="white"/>
<path fill-rule="evenodd" clip-rule="evenodd" d="M6.81826 8.69983C6.62841 8.24196 6.22637 7.65008 4.69641 6.81251C3.98168 6.41047 2.77558 5.78509 1.68115 4.60132C1.78166 5.02569 2.2842 5.96377 4.46189 7.13637C5.06494 7.48256 6.08119 7.79526 6.81826 8.69983Z" fill="white"/>
</svg>
