<svg width="15" height="15" viewBox="0 0 15 15" fill="none" xmlns="http://www.w3.org/2000/svg">
<path d="M13.125 6.875V1.875H1.875V13.125H6.875M8.125 8.75L5.625 6.25L2.1875 9.6875M13.6431 10.1075L11.875 11.875M11.875 11.875L10.1075 13.6431M11.875 11.875L10.1075 10.1075M11.875 11.875L13.6431 13.6431M11.0938 5.15625C11.0938 5.48777 10.9621 5.80571 10.7276 6.04013C10.4932 6.27455 10.1753 6.40625 9.84375 6.40625C9.51223 6.40625 9.19429 6.27455 8.95987 6.04013C8.72545 5.80571 8.59375 5.48777 8.59375 5.15625C8.59375 4.82473 8.72545 4.50679 8.95987 4.27237C9.19429 4.03795 9.51223 3.90625 9.84375 3.90625C10.1753 3.90625 10.4932 4.03795 10.7276 4.27237C10.9621 4.50679 11.0938 4.82473 11.0938 5.15625Z" stroke="#565656" stroke-width="1.17188" stroke-linecap="square"/>
</svg>
