<svg width="15" height="15" viewBox="0 0 15 15" fill="none" xmlns="http://www.w3.org/2000/svg">
<g clip-path="url(#clip0_3806_4442)">
<path d="M7.49927 0C3.39677 0 1.33677 2.195 1.33677 2.195C1.33677 2.195 1.10052 3.81938 1.25114 7.09063C1.47802 12.0312 7.49989 15 7.49989 15C7.49989 15 13.5218 12.0319 13.7486 7.09063C13.8993 3.81938 13.6636 2.195 13.6636 2.195C13.6636 2.195 11.6011 0 7.49927 0ZM7.07489 1.825C7.71253 1.76588 8.3555 1.84044 8.96269 2.04392C9.56988 2.24739 10.1279 2.5753 10.6012 3.00669C11.0745 3.43808 11.4525 3.96346 11.7112 4.54926C11.97 5.13505 12.1036 5.76837 12.1036 6.40875C12.1033 7.08902 11.947 7.76015 11.6468 8.37058C11.3466 8.98101 10.9104 9.51448 10.3718 9.93C9.63427 9.8625 8.86552 9.65375 8.51677 9.455C9.41552 8.88125 10.5818 7.765 10.5818 6.40875C10.5808 5.59175 10.2557 4.8085 9.67797 4.23085C9.10021 3.6532 8.31689 3.32833 7.49989 3.3275C5.80177 3.3275 4.41989 4.74812 4.41989 6.49562C4.41989 7.95312 5.19239 9.09688 6.71489 9.89563C7.71177 10.4187 9.19802 10.8019 10.768 11.0038C10.5068 11.3925 9.80989 12.0575 9.40302 12.2825C7.52239 11.9738 5.87114 11.3225 4.74177 10.3469C3.53427 9.30313 2.89552 7.94187 2.89552 6.40875C2.89545 5.26129 3.32389 4.15515 4.09688 3.30713C4.86988 2.4591 5.9317 1.9303 7.07427 1.82437" fill="#C92C2C"/>
</g>
<defs>
<clipPath id="clip0_3806_4442">
<rect width="15" height="15" fill="white"/>
</clipPath>
</defs>
</svg>
