<svg width="15" height="15" viewBox="0 0 15 15" fill="none" xmlns="http://www.w3.org/2000/svg">
<g clip-path="url(#clip0_3804_2566)">
<path d="M5.03268 0.523897H9.41446L4.86585 14.0009C4.81914 14.1395 4.73014 14.2598 4.61139 14.3451C4.49264 14.4304 4.35012 14.4762 4.20393 14.4762H0.793933C0.683182 14.4762 0.574024 14.4498 0.47548 14.3993C0.376937 14.3488 0.291837 14.2755 0.227215 14.1855C0.162568 14.0956 0.120288 13.9916 0.10388 13.882C0.0874727 13.7725 0.0974107 13.6606 0.13287 13.5557L4.37076 0.999069C4.41752 0.860563 4.50653 0.740204 4.62527 0.654927C4.74401 0.569651 4.88649 0.523749 5.03268 0.523682V0.523897Z" fill="url(#paint0_linear_3804_2566)"/>
<path d="M11.4001 9.56323H4.45171C4.38709 9.56311 4.32394 9.58246 4.27049 9.61876C4.21704 9.65506 4.17577 9.70662 4.15206 9.76673C4.12835 9.82684 4.12331 9.89269 4.13758 9.95571C4.15186 10.0187 4.1848 10.076 4.2321 10.12L8.69694 14.2874C8.827 14.4086 8.99813 14.476 9.17589 14.4761H13.1103L11.4001 9.56323Z" fill="#0078D4"/>
<path d="M5.03256 0.523688C4.88476 0.523065 4.74063 0.569749 4.62126 0.656912C4.50189 0.744076 4.41354 0.867146 4.36913 1.00812L0.13803 13.5441C0.100284 13.6494 0.0884483 13.7622 0.103525 13.8731C0.118601 13.9839 0.160146 14.0895 0.224646 14.1809C0.289147 14.2724 0.374708 14.3469 0.474095 14.3982C0.573482 14.4496 0.683774 14.4763 0.795646 14.476H4.29374C4.42403 14.4528 4.5458 14.3953 4.64662 14.3096C4.74744 14.2238 4.82369 14.1129 4.86757 13.988L5.71129 11.5013L8.72527 14.3124C8.85155 14.4169 9.00996 14.4747 9.17384 14.476H13.0937L11.3745 9.56316L6.36287 9.56435L9.43017 0.523688H5.03256Z" fill="url(#paint1_linear_3804_2566)"/>
<path d="M10.6294 0.998452C10.5826 0.860157 10.4937 0.739993 10.3751 0.654871C10.2566 0.569748 10.1143 0.523951 9.96829 0.523926H5.08496C5.23092 0.523974 5.37318 0.569781 5.49175 0.654902C5.61031 0.740023 5.6992 0.860175 5.74592 0.998452L9.98391 13.5556C10.0194 13.6606 10.0294 13.7725 10.013 13.882C9.99663 13.9916 9.95439 14.0957 9.88979 14.1857C9.82519 14.2757 9.74009 14.349 9.64151 14.3996C9.54294 14.4501 9.43374 14.4765 9.32296 14.4765H14.2065C14.3172 14.4764 14.4264 14.45 14.5249 14.3994C14.6234 14.3488 14.7084 14.2754 14.773 14.1855C14.8376 14.0955 14.8798 13.9915 14.8962 13.8819C14.9126 13.7724 14.9027 13.6606 14.8674 13.5556L10.6294 0.998452Z" fill="url(#paint2_linear_3804_2566)"/>
</g>
<defs>
<linearGradient id="paint0_linear_3804_2566" x1="6.62977" y1="1.55782" x2="2.07922" y2="15.001" gradientUnits="userSpaceOnUse">
<stop stop-color="#114A8B"/>
<stop offset="1" stop-color="#0669BC"/>
</linearGradient>
<linearGradient id="paint1_linear_3804_2566" x1="8.05107" y1="7.82252" x2="6.99852" y2="8.17836" gradientUnits="userSpaceOnUse">
<stop stop-opacity="0.3"/>
<stop offset="0.071" stop-opacity="0.2"/>
<stop offset="0.321" stop-opacity="0.1"/>
<stop offset="0.623" stop-opacity="0.05"/>
<stop offset="1" stop-opacity="0"/>
</linearGradient>
<linearGradient id="paint2_linear_3804_2566" x1="7.47235" y1="1.16571" x2="12.4675" y2="14.4736" gradientUnits="userSpaceOnUse">
<stop stop-color="#3CCBF4"/>
<stop offset="1" stop-color="#2892DF"/>
</linearGradient>
<clipPath id="clip0_3804_2566">
<rect width="15" height="15" fill="white"/>
</clipPath>
</defs>
</svg>
