<svg width="15" height="15" viewBox="0 0 15 15" fill="none" xmlns="http://www.w3.org/2000/svg">
<path d="M13.5667 1.49463H1.43333C1.19401 1.49463 1 1.68864 1 1.92796V9.72796C1 9.96728 1.19401 10.1613 1.43333 10.1613H13.5667C13.806 10.1613 14 9.96728 14 9.72796V1.92796C14 1.68864 13.806 1.49463 13.5667 1.49463Z" fill="url(#paint0_linear_3736_3420)"/>
<path d="M9.66667 4.56396V7.08452L7.5 8.35563V5.82785L9.66667 4.56396Z" fill="#50E6FF"/>
<path d="M9.66683 4.56394L7.50016 5.83505L5.3335 4.56394L7.50016 3.30005L9.66683 4.56394Z" fill="#C3F1FF"/>
<path d="M7.50016 5.83508V8.35563L5.3335 7.08452V4.56396L7.50016 5.83508Z" fill="#9CEBFF"/>
<path d="M5.3335 7.08455L7.50016 5.82788V8.35566L5.3335 7.08455Z" fill="#C3F1FF"/>
<path d="M9.66667 7.08455L7.5 5.82788V8.35566L9.66667 7.08455Z" fill="#9CEBFF"/>
<path d="M10.1072 12.783C8.82168 12.5808 8.77112 11.6564 8.77112 10.1614H6.22168C6.22168 11.6564 6.17835 12.5808 4.89279 12.783C4.71533 12.8027 4.55143 12.8874 4.43272 13.0207C4.31402 13.1541 4.24893 13.3267 4.25001 13.5053H10.75C10.7511 13.3267 10.686 13.1541 10.5673 13.0207C10.4486 12.8874 10.2847 12.8027 10.1072 12.783Z" fill="url(#paint1_linear_3736_3420)"/>
<defs>
<linearGradient id="paint0_linear_3736_3420" x1="7.5" y1="10.1613" x2="7.5" y2="1.49463" gradientUnits="userSpaceOnUse">
<stop stop-color="#0078D4"/>
<stop offset="0.82" stop-color="#5EA0EF"/>
</linearGradient>
<linearGradient id="paint1_linear_3736_3420" x1="7.50001" y1="13.5053" x2="7.50001" y2="10.1614" gradientUnits="userSpaceOnUse">
<stop offset="0.15" stop-color="#CCCCCC"/>
<stop offset="1" stop-color="#707070"/>
</linearGradient>
</defs>
</svg>
