<svg width="15" height="15" viewBox="0 0 15 15" fill="none" xmlns="http://www.w3.org/2000/svg">
<path d="M1 5.04565H14V12.2951C14 12.4107 13.9541 12.5215 13.8723 12.6033C13.7906 12.685 13.6797 12.7309 13.5641 12.7309H1.43588C1.32028 12.7309 1.20941 12.685 1.12767 12.6033C1.04592 12.5215 1 12.4107 1 12.2951V5.04565Z" fill="url(#paint0_linear_3775_1239)"/>
<path d="M1.43588 2.27734H13.5641C13.6797 2.27734 13.7906 2.32327 13.8723 2.40501C13.9541 2.48675 14 2.59762 14 2.71323V5.04558H1V2.70558C1.00201 2.59131 1.04881 2.48239 1.13034 2.4023C1.21187 2.3222 1.32159 2.27733 1.43588 2.27734Z" fill="#37C2B1"/>
<path d="M2.76669 5.88696H12.2261C12.2795 5.88894 12.3301 5.91157 12.3672 5.95008C12.4043 5.98858 12.425 6.03997 12.4249 6.09343V7.16402C12.425 7.21748 12.4043 7.26887 12.3672 7.30738C12.3301 7.34589 12.2795 7.36851 12.2261 7.37049H2.76669C2.71327 7.36851 2.6627 7.34589 2.62562 7.30738C2.58853 7.26887 2.56783 7.21748 2.56787 7.16402V6.09343C2.56783 6.03997 2.58853 5.98858 2.62562 5.95008C2.6627 5.91157 2.71327 5.88894 2.76669 5.88696Z" fill="#00ECC9"/>
<path d="M2.77418 8.02026H12.2336C12.287 8.02224 12.3376 8.04487 12.3747 8.08338C12.4118 8.12188 12.4325 8.17327 12.4324 8.22673V9.30497C12.4325 9.35843 12.4118 9.40982 12.3747 9.44833C12.3376 9.48684 12.287 9.50946 12.2336 9.51144H2.77418C2.72076 9.50946 2.67018 9.48684 2.6331 9.44833C2.59602 9.40982 2.57532 9.35843 2.57536 9.30497V8.26497C2.56979 8.23548 2.57073 8.20512 2.57809 8.17603C2.58546 8.14693 2.59908 8.11979 2.618 8.0965C2.63693 8.0732 2.66071 8.05431 2.68768 8.04115C2.71465 8.02798 2.74417 8.02086 2.77418 8.02026Z" fill="#37C2B1"/>
<path d="M2.77402 10.177H12.2334C12.2869 10.179 12.3374 10.2016 12.3745 10.2401C12.4116 10.2786 12.4323 10.33 12.4323 10.3835V11.4617C12.4323 11.5152 12.4116 11.5666 12.3745 11.6051C12.3374 11.6436 12.2869 11.6662 12.2334 11.6682H2.77402C2.7206 11.6662 2.67002 11.6436 2.63294 11.6051C2.59586 11.5666 2.57516 11.5152 2.5752 11.4617V10.3835C2.57516 10.33 2.59586 10.2786 2.63294 10.2401C2.67002 10.2016 2.7206 10.179 2.77402 10.177Z" fill="#258277"/>
<defs>
<linearGradient id="paint0_linear_3775_1239" x1="7.5" y1="12.7233" x2="7.5" y2="5.04565" gradientUnits="userSpaceOnUse">
<stop stop-color="#B3B3B3"/>
<stop offset="0.26" stop-color="#C1C1C1"/>
<stop offset="1" stop-color="#E6E6E6"/>
</linearGradient>
</defs>
</svg>
