<svg width="15" height="15" viewBox="0 0 15 15" fill="none" xmlns="http://www.w3.org/2000/svg">
<mask id="mask0_3778_1260" style="mask-type:luminance" maskUnits="userSpaceOnUse" x="2" y="1" width="11" height="13">
<path d="M12.8936 1H2.18701V14H12.8936V1Z" fill="white"/>
</mask>
<g mask="url(#mask0_3778_1260)">
<path d="M12.8929 7.06911C12.8929 10.5639 8.6411 13.3767 7.71603 13.9502C7.66297 13.9827 7.60204 14 7.53994 14C7.47783 14 7.41697 13.9827 7.36385 13.9502C6.43883 13.379 2.18701 10.5662 2.18701 7.06911V2.864C2.1874 2.77584 2.22199 2.69135 2.28333 2.62872C2.34467 2.56609 2.42786 2.53032 2.51501 2.52912C5.8229 2.44197 5.06111 1 7.53994 1C10.0188 1 9.257 2.44197 12.5649 2.52912C12.6517 2.53032 12.7345 2.56576 12.7958 2.6279C12.8571 2.69004 12.8919 2.77394 12.8929 2.86171V7.06911Z" fill="#76BC2D"/>
<path d="M12.1277 7.11973C12.1277 10.2034 8.48322 12.6853 7.69034 13.1913C7.64484 13.22 7.59266 13.2352 7.53942 13.2352C7.48618 13.2352 7.43394 13.22 7.3885 13.1913C6.59559 12.6873 2.95117 10.2054 2.95117 7.11973V3.40936C2.9515 3.33156 2.98115 3.25701 3.03373 3.20175C3.08631 3.14649 3.15761 3.11493 3.23231 3.11387C6.06765 3.03697 5.41468 1.76465 7.53942 1.76465C9.66415 1.76465 9.01114 3.03697 11.8465 3.11387C11.9209 3.11492 11.9919 3.1462 12.0444 3.20103C12.0969 3.25585 12.1268 3.32989 12.1277 3.40733V7.11973Z" fill="url(#paint0_linear_3778_1260)"/>
<mask id="mask1_3778_1260" style="mask-type:luminance" maskUnits="userSpaceOnUse" x="5" y="3" width="6" height="9">
<path d="M10.4081 3.29395H5.05518V11.7057H10.4081V3.29395Z" fill="white"/>
</mask>
<g mask="url(#mask1_3778_1260)">
<path fill-rule="evenodd" clip-rule="evenodd" d="M9.36005 7.62932C9.14863 7.88825 8.93702 8.14742 8.78817 8.44518L8.4994 9.02268C8.45053 9.12036 8.35066 9.18211 8.24146 9.18211H6.91558C6.80635 9.18211 6.70648 9.12036 6.65763 9.02268L6.36848 8.44436C6.2197 8.14677 6.00823 7.88772 5.79701 7.62896C5.72442 7.54003 5.65187 7.4511 5.5819 7.36069C5.25169 6.93405 5.05518 6.39872 5.05518 5.81748C5.05518 4.42377 6.18499 3.29395 7.5787 3.29395C8.97242 3.29395 10.1022 4.42377 10.1022 5.81748C10.1022 6.39883 9.90564 6.93429 9.57532 7.36092C9.5053 7.45139 9.43268 7.54032 9.36005 7.62932ZM5.89304 5.19661C5.82042 5.34274 5.88001 5.52007 6.02614 5.59269C6.17227 5.6653 6.34959 5.60571 6.42221 5.45959C6.59289 5.11612 6.87037 4.83727 7.21299 4.6649C7.35876 4.59156 7.41744 4.41394 7.34411 4.26817C7.27078 4.12241 7.09315 4.06369 6.94743 4.13703C6.49058 4.36686 6.12062 4.73866 5.89304 5.19661Z" fill="white"/>
<path d="M6.52686 9.81299H8.62981" stroke="white" stroke-width="0.420588" stroke-linecap="round"/>
<path d="M6.52686 10.6541H8.62981" stroke="white" stroke-width="0.420588" stroke-linecap="round"/>
<path fill-rule="evenodd" clip-rule="evenodd" d="M6.85205 11.2849C6.99751 11.5363 7.26933 11.7055 7.58068 11.7055C7.89203 11.7055 8.16391 11.5363 8.30933 11.2849H6.85205Z" fill="white"/>
<mask id="mask2_3778_1260" style="mask-type:luminance" maskUnits="userSpaceOnUse" x="6" y="11" width="3" height="1">
<path fill-rule="evenodd" clip-rule="evenodd" d="M6.85205 11.2849C6.99751 11.5363 7.26933 11.7055 7.58068 11.7055C7.89203 11.7055 8.16391 11.5363 8.30933 11.2849H6.85205Z" fill="white"/>
</mask>
<g mask="url(#mask2_3778_1260)">
<path d="M6.85207 11.285V10.9966H6.35205L6.60242 11.4294L6.85207 11.285ZM8.30935 11.285L8.55901 11.4294L8.80938 10.9966H8.30935V11.285ZM7.5807 11.4172C7.37648 11.4172 7.19773 11.3066 7.10171 11.1406L6.60242 11.4294C6.79729 11.7663 7.16222 11.994 7.5807 11.994V11.4172ZM8.05969 11.1406C7.96367 11.3066 7.78498 11.4172 7.5807 11.4172V11.994C7.99918 11.994 8.36413 11.7663 8.55901 11.4294L8.05969 11.1406ZM8.30935 10.9966H6.85207V11.5734H8.30935V10.9966Z" fill="white"/>
</g>
</g>
</g>
<defs>
<linearGradient id="paint0_linear_3778_1260" x1="7.53942" y1="13.2353" x2="7.53942" y2="1.76465" gradientUnits="userSpaceOnUse">
<stop stop-color="#5E9624"/>
<stop offset="0.321" stop-color="#639D26"/>
<stop offset="0.794" stop-color="#6FB12A"/>
<stop offset="0.999" stop-color="#76BC2D"/>
</linearGradient>
</defs>
</svg>
