<svg width="15" height="15" viewBox="0 0 15 15" fill="none" xmlns="http://www.w3.org/2000/svg">
<path d="M13.5973 6.92936C13.5787 6.28036 13.3293 5.65925 12.894 5.17757C12.4586 4.69589 11.8658 4.38521 11.2219 4.30131C11.1843 3.39414 10.79 2.53852 10.1248 1.9206C9.45955 1.30268 8.57721 0.972469 7.66973 1.0018C6.93762 0.989739 6.21974 1.20467 5.61471 1.61708C5.00969 2.02948 4.5472 2.61911 4.29081 3.30496C3.51263 3.3947 2.79269 3.76135 2.26248 4.33797C1.73226 4.91458 1.42714 5.66267 1.40283 6.44563C1.41585 6.88435 1.51569 7.31614 1.6966 7.71604C1.87751 8.11594 2.13589 8.47601 2.45681 8.77545C2.77772 9.07488 3.15481 9.30773 3.56627 9.46054C3.97772 9.61335 4.41539 9.68309 4.85396 9.66572H5.1572H10.7021H10.8537C11.5778 9.65824 12.2702 9.36777 12.7829 8.85641C13.2956 8.34506 13.5879 7.65342 13.5973 6.92936Z" fill="url(#paint0_linear_3737_3462)"/>
<path d="M5.60486 5.66573L7.51092 3.79576C7.5311 3.77502 7.55524 3.75854 7.5819 3.74728C7.60856 3.73602 7.63721 3.73022 7.66615 3.73022C7.69509 3.73022 7.72374 3.73602 7.7504 3.74728C7.77706 3.75854 7.8012 3.77502 7.82138 3.79576L9.6769 5.66573C9.69294 5.67862 9.7043 5.69643 9.70923 5.71641C9.71416 5.73639 9.71239 5.75744 9.70418 5.77631C9.69597 5.79519 9.68179 5.81084 9.66382 5.82086C9.64584 5.83089 9.62507 5.83472 9.6047 5.83178H8.43507C8.40882 5.83348 8.38409 5.84468 8.36549 5.86328C8.34689 5.88188 8.33569 5.90661 8.33399 5.93286V8.27212C8.33399 8.29318 8.32563 8.31339 8.31073 8.32828C8.29584 8.34317 8.27564 8.35154 8.25457 8.35154H6.99831C6.97724 8.35154 6.95704 8.34317 6.94215 8.32828C6.92725 8.31339 6.91889 8.29318 6.91889 8.27212V5.93286C6.91895 5.90726 6.9093 5.88259 6.89188 5.86383C6.87446 5.84506 6.85057 5.83361 6.82503 5.83178H5.66984C5.65011 5.83288 5.63053 5.82771 5.61391 5.81702C5.59728 5.80634 5.58446 5.79067 5.57725 5.77227C5.57005 5.75387 5.56884 5.73366 5.5738 5.71453C5.57876 5.6954 5.58963 5.67832 5.60486 5.66573Z" fill="#F2F2F2"/>
<path d="M11.1207 9.21058C11.1217 9.18997 11.1159 9.1696 11.1041 9.15263C11.0924 9.13567 11.0754 9.12304 11.0557 9.11672L7.62626 7.96875H7.51074V13.9974H7.6046L11.0052 12.64C11.0186 12.6432 11.0325 12.6434 11.046 12.6406C11.0595 12.6378 11.0723 12.6321 11.0833 12.6238C11.0943 12.6156 11.1034 12.605 11.1098 12.5928C11.1163 12.5806 11.12 12.5672 11.1207 12.5534V9.21058Z" fill="#A67AF4"/>
<path d="M7.5108 7.99048L4.25461 8.58973C4.23157 8.59301 4.21037 8.60414 4.19458 8.62124C4.1788 8.63834 4.1694 8.66036 4.16797 8.68359V13.1816C4.16868 13.2047 4.17677 13.227 4.19106 13.2452C4.20535 13.2634 4.22509 13.2765 4.24739 13.2827L7.5108 13.9975C7.52479 14.0008 7.53937 14.0008 7.55339 13.9976C7.56741 13.9944 7.58051 13.9881 7.59168 13.979C7.60284 13.9699 7.61177 13.9584 7.61778 13.9453C7.62378 13.9323 7.62671 13.918 7.62632 13.9036V8.12766C7.63337 8.11056 7.63559 8.09185 7.63275 8.07358C7.62991 8.0553 7.6221 8.03815 7.61019 8.02401C7.59828 8.00986 7.58271 7.99925 7.56518 7.99334C7.54766 7.98743 7.52885 7.98644 7.5108 7.99048Z" fill="#552F99"/>
<path opacity="0.75" d="M6.00928 8.88586V13.0806L7.14281 13.2611V8.69092L6.00928 8.88586Z" fill="#B77AF4"/>
<path opacity="0.75" d="M4.6084 9.11699V12.7847L5.59753 12.9869V8.95093L4.6084 9.11699Z" fill="#B77AF4"/>
<defs>
<linearGradient id="paint0_linear_3737_3462" x1="7.51089" y1="9.62962" x2="7.51089" y2="1.0018" gradientUnits="userSpaceOnUse">
<stop stop-color="#0078D4"/>
<stop offset="0.16" stop-color="#1380DA"/>
<stop offset="0.53" stop-color="#3C91E5"/>
<stop offset="0.82" stop-color="#559CEC"/>
<stop offset="1" stop-color="#5EA0EF"/>
</linearGradient>
</defs>
</svg>
