<svg width="15" height="15" viewBox="0 0 15 15" fill="none" xmlns="http://www.w3.org/2000/svg">
<path d="M5.20339 1.92529L3.14697 2.30638V5.11059L5.20339 5.5492L7.26701 4.72231V2.62994L5.20339 1.92529Z" fill="url(#paint0_linear_3732_3253)"/>
<path d="M3.14697 2.30643V5.11064L5.22497 5.54924V1.9541L3.14697 2.30643ZM4.02419 4.89493L3.44177 4.77988V2.6228L4.02419 2.52932V4.89493ZM4.93016 5.0603L4.26147 4.95245V2.48618L4.93016 2.37114V5.0603Z" fill="#341A6E"/>
<path d="M9.65457 1.96143L7.59814 2.34251V5.14672L9.65457 5.58533L11.711 4.75126V2.66607L9.65457 1.96143Z" fill="url(#paint1_linear_3732_3253)"/>
<path d="M7.59814 2.34256V5.14677L9.66176 5.58538V1.99023L7.59814 2.34256ZM8.46817 4.93106L7.88576 4.81602V2.65893L8.46817 2.56546V4.93106ZM9.37415 5.09644L8.70545 4.98858V2.52232L9.37415 2.40008V5.09644Z" fill="#341A6E"/>
<path d="M3.09695 5.7937L1.04053 6.17479V8.979L3.09695 9.41761L5.16056 8.59072V6.49835L3.09695 5.7937Z" fill="url(#paint2_linear_3732_3253)"/>
<path d="M1.0332 6.17492V8.95756L3.1112 9.39617V5.80103L1.0332 6.17492ZM1.90323 8.77061L1.32081 8.64838V6.49129L1.90323 6.39063V8.77061ZM2.81639 8.95756L2.1477 8.84971V6.35468L2.81639 6.23963V8.95756Z" fill="#341A6E"/>
<path d="M7.53347 5.76514L5.47705 6.14622V8.95043L7.53347 9.39623L9.58989 8.56216V6.46978L7.53347 5.76514Z" fill="url(#paint3_linear_3732_3253)"/>
<path d="M5.47705 6.14616V8.95756L7.54785 9.39617V5.80103L5.47705 6.14616ZM6.34708 8.74185L5.76466 8.61962V6.46253L6.34708 6.36187V8.74185ZM7.25305 8.90004L6.58435 8.79218V6.32592L7.25305 6.21087V8.90004Z" fill="#341A6E"/>
<path d="M11.9695 5.80103L9.91309 6.18211V8.98632L11.9695 9.42493L14.0331 8.59805V6.50567L11.9695 5.80103Z" fill="url(#paint4_linear_3732_3253)"/>
<path d="M9.91309 6.18211V8.95756L11.9911 9.39617V5.80103L9.91309 6.18211ZM10.7903 8.7778L10.2079 8.65557V6.49848L10.7903 6.39782V8.7778ZM11.6963 8.93599L11.0276 8.82814V6.36187L11.6963 6.24682V8.93599Z" fill="#341A6E"/>
<path d="M5.1531 9.70532L3.09668 10.0792V12.8834L5.1531 13.3292L7.21671 12.4952V10.41L5.1531 9.70532Z" fill="url(#paint5_linear_3732_3253)"/>
<path d="M3.09668 10.0792V12.8834L5.17467 13.3292V9.67651L3.09668 10.0792ZM3.97389 12.6749L3.39148 12.5526V10.3955L3.97389 10.2949V12.6749ZM4.87987 12.8402L4.21117 12.7324V10.2589L4.87987 10.1439V12.8402Z" fill="#341A6E"/>
<path d="M9.59695 9.73413L7.54053 10.1152V12.9194L9.59695 13.358L11.6606 12.5312V10.4388L9.59695 9.73413Z" fill="url(#paint6_linear_3732_3253)"/>
<path d="M7.54053 10.1153V12.9195L9.61852 13.3581V9.76294L7.54053 10.1153ZM8.41774 12.711L7.83533 12.5887V10.4316L8.41774 10.331V12.711ZM9.32372 12.8691L8.65502 12.7613V10.295L9.32372 10.18V12.8691Z" fill="#341A6E"/>
<defs>
<linearGradient id="paint0_linear_3732_3253" x1="3.14697" y1="3.73724" x2="7.26701" y2="3.73724" gradientUnits="userSpaceOnUse">
<stop stop-color="#B77AF4"/>
<stop offset="1" stop-color="#773ADC"/>
</linearGradient>
<linearGradient id="paint1_linear_3732_3253" x1="7.59814" y1="3.77338" x2="11.711" y2="3.77338" gradientUnits="userSpaceOnUse">
<stop stop-color="#B77AF4"/>
<stop offset="1" stop-color="#773ADC"/>
</linearGradient>
<linearGradient id="paint2_linear_3732_3253" x1="1.04053" y1="7.60565" x2="5.15337" y2="7.60565" gradientUnits="userSpaceOnUse">
<stop stop-color="#B77AF4"/>
<stop offset="1" stop-color="#773ADC"/>
</linearGradient>
<linearGradient id="paint3_linear_3732_3253" x1="5.47705" y1="7.57709" x2="9.58989" y2="7.57709" gradientUnits="userSpaceOnUse">
<stop stop-color="#B77AF4"/>
<stop offset="1" stop-color="#773ADC"/>
</linearGradient>
<linearGradient id="paint4_linear_3732_3253" x1="9.91309" y1="7.61298" x2="14.0331" y2="7.61298" gradientUnits="userSpaceOnUse">
<stop stop-color="#B77AF4"/>
<stop offset="1" stop-color="#773ADC"/>
</linearGradient>
<linearGradient id="paint5_linear_3732_3253" x1="3.09668" y1="11.5173" x2="7.21671" y2="11.5173" gradientUnits="userSpaceOnUse">
<stop stop-color="#B77AF4"/>
<stop offset="1" stop-color="#773ADC"/>
</linearGradient>
<linearGradient id="paint6_linear_3732_3253" x1="7.54053" y1="11.5461" x2="11.6606" y2="11.5461" gradientUnits="userSpaceOnUse">
<stop stop-color="#B77AF4"/>
<stop offset="1" stop-color="#773ADC"/>
</linearGradient>
</defs>
</svg>
