<svg width="15" height="15" viewBox="0 0 15 15" fill="none" xmlns="http://www.w3.org/2000/svg">
<mask id="mask0_3778_1240" style="mask-type:luminance" maskUnits="userSpaceOnUse" x="2" y="1" width="11" height="13">
<path d="M12.8531 1H2.14648V14H12.8531V1Z" fill="white"/>
</mask>
<g mask="url(#mask0_3778_1240)">
<path d="M12.8523 7.06911C12.8523 10.5639 8.60057 13.3767 7.6755 13.9502C7.62244 13.9827 7.56152 14 7.49941 14C7.43731 14 7.37644 13.9827 7.32332 13.9502C6.39831 13.379 2.14648 10.5662 2.14648 7.06911V2.864C2.14687 2.77584 2.18146 2.69135 2.2428 2.62872C2.30414 2.56609 2.38733 2.53032 2.47448 2.52912C5.78237 2.44197 5.02058 1 7.49941 1C9.97828 1 9.21648 2.44197 12.5244 2.52912C12.6111 2.53032 12.694 2.56576 12.7553 2.6279C12.8165 2.69004 12.8514 2.77394 12.8523 2.86171V7.06911Z" fill="#76BC2D"/>
<path d="M12.0871 7.11973C12.0871 10.2034 8.44269 12.6853 7.64981 13.1913C7.60431 13.22 7.55214 13.2352 7.49889 13.2352C7.44565 13.2352 7.39342 13.22 7.34798 13.1913C6.55507 12.6873 2.91064 10.2054 2.91064 7.11973V3.40936C2.91098 3.33156 2.94062 3.25701 2.9932 3.20175C3.04578 3.14649 3.11708 3.11493 3.19178 3.11387C6.02712 3.03697 5.37416 1.76465 7.49889 1.76465C9.62363 1.76465 8.97061 3.03697 11.806 3.11387C11.8804 3.11492 11.9513 3.1462 12.0039 3.20103C12.0564 3.25585 12.0863 3.32989 12.0871 3.40733V7.11973Z" fill="url(#paint0_linear_3778_1240)"/>
<mask id="mask1_3778_1240" style="mask-type:luminance" maskUnits="userSpaceOnUse" x="5" y="3" width="6" height="9">
<path d="M10.3676 3.29395H5.01465V11.7057H10.3676V3.29395Z" fill="white"/>
</mask>
<g mask="url(#mask1_3778_1240)">
<path fill-rule="evenodd" clip-rule="evenodd" d="M9.31953 7.62932C9.1081 7.88825 8.8965 8.14742 8.74765 8.44518L8.45887 9.02268C8.41 9.12036 8.31014 9.18211 8.20094 9.18211H6.87505C6.76582 9.18211 6.66596 9.12036 6.61711 9.02268L6.32795 8.44436C6.17917 8.14677 5.9677 7.88772 5.75648 7.62896C5.68389 7.54003 5.61134 7.4511 5.54137 7.36069C5.21116 6.93405 5.01465 6.39872 5.01465 5.81748C5.01465 4.42377 6.14447 3.29395 7.53817 3.29395C8.93189 3.29395 10.0617 4.42377 10.0617 5.81748C10.0617 6.39883 9.86511 6.93429 9.5348 7.36092C9.46477 7.45139 9.39215 7.54032 9.31953 7.62932ZM5.85251 5.19661C5.77989 5.34274 5.83949 5.52007 5.98561 5.59269C6.13174 5.6653 6.30906 5.60571 6.38168 5.45959C6.55237 5.11612 6.82984 4.83727 7.17246 4.6649C7.31824 4.59156 7.37691 4.41394 7.30358 4.26817C7.23025 4.12241 7.05262 4.06369 6.90691 4.13703C6.45006 4.36686 6.08009 4.73866 5.85251 5.19661Z" fill="white"/>
<path d="M6.48633 9.81299H8.58928" stroke="white" stroke-width="0.420588" stroke-linecap="round"/>
<path d="M6.48633 10.6541H8.58928" stroke="white" stroke-width="0.420588" stroke-linecap="round"/>
<path fill-rule="evenodd" clip-rule="evenodd" d="M6.81152 11.2849C6.95699 11.5363 7.22881 11.7055 7.54016 11.7055C7.85151 11.7055 8.12338 11.5363 8.26881 11.2849H6.81152Z" fill="white"/>
<mask id="mask2_3778_1240" style="mask-type:luminance" maskUnits="userSpaceOnUse" x="6" y="11" width="3" height="1">
<path fill-rule="evenodd" clip-rule="evenodd" d="M6.81152 11.2849C6.95699 11.5363 7.22881 11.7055 7.54016 11.7055C7.85151 11.7055 8.12338 11.5363 8.26881 11.2849H6.81152Z" fill="white"/>
</mask>
<g mask="url(#mask2_3778_1240)">
<path d="M6.81154 11.285V10.9966H6.31152L6.5619 11.4294L6.81154 11.285ZM8.26882 11.285L8.51848 11.4294L8.76885 10.9966H8.26882V11.285ZM7.54017 11.4172C7.33595 11.4172 7.1572 11.3066 7.06118 11.1406L6.5619 11.4294C6.75677 11.7663 7.12169 11.994 7.54017 11.994V11.4172ZM8.01916 11.1406C7.92314 11.3066 7.74445 11.4172 7.54017 11.4172V11.994C7.95865 11.994 8.3236 11.7663 8.51848 11.4294L8.01916 11.1406ZM8.26882 10.9966H6.81154V11.5734H8.26882V10.9966Z" fill="white"/>
</g>
</g>
</g>
<defs>
<linearGradient id="paint0_linear_3778_1240" x1="7.49889" y1="13.2353" x2="7.49889" y2="1.76465" gradientUnits="userSpaceOnUse">
<stop stop-color="#5E9624"/>
<stop offset="0.321" stop-color="#639D26"/>
<stop offset="0.794" stop-color="#6FB12A"/>
<stop offset="0.999" stop-color="#76BC2D"/>
</linearGradient>
</defs>
</svg>
