<svg width="15" height="15" viewBox="0 0 15 15" fill="none" xmlns="http://www.w3.org/2000/svg">
<path d="M7.5 14C11.0899 14 14 11.0899 14 7.5C14 3.91015 11.0899 1 7.5 1C3.91015 1 1 3.91015 1 7.5C1 11.0899 3.91015 14 7.5 14Z" fill="url(#paint0_radial_3736_3430)"/>
<path d="M7.49978 13.0984C10.5917 13.0984 13.0982 10.5919 13.0982 7.50002C13.0982 4.40811 10.5917 1.90161 7.49978 1.90161C4.40786 1.90161 1.90137 4.40811 1.90137 7.50002C1.90137 10.5919 4.40786 13.0984 7.49978 13.0984Z" fill="#005BA1"/>
<path d="M7.57647 8.21669L5.40929 6.06634C5.33684 5.99549 5.23954 5.95581 5.1382 5.95581C5.03687 5.95581 4.93956 5.99549 4.86711 6.06634L4.59411 6.33781C4.55954 6.37124 4.53204 6.41128 4.51325 6.45555C4.49447 6.49982 4.48478 6.54742 4.48476 6.59552C4.48467 6.64371 4.49416 6.69145 4.51267 6.73595C4.53118 6.78045 4.55834 6.82083 4.59258 6.85475L6.22294 8.47746L4.55741 10.1315C4.523 10.1652 4.49567 10.2054 4.477 10.2498C4.45834 10.2942 4.44873 10.3418 4.44873 10.39C4.44873 10.4381 4.45834 10.4858 4.477 10.5302C4.49567 10.5746 4.523 10.6148 4.55741 10.6485L4.83347 10.9199C4.90591 10.9908 5.00322 11.0305 5.10455 11.0305C5.20589 11.0305 5.3032 10.9908 5.37564 10.9199L7.57647 8.73287C7.61065 8.69907 7.63778 8.65881 7.65629 8.61444C7.6748 8.57007 7.68431 8.52247 7.68429 8.4744C7.68451 8.42641 7.67508 8.37886 7.65656 8.33459C7.63804 8.29032 7.6108 8.25022 7.57647 8.21669Z" fill="#F2F2F2"/>
<path d="M7.3125 6.48908C7.31247 6.53715 7.32199 6.58476 7.3405 6.62912C7.35901 6.67349 7.38614 6.71375 7.42032 6.74755L9.62268 8.93384C9.69512 9.0047 9.79243 9.04437 9.89376 9.04437C9.9951 9.04437 10.0924 9.0047 10.1649 8.93384L10.4409 8.66161C10.4755 8.62818 10.503 8.58814 10.5218 8.54387C10.5406 8.49959 10.5502 8.452 10.5503 8.4039C10.5503 8.35583 10.5408 8.30823 10.5223 8.26386C10.5038 8.21949 10.4766 8.17924 10.4424 8.14543L8.77997 6.49214L10.4103 4.86867C10.4445 4.83486 10.4716 4.79461 10.4901 4.75024C10.5087 4.70587 10.5182 4.65827 10.5181 4.6102C10.5181 4.5621 10.5084 4.51451 10.4897 4.47023C10.4709 4.42596 10.4434 4.38592 10.4088 4.35249L10.1327 4.08026C10.0603 4.0094 9.96298 3.96973 9.86165 3.96973C9.76031 3.96973 9.663 4.0094 9.59056 4.08026L7.42338 6.23061C7.38854 6.26408 7.36078 6.3042 7.34173 6.3486C7.32268 6.393 7.31274 6.44077 7.3125 6.48908Z" fill="#F2F2F2"/>
<defs>
<radialGradient id="paint0_radial_3736_3430" cx="0" cy="0" r="1" gradientUnits="userSpaceOnUse" gradientTransform="translate(7.5 7.5) scale(6.5)">
<stop stop-color="#198AB3"/>
<stop offset="0.382" stop-color="#1A8CB5"/>
<stop offset="0.576" stop-color="#1C94BC"/>
<stop offset="0.727" stop-color="#21A1C8"/>
<stop offset="0.856" stop-color="#27B4D8"/>
<stop offset="0.97" stop-color="#2FCCEE"/>
<stop offset="1" stop-color="#32D4F5"/>
</radialGradient>
</defs>
</svg>
