<svg width="15" height="15" viewBox="0 0 15 15" fill="none" xmlns="http://www.w3.org/2000/svg">
<path fill-rule="evenodd" clip-rule="evenodd" d="M7.51231 6.89354C7.49203 6.89354 7.47331 6.88756 7.45511 6.87703L3.63025 4.68835C3.61254 4.67831 3.59783 4.66373 3.58764 4.64611C3.57745 4.62849 3.57214 4.60847 3.57227 4.58812C3.57227 4.54795 3.59385 4.50973 3.63025 4.48958L7.43041 2.31494C7.44798 2.30517 7.46776 2.30005 7.48787 2.30005C7.50798 2.30005 7.52775 2.30517 7.54533 2.31494L11.371 4.50492C11.4055 4.52494 11.4284 4.56264 11.4284 4.60333C11.4284 4.62352 11.4231 4.64334 11.413 4.66084C11.4029 4.67833 11.3884 4.69288 11.371 4.70304L7.57003 6.87729C7.55209 6.88756 7.53285 6.89354 7.51231 6.89354Z" fill="#3999C6"/>
<path fill-rule="evenodd" clip-rule="evenodd" d="M6.96239 12.2139C6.94159 12.2139 6.92131 12.2091 6.90363 12.1987L3.09099 10.0168C3.05407 9.99648 3.03223 9.95904 3.03223 9.91718V5.53852C3.03229 5.51809 3.03776 5.49805 3.04808 5.48042C3.0584 5.46279 3.0732 5.44821 3.09099 5.43816C3.12583 5.4184 3.17055 5.4184 3.20747 5.43816L7.01959 7.62021C7.03689 7.63047 7.05121 7.64506 7.06115 7.66255C7.07109 7.68003 7.0763 7.69981 7.07627 7.71992V12.0991C7.07641 12.1192 7.07124 12.139 7.06129 12.1565C7.05134 12.174 7.03696 12.1885 7.01959 12.1987C7.00061 12.2092 6.98163 12.2139 6.96239 12.2139Z" fill="#59B4D9"/>
<path fill-rule="evenodd" clip-rule="evenodd" d="M8.04125 12.214C8.02175 12.214 8.00173 12.2092 7.98249 12.1988C7.96503 12.1887 7.95054 12.1742 7.94049 12.1567C7.93045 12.1392 7.9252 12.1194 7.92529 12.0992V7.7485C7.92529 7.70755 7.94713 7.66985 7.98249 7.64879L11.7941 5.46765C11.831 5.44763 11.8742 5.44763 11.9106 5.46765C11.9454 5.48832 11.9678 5.52615 11.9678 5.56697V9.91781C11.9678 9.95954 11.9457 9.99672 11.9106 10.0173L8.09767 12.1993C8.08181 12.2096 8.06127 12.2143 8.04125 12.2143" fill="#59B4D9"/>
<path opacity="0.5" fill-rule="evenodd" clip-rule="evenodd" d="M8.04101 12.214C8.02151 12.214 8.00149 12.2092 7.98225 12.1988C7.96478 12.1887 7.95029 12.1742 7.94025 12.1567C7.9302 12.1392 7.92496 12.1194 7.92505 12.0992V7.7485C7.92505 7.70755 7.94689 7.66985 7.98225 7.64879L11.7939 5.46765C11.8308 5.44763 11.8739 5.44763 11.9103 5.46765C11.9452 5.48832 11.9675 5.52615 11.9675 5.56697V9.91781C11.9675 9.95954 11.9454 9.99672 11.9103 10.0173L8.09743 12.1993C8.08157 12.2096 8.06103 12.2143 8.04101 12.2143" fill="white"/>
<path fill-rule="evenodd" clip-rule="evenodd" d="M3.48508 12.7001C3.41886 12.7001 3.35379 12.6828 3.29632 12.6499L1.51662 11.6311C1.2171 11.4592 1 11.0862 1 10.7437V4.25642C1 3.91374 1.2171 3.54051 1.51662 3.3693L3.29632 2.35049C3.47754 2.24714 3.70868 2.3085 3.81294 2.48764C3.9172 2.66678 3.85532 2.89623 3.67462 2.99984L1.89492 4.01865C1.83174 4.05492 1.7566 4.18388 1.7566 4.25629V10.7436C1.7566 10.816 1.83174 10.9452 1.89492 10.9812L3.67462 12C3.71754 12.0244 3.75519 12.057 3.78542 12.096C3.81564 12.135 3.83782 12.1796 3.85069 12.2272C3.86355 12.2749 3.86684 12.3246 3.86036 12.3735C3.85388 12.4224 3.83776 12.4696 3.81294 12.5122C3.77955 12.5695 3.73169 12.617 3.67414 12.65C3.6166 12.683 3.5514 12.7002 3.48508 12.7001ZM11.5149 2.30005C11.5811 2.30003 11.6462 2.31733 11.7037 2.35023L13.4834 3.36904C13.7829 3.54077 14 3.91387 14 4.25642V10.7437C14 11.0864 13.7829 11.4596 13.4834 11.6307L11.7037 12.6495C11.5225 12.7528 11.2913 12.6915 11.1871 12.5123C11.0828 12.3332 11.1447 12.1037 11.3254 12.0001L13.1051 10.9813C13.1683 10.9451 13.2434 10.8161 13.2434 10.7437V4.25642C13.2434 4.18401 13.1683 4.05479 13.1051 4.01878L11.3254 2.99997C11.2825 2.97562 11.2448 2.943 11.2146 2.90399C11.1844 2.86499 11.1622 2.82038 11.1493 2.77274C11.1364 2.7251 11.1332 2.67539 11.1396 2.62647C11.1461 2.57756 11.1622 2.53041 11.1871 2.48777C11.2205 2.43049 11.2683 2.383 11.3259 2.35005C11.3834 2.31711 11.4486 2.29986 11.5149 2.30005Z" fill="#7A7A7A"/>
</svg>
