<svg width="15" height="15" viewBox="0 0 15 15" fill="none" xmlns="http://www.w3.org/2000/svg">
<path d="M3.74585 11.1342C4.02607 11.309 4.49191 11.5033 4.98446 11.5033C5.43297 11.5033 5.84969 11.3733 6.19491 11.1516C6.19491 11.1516 6.19563 11.1516 6.19636 11.1509L7.49997 10.3362V13.2778C7.29342 13.2778 7.08541 13.2215 6.90486 13.1088L3.74585 11.1342Z" fill="#225086"/>
<path d="M6.67163 2.08834L1.25494 8.19835C0.836775 8.67069 0.945831 9.38425 1.48822 9.72297C1.48822 9.72297 3.49312 10.976 3.74589 11.1342C4.02612 11.309 4.49195 11.5033 4.98451 11.5033C5.43301 11.5033 5.84973 11.3733 6.19496 11.1515C6.19496 11.1515 6.19568 11.1515 6.1964 11.1508L7.50002 10.3361L4.34823 8.36591L7.50074 4.80968V1.72217C7.19452 1.72217 6.88829 1.84422 6.67163 2.08834Z" fill="#66DDFF"/>
<path d="M4.34814 8.3658L4.3857 8.38891L7.49993 10.336H7.50065V4.81029L7.49993 4.80957L4.34814 8.3658Z" fill="#CBF8FF"/>
<path d="M13.5118 9.7231C14.0542 9.38438 14.1633 8.67082 13.7451 8.19848L10.191 4.18942C9.90429 4.0558 9.58291 3.97925 9.24274 3.97925C8.57468 3.97925 7.9774 4.26742 7.58018 4.72025L7.50145 4.80908L10.6532 8.36532L7.50073 10.3355V13.2772C7.70801 13.2772 7.91457 13.2208 8.09512 13.1082L13.5118 9.72238V9.7231Z" fill="#074793"/>
<path d="M7.50072 1.72217V4.80968L7.57944 4.72084C7.97667 4.26801 8.57395 3.97984 9.242 3.97984C9.58289 3.97984 9.90356 4.05712 10.1903 4.19001L8.32767 2.08906C8.11172 1.84495 7.8055 1.72289 7.5 1.72289L7.50072 1.72217Z" fill="#0294E4"/>
<path d="M10.6525 8.36581L7.50073 4.8103V10.3353L10.6525 8.36581Z" fill="#96BCC2"/>
</svg>
