<svg width="15" height="15" viewBox="0 0 15 15" fill="none" xmlns="http://www.w3.org/2000/svg">
<mask id="mask0_3806_4413" style="mask-type:luminance" maskUnits="userSpaceOnUse" x="0" y="1" width="14" height="13">
<path d="M13.9998 1H0.999756V14H13.9998V1Z" fill="white"/>
</mask>
<g mask="url(#mask0_3806_4413)">
<path d="M0.999756 3.11701C0.999756 1.45666 3.17077 0.547714 4.60501 1.60758L7.7229 3.91005L10.3542 2.41893C11.7449 1.66059 13.9734 2.20449 13.9998 4.27748V11.917C13.9998 13.5774 11.8925 14.443 10.4582 13.3831L7.2835 11.0304L4.64911 12.5218C3.24528 13.2873 1.00195 12.7 1.00195 10.6825C1.00195 8.26084 0.999756 9.19066 0.999756 3.11701Z" fill="url(#paint0_linear_3806_4413)"/>
<path d="M0.999756 3.11701C0.999756 1.45666 3.17077 0.547714 4.60501 1.60758L7.7229 3.91005L10.3542 2.41893C11.7449 1.66059 13.9734 2.20449 13.9998 4.27748V11.917C13.9998 13.5774 11.8925 14.443 10.4582 13.3831L7.2835 11.0304L4.64911 12.5218C3.24528 13.2873 1.00195 12.7 1.00195 10.6825C1.00195 8.26084 0.999756 9.19066 0.999756 3.11701Z" fill="url(#paint1_radial_3806_4413)"/>
<path d="M0.999756 3.11701C0.999756 1.45666 3.17077 0.547714 4.60501 1.60758L7.7229 3.91005L10.3542 2.41893C11.7449 1.66059 13.9734 2.20449 13.9998 4.27748V11.917C13.9998 13.5774 11.8925 14.443 10.4582 13.3831L7.2835 11.0304L4.64911 12.5218C3.24528 13.2873 1.00195 12.7 1.00195 10.6825C1.00195 8.26084 0.999756 9.19066 0.999756 3.11701Z" fill="url(#paint2_radial_3806_4413)"/>
<path d="M4.60501 1.60758C3.17077 0.547714 0.999756 1.45666 0.999756 3.11701V10.5884C0.999756 10.4068 1.0923 10.0452 1.0923 10.0452C1.52009 8.64684 3.33857 8.12255 4.59669 9.04405L10.4582 13.3831C11.8925 14.443 13.9998 13.5774 13.9998 11.917V4.27748C13.9998 5.69584 12.1459 7.11966 10.3945 5.88596L4.60501 1.60758Z" fill="url(#paint3_radial_3806_4413)"/>
<path d="M4.60501 1.60758C3.17077 0.547714 0.999756 1.45666 0.999756 3.11701V10.5884C0.999756 10.4068 1.0923 10.0452 1.0923 10.0452C1.52009 8.64684 3.33857 8.12255 4.59669 9.04405L10.4582 13.3831C11.8925 14.443 13.9998 13.5774 13.9998 11.917V4.27748C13.9998 5.69584 12.1459 7.11966 10.3945 5.88596L4.60501 1.60758Z" fill="url(#paint4_radial_3806_4413)" fill-opacity="0.25"/>
<path d="M4.60501 1.60758C3.17077 0.547714 0.999756 1.45666 0.999756 3.11701V10.5884C0.999756 10.4068 1.0923 10.0452 1.0923 10.0452C1.52009 8.64684 3.33857 8.12255 4.59669 9.04405L10.4582 13.3831C11.8925 14.443 13.9998 13.5774 13.9998 11.917V4.27748C13.9998 5.69584 12.1459 7.11966 10.3945 5.88596L4.60501 1.60758Z" fill="url(#paint5_radial_3806_4413)" fill-opacity="0.55"/>
<path d="M4.60501 5.84176C3.17077 4.78191 0.999756 5.69087 0.999756 7.35119L0.999756 3.11701C0.999756 1.45666 3.17077 0.547714 4.60501 1.60758C6.53486 3.03369 8.46464 4.45986 10.3945 5.88596C12.1459 7.11966 13.9998 5.69584 13.9998 4.27748V8.61073C13.9998 10.2711 11.8288 11.1801 10.3945 10.1202C8.46464 8.69406 6.53486 7.2679 4.60501 5.84176Z" fill="url(#paint6_linear_3806_4413)"/>
<path d="M4.60501 5.84176C3.17077 4.78191 0.999756 5.69087 0.999756 7.35119L0.999756 3.11701C0.999756 1.45666 3.17077 0.547714 4.60501 1.60758C6.53486 3.03369 8.46464 4.45986 10.3945 5.88596C12.1459 7.11966 13.9998 5.69584 13.9998 4.27748V8.61073C13.9998 10.2711 11.8288 11.1801 10.3945 10.1202C8.46464 8.69406 6.53486 7.2679 4.60501 5.84176Z" fill="url(#paint7_radial_3806_4413)" fill-opacity="0.35"/>
</g>
<defs>
<linearGradient id="paint0_linear_3806_4413" x1="6.55127" y1="13.8477" x2="11.1908" y2="3.92016" gradientUnits="userSpaceOnUse">
<stop offset="0.02" stop-color="#1169DA"/>
<stop offset="0.434784" stop-color="#0151BD"/>
<stop offset="0.614436" stop-color="#014DB7"/>
<stop offset="1" stop-color="#126AD9"/>
</linearGradient>
<radialGradient id="paint1_radial_3806_4413" cx="0" cy="0" r="1" gradientUnits="userSpaceOnUse" gradientTransform="translate(12.6338 -0.606072) rotate(110.224) scale(9.49806 7.1148)">
<stop offset="0.422966" stop-color="#004AFF" stop-opacity="0.1"/>
<stop offset="0.728672" stop-color="#014DB9"/>
<stop offset="0.836135" stop-color="#014DB9" stop-opacity="0.9"/>
<stop offset="0.955" stop-color="#014DB9" stop-opacity="0"/>
</radialGradient>
<radialGradient id="paint2_radial_3806_4413" cx="0" cy="0" r="1" gradientUnits="userSpaceOnUse" gradientTransform="translate(2.73516 13.4596) rotate(-73.6432) scale(7.56171 9.21112)">
<stop offset="0.0908532" stop-color="#004AFF" stop-opacity="0.1"/>
<stop offset="0.56036" stop-color="#014DB9"/>
<stop offset="0.749466" stop-color="#014DB9" stop-opacity="0.99"/>
<stop offset="1" stop-color="#014DB9" stop-opacity="0"/>
</radialGradient>
<radialGradient id="paint3_radial_3806_4413" cx="0" cy="0" r="1" gradientUnits="userSpaceOnUse" gradientTransform="translate(15.2594 1.15234) rotate(134.068) scale(18.3286 14.1172)">
<stop offset="0.249322" stop-color="#23C0FE"/>
<stop offset="0.717207" stop-color="#23C0FE"/>
<stop offset="0.995168" stop-color="#1C91FF"/>
</radialGradient>
<radialGradient id="paint4_radial_3806_4413" cx="0" cy="0" r="1" gradientUnits="userSpaceOnUse" gradientTransform="translate(4.87622 2.18289) rotate(45.9092) scale(13.1124 3.11931)">
<stop offset="0.165" stop-color="#096DD6" stop-opacity="0"/>
<stop offset="0.484233" stop-color="#096DD6"/>
<stop offset="0.900505" stop-color="#0876DE" stop-opacity="0.813868"/>
<stop offset="1" stop-color="#029AFF" stop-opacity="0"/>
</radialGradient>
<radialGradient id="paint5_radial_3806_4413" cx="0" cy="0" r="1" gradientUnits="userSpaceOnUse" gradientTransform="translate(13.5152 8.94002) rotate(91.6099) scale(2.10597 1.89655)">
<stop stop-color="#0068B3"/>
<stop offset="0.93" stop-color="#006CB8" stop-opacity="0"/>
</radialGradient>
<linearGradient id="paint6_linear_3806_4413" x1="4.70589" y1="4.1463" x2="6.89467" y2="13.447" gradientUnits="userSpaceOnUse">
<stop stop-color="#92EEFE"/>
<stop offset="0.564559" stop-color="#35DDFF"/>
<stop offset="1" stop-color="#08B1F9"/>
</linearGradient>
<radialGradient id="paint7_radial_3806_4413" cx="0" cy="0" r="1" gradientUnits="userSpaceOnUse" gradientTransform="translate(3.18036 1.15234) rotate(69.461) scale(3.23907 2.61621)">
<stop stop-color="#CCF9FF" stop-opacity="0.93"/>
<stop offset="1" stop-color="#35DDFF"/>
</radialGradient>
</defs>
</svg>
