<svg width="15" height="15" viewBox="0 0 15 15" fill="none" xmlns="http://www.w3.org/2000/svg">
<mask id="mask0_3767_3185" style="mask-type:luminance" maskUnits="userSpaceOnUse" x="1" y="1" width="13" height="13">
<path d="M14 1H1V14H14V1Z" fill="white"/>
</mask>
<g mask="url(#mask0_3767_3185)">
<path d="M1 3.11701C1 1.45666 3.17101 0.547714 4.60525 1.60758L7.72314 3.91005L10.3544 2.41893C11.7451 1.66059 13.9736 2.20449 14 4.27748V11.917C14 13.5774 11.8927 14.443 10.4585 13.3831L7.28374 11.0304L4.64935 12.5218C3.24553 13.2873 1.00219 12.7 1.00219 10.6825C1.00219 8.26084 1 9.19066 1 3.11701Z" fill="url(#paint0_linear_3767_3185)"/>
<path d="M1 3.11701C1 1.45666 3.17101 0.547714 4.60525 1.60758L7.72314 3.91005L10.3544 2.41893C11.7451 1.66059 13.9736 2.20449 14 4.27748V11.917C14 13.5774 11.8927 14.443 10.4585 13.3831L7.28374 11.0304L4.64935 12.5218C3.24553 13.2873 1.00219 12.7 1.00219 10.6825C1.00219 8.26084 1 9.19066 1 3.11701Z" fill="url(#paint1_radial_3767_3185)"/>
<path d="M1 3.11701C1 1.45666 3.17101 0.547714 4.60525 1.60758L7.72314 3.91005L10.3544 2.41893C11.7451 1.66059 13.9736 2.20449 14 4.27748V11.917C14 13.5774 11.8927 14.443 10.4585 13.3831L7.28374 11.0304L4.64935 12.5218C3.24553 13.2873 1.00219 12.7 1.00219 10.6825C1.00219 8.26084 1 9.19066 1 3.11701Z" fill="url(#paint2_radial_3767_3185)"/>
<path d="M4.60525 1.60758C3.17101 0.547714 1 1.45666 1 3.11701V10.5884C1 10.4068 1.09254 10.0452 1.09254 10.0452C1.52033 8.64684 3.33881 8.12255 4.59693 9.04405L10.4585 13.3831C11.8927 14.443 14 13.5774 14 11.917V4.27748C14 5.69584 12.1461 7.11966 10.3948 5.88596L4.60525 1.60758Z" fill="url(#paint3_radial_3767_3185)"/>
<path d="M4.60525 1.60758C3.17101 0.547714 1 1.45666 1 3.11701V10.5884C1 10.4068 1.09254 10.0452 1.09254 10.0452C1.52033 8.64684 3.33881 8.12255 4.59693 9.04405L10.4585 13.3831C11.8927 14.443 14 13.5774 14 11.917V4.27748C14 5.69584 12.1461 7.11966 10.3948 5.88596L4.60525 1.60758Z" fill="url(#paint4_radial_3767_3185)" fill-opacity="0.25"/>
<path d="M4.60525 1.60758C3.17101 0.547714 1 1.45666 1 3.11701V10.5884C1 10.4068 1.09254 10.0452 1.09254 10.0452C1.52033 8.64684 3.33881 8.12255 4.59693 9.04405L10.4585 13.3831C11.8927 14.443 14 13.5774 14 11.917V4.27748C14 5.69584 12.1461 7.11966 10.3948 5.88596L4.60525 1.60758Z" fill="url(#paint5_radial_3767_3185)" fill-opacity="0.55"/>
<path d="M4.60525 5.84176C3.17101 4.78191 1 5.69087 1 7.35119L1 3.11701C1 1.45666 3.17101 0.547714 4.60525 1.60758C6.5351 3.03369 8.46489 4.45986 10.3948 5.88596C12.1461 7.11966 14 5.69584 14 4.27748V8.61073C14 10.2711 11.829 11.1801 10.3948 10.1202C8.46489 8.69406 6.5351 7.2679 4.60525 5.84176Z" fill="url(#paint6_linear_3767_3185)"/>
<path d="M4.60525 5.84176C3.17101 4.78191 1 5.69087 1 7.35119L1 3.11701C1 1.45666 3.17101 0.547714 4.60525 1.60758C6.5351 3.03369 8.46489 4.45986 10.3948 5.88596C12.1461 7.11966 14 5.69584 14 4.27748V8.61073C14 10.2711 11.829 11.1801 10.3948 10.1202C8.46489 8.69406 6.5351 7.2679 4.60525 5.84176Z" fill="url(#paint7_radial_3767_3185)" fill-opacity="0.35"/>
</g>
<defs>
<linearGradient id="paint0_linear_3767_3185" x1="6.55151" y1="13.8477" x2="11.1911" y2="3.92016" gradientUnits="userSpaceOnUse">
<stop offset="0.02" stop-color="#1169DA"/>
<stop offset="0.434784" stop-color="#0151BD"/>
<stop offset="0.614436" stop-color="#014DB7"/>
<stop offset="1" stop-color="#126AD9"/>
</linearGradient>
<radialGradient id="paint1_radial_3767_3185" cx="0" cy="0" r="1" gradientUnits="userSpaceOnUse" gradientTransform="translate(12.6341 -0.606072) rotate(110.224) scale(9.49806 7.1148)">
<stop offset="0.422966" stop-color="#004AFF" stop-opacity="0.1"/>
<stop offset="0.728672" stop-color="#014DB9"/>
<stop offset="0.836135" stop-color="#014DB9" stop-opacity="0.9"/>
<stop offset="0.955" stop-color="#014DB9" stop-opacity="0"/>
</radialGradient>
<radialGradient id="paint2_radial_3767_3185" cx="0" cy="0" r="1" gradientUnits="userSpaceOnUse" gradientTransform="translate(2.7354 13.4596) rotate(-73.6432) scale(7.56171 9.21112)">
<stop offset="0.0908532" stop-color="#004AFF" stop-opacity="0.1"/>
<stop offset="0.56036" stop-color="#014DB9"/>
<stop offset="0.749466" stop-color="#014DB9" stop-opacity="0.99"/>
<stop offset="1" stop-color="#014DB9" stop-opacity="0"/>
</radialGradient>
<radialGradient id="paint3_radial_3767_3185" cx="0" cy="0" r="1" gradientUnits="userSpaceOnUse" gradientTransform="translate(15.2597 1.15234) rotate(134.068) scale(18.3286 14.1172)">
<stop offset="0.249322" stop-color="#23C0FE"/>
<stop offset="0.717207" stop-color="#23C0FE"/>
<stop offset="0.995168" stop-color="#1C91FF"/>
</radialGradient>
<radialGradient id="paint4_radial_3767_3185" cx="0" cy="0" r="1" gradientUnits="userSpaceOnUse" gradientTransform="translate(4.87647 2.18289) rotate(45.9092) scale(13.1124 3.11931)">
<stop offset="0.165" stop-color="#096DD6" stop-opacity="0"/>
<stop offset="0.484233" stop-color="#096DD6"/>
<stop offset="0.900505" stop-color="#0876DE" stop-opacity="0.813868"/>
<stop offset="1" stop-color="#029AFF" stop-opacity="0"/>
</radialGradient>
<radialGradient id="paint5_radial_3767_3185" cx="0" cy="0" r="1" gradientUnits="userSpaceOnUse" gradientTransform="translate(13.5155 8.94002) rotate(91.6099) scale(2.10597 1.89655)">
<stop stop-color="#0068B3"/>
<stop offset="0.93" stop-color="#006CB8" stop-opacity="0"/>
</radialGradient>
<linearGradient id="paint6_linear_3767_3185" x1="4.70613" y1="4.1463" x2="6.89491" y2="13.447" gradientUnits="userSpaceOnUse">
<stop stop-color="#92EEFE"/>
<stop offset="0.564559" stop-color="#35DDFF"/>
<stop offset="1" stop-color="#08B1F9"/>
</linearGradient>
<radialGradient id="paint7_radial_3767_3185" cx="0" cy="0" r="1" gradientUnits="userSpaceOnUse" gradientTransform="translate(3.18061 1.15234) rotate(69.461) scale(3.23907 2.61621)">
<stop stop-color="#CCF9FF" stop-opacity="0.93"/>
<stop offset="1" stop-color="#35DDFF"/>
</radialGradient>
</defs>
</svg>
