<svg width="15" height="15" viewBox="0 0 15 15" fill="none" xmlns="http://www.w3.org/2000/svg">
<g clip-path="url(#clip0_3776_10941)">
<path d="M7.50021 14.4439C6.12688 14.4439 4.7844 14.0367 3.64251 13.2738C2.50062 12.5108 1.61061 11.4264 1.08502 10.1576C0.559438 8.88881 0.421876 7.49268 0.689738 6.14574C0.9576 4.79879 1.61885 3.56151 2.58988 2.59037C3.56091 1.61922 4.79811 0.957819 6.14503 0.689796C7.49195 0.421772 8.88809 0.559164 10.1569 1.0846C11.4258 1.61003 12.5103 2.49991 13.2734 3.6417C14.0365 4.7835 14.4439 6.12594 14.444 7.49926C14.442 9.34031 13.7098 11.1054 12.4079 12.4072C11.1061 13.709 9.34105 14.4413 7.50001 14.4433M7.50001 -0.000529079C6.01664 -0.000529078 4.56657 0.439345 3.3332 1.26346C2.09983 2.08758 1.13854 3.25895 0.570884 4.62941C0.00323279 5.99986 -0.145276 7.50786 0.14413 8.96272C0.433536 10.4176 1.14786 11.754 2.19678 12.8028C3.24569 13.8517 4.58208 14.566 6.03695 14.8554C7.49182 15.1448 8.99983 14.9962 10.3703 14.4285C11.7407 13.8608 12.912 12.8995 13.7361 11.6661C14.5602 10.4327 15 8.98263 15 7.49926C14.9978 5.51082 14.2069 3.60444 12.8009 2.1984C11.3948 0.792354 9.48845 0.00167547 7.50001 -0.000529079Z" fill="black"/>
<path d="M9.15946 3.96704H8.73385C8.70536 3.9595 8.67557 3.95818 8.64652 3.96317C8.61747 3.96815 8.58983 3.97933 8.56547 3.99594C8.54112 4.01255 8.52062 4.03421 8.50537 4.05944C8.49013 4.08467 8.48049 4.11288 8.47711 4.14216L6.27474 10.8028C6.26326 10.8326 6.25623 10.8639 6.25391 10.8957C6.25391 10.9581 6.28431 11.0321 6.42882 11.0321H6.8588C6.88757 11.0396 6.9176 11.0408 6.94689 11.0357C6.97618 11.0306 7.00403 11.0193 7.02859 11.0026C7.05315 10.9858 7.07385 10.964 7.08928 10.9386C7.10471 10.9132 7.11451 10.8848 7.11804 10.8553L9.31209 4.19338C9.32353 4.16396 9.33055 4.13302 9.33292 4.10155C9.33292 4.03909 9.30293 3.96622 9.15967 3.96622" fill="black"/>
<path d="M10.6417 6.80099C10.5899 6.76567 10.5273 6.74974 10.4649 6.75601H10.0901C10.0278 6.74965 9.96521 6.76558 9.91352 6.80099C9.89344 6.82478 9.8785 6.85248 9.86965 6.88234C9.8608 6.91219 9.85823 6.94354 9.8621 6.97444V10.8145C9.85822 10.8454 9.86081 10.8768 9.8697 10.9066C9.87859 10.9365 9.89358 10.9642 9.91374 10.9879C9.96531 11.0234 10.0278 11.0394 10.0901 11.0329H10.4649C10.5273 11.0393 10.5899 11.0234 10.6417 10.9879C10.6617 10.9641 10.6767 10.9364 10.6855 10.9066C10.6944 10.8768 10.697 10.8454 10.6931 10.8145V6.97444C10.6969 6.94354 10.6943 6.91219 10.6855 6.88235C10.6766 6.8525 10.6617 6.8248 10.6417 6.80099Z" fill="black"/>
<path d="M6.14574 4.65129C6.09519 4.58216 6.03816 4.51801 5.97541 4.45973C5.63913 4.15447 5.29202 3.97622 4.51264 3.96873L4.00645 3.96706H4.00333C3.9767 3.96588 3.95004 3.96862 3.9242 3.97518C3.87194 3.99226 3.81802 4.03765 3.85716 4.15842L3.90755 4.31293L3.97168 4.51012C3.98276 4.56184 4.00875 4.60918 4.04644 4.64629C4.09003 4.66905 4.13892 4.67969 4.18803 4.67711H4.32587C4.81415 4.67711 5.14002 4.77685 5.35116 4.99132C5.55939 5.20183 5.65933 5.56601 5.65933 6.10468C5.65933 6.64336 5.55855 7.00754 5.35116 7.21827C5.14002 7.43253 4.81436 7.53247 4.32607 7.53247H4.18885C4.13956 7.52978 4.09046 7.54035 4.04664 7.56309C4.00888 7.60017 3.98282 7.64752 3.97168 7.69926L3.90755 7.89645L3.85716 8.05094C3.81802 8.17151 3.87194 8.21752 3.9242 8.23418C3.94983 8.24074 3.97628 8.24348 4.00271 8.2423L4.51264 8.24064C5.29202 8.23314 5.63913 8.05491 5.97541 7.74965C6.03813 7.69134 6.09516 7.6272 6.14574 7.55809C6.39561 7.22493 6.51763 6.74997 6.51763 6.10364C6.51763 5.45732 6.39602 4.98153 6.14574 4.6492" fill="black"/>
</g>
<defs>
<clipPath id="clip0_3776_10941">
<rect width="15" height="15" fill="white"/>
</clipPath>
</defs>
</svg>
