<svg width="15" height="15" viewBox="0 0 15 15" fill="none" xmlns="http://www.w3.org/2000/svg">
<g clip-path="url(#clip0_3776_10947)">
<path d="M7.49951 0C3.39701 0 1.33701 2.195 1.33701 2.195C1.33701 2.195 1.10076 3.81938 1.25139 7.09063C1.47826 12.0312 7.50014 15 7.50014 15C7.50014 15 13.522 12.0319 13.7489 7.09063C13.8995 3.81938 13.6639 2.195 13.6639 2.195C13.6639 2.195 11.6014 0 7.49951 0ZM7.07514 1.825C7.71278 1.76588 8.35574 1.84044 8.96293 2.04392C9.57012 2.24739 10.1282 2.5753 10.6015 3.00669C11.0747 3.43808 11.4528 3.96346 11.7115 4.54926C11.9702 5.13505 12.1038 5.76837 12.1039 6.40875C12.1036 7.08902 11.9473 7.76015 11.647 8.37058C11.3468 8.98101 10.9106 9.51448 10.372 9.93C9.63451 9.8625 8.86576 9.65375 8.51701 9.455C9.41576 8.88125 10.582 7.765 10.582 6.40875C10.581 5.59175 10.256 4.8085 9.67822 4.23085C9.10045 3.6532 8.31714 3.32833 7.50014 3.3275C5.80201 3.3275 4.42014 4.74812 4.42014 6.49562C4.42014 7.95312 5.19264 9.09688 6.71514 9.89563C7.71201 10.4187 9.19826 10.8019 10.7683 11.0038C10.507 11.3925 9.81014 12.0575 9.40326 12.2825C7.52264 11.9738 5.87139 11.3225 4.74201 10.3469C3.53451 9.30313 2.89576 7.94187 2.89576 6.40875C2.89569 5.26129 3.32413 4.15515 4.09713 3.30713C4.87012 2.4591 5.93195 1.9303 7.07451 1.82437" fill="#C92C2C"/>
</g>
<defs>
<clipPath id="clip0_3776_10947">
<rect width="15" height="15" fill="white"/>
</clipPath>
</defs>
</svg>
