<svg width="15" height="15" viewBox="0 0 15 15" fill="none" xmlns="http://www.w3.org/2000/svg">
<g clip-path="url(#clip0_3799_1208)">
<path fill-rule="evenodd" clip-rule="evenodd" d="M11.7314 2.32232C12.9658 3.17168 13.9183 4.36977 14.4668 5.76372C15.0161 7.15671 15.1355 8.68251 14.8107 10.1443C14.4859 11.6061 13.732 12.938 12.6448 13.9689C12.5177 14.0921 12.3696 14.1924 12.2072 14.2631C12.0448 14.3348 11.8709 14.3768 11.6941 14.3864C11.5174 14.3969 11.3397 14.3759 11.1706 14.3233C11.0015 14.2717 10.8429 14.1905 10.7015 14.0825C10.241 13.7396 9.72887 13.473 9.18429 13.2934C8.63874 13.1128 8.06932 13.0211 7.49511 13.0211C6.92091 13.0211 6.35053 13.1128 5.80594 13.2934C5.26136 13.473 4.7483 13.7396 4.28779 14.0825C4.1483 14.1896 3.99161 14.2717 3.82346 14.3243C3.65531 14.3768 3.47951 14.3988 3.30371 14.3892C3.12792 14.3806 2.95499 14.3405 2.79352 14.2708C2.63206 14.201 2.48397 14.1036 2.35594 13.9822C1.26104 12.9475 0.501481 11.608 0.17664 10.1367C-0.1482 8.66531 -0.0230412 7.13091 0.535876 5.73219C1.0948 4.33251 2.06072 3.13346 3.30945 2.28983C4.55817 1.4462 6.03142 0.996202 7.53906 1.00002C9.03715 1.01244 10.497 1.47391 11.7314 2.32232ZM8.94352 12.0103C9.40403 11.8268 9.8225 11.5517 10.1731 11.202C10.5238 10.8513 10.7989 10.4338 10.9824 9.97327C11.1658 9.51372 11.2537 9.02072 11.2403 8.52582C11.2403 7.53314 10.8457 6.58155 10.1435 5.87932C9.44129 5.17709 8.48875 4.78251 7.49511 4.78251C6.50148 4.78251 5.54894 5.17709 4.84671 5.87932C4.14448 6.58155 3.74989 7.53314 3.74989 8.52582C3.73652 9.02072 3.82441 9.51372 4.00785 9.97327C4.19129 10.4338 4.46645 10.8513 4.81709 11.202C5.16773 11.5517 5.5862 11.8268 6.04575 12.0103C6.50626 12.1937 6.99925 12.2816 7.49511 12.2682C7.99002 12.2816 8.48301 12.1937 8.94352 12.0103Z" fill="#62D84E"/>
</g>
<defs>
<clipPath id="clip0_3799_1208">
<rect width="15" height="15" fill="white"/>
</clipPath>
</defs>
</svg>
